{"glyphs":{"0":{"ha":575,"x_min":0,"x_max":0,"o":"m 250 47 l 229 47 l 197 60 l 163 81 l 129 115 l 71 199 l 53 236 l 43 265 l 31 329 l 28 383 l 31 443 l 51 575 l 85 688 l 90 694 l 94 713 l 108 739 l 111 740 l 118 756 l 132 774 l 147 786 l 174 824 l 190 836 l 219 850 l 250 869 l 283 872 l 290 876 l 308 881 l 325 886 l 338 893 l 353 893 l 375 885 l 401 892 l 428 883 l 451 864 l 458 851 l 482 829 l 497 801 l 503 764 l 506 760 l 507 753 l 517 733 l 517 719 l 519 686 l 526 678 l 532 657 l 536 619 l 543 601 l 542 539 l 543 494 l 547 482 l 543 435 l 539 421 l 539 394 l 536 386 l 535 335 l 525 264 l 510 221 l 493 183 l 490 168 l 450 117 l 425 92 l 407 76 l 403 74 l 382 61 l 368 58 l 361 58 l 356 53 l 347 51 l 339 46 l 311 42 l 272 44 m 314 126 l 321 126 l 335 140 l 361 186 l 374 222 l 393 333 l 399 435 l 394 647 l 388 679 l 383 710 l 375 722 l 358 742 l 340 768 l 331 779 l 319 779 l 300 771 l 260 726 l 250 711 l 244 707 l 219 656 l 215 642 l 208 632 l 194 589 l 190 581 l 183 549 l 181 542 l 181 533 l 169 464 l 169 371 l 181 307 l 219 224 l 260 181 l 275 157 l 282 151 l 296 136 "},"1":{"ha":440,"x_min":0,"x_max":0,"o":"m 238 14 l 235 21 l 222 39 l 214 69 l 214 99 l 210 126 l 210 157 l 201 188 l 213 474 l 208 506 l 196 483 l 172 458 l 154 446 l 122 436 l 79 438 l 69 443 l 58 443 l 31 458 l 28 471 l 28 486 l 39 489 l 53 489 l 69 508 l 106 567 l 176 703 l 178 713 l 193 732 l 214 782 l 215 799 l 231 815 l 243 822 l 296 842 l 317 846 l 339 854 l 351 854 l 361 842 l 374 775 l 382 661 l 382 649 l 386 611 l 385 519 l 388 504 l 392 451 l 397 219 l 403 188 l 410 94 l 413 83 l 413 21 l 407 13 l 392 6 l 375 18 l 369 14 l 354 14 l 347 7 l 335 0 l 325 3 l 317 0 l 303 6 l 269 3 l 258 -1 l 251 3 "},"2":{"ha":572,"x_min":0,"x_max":0,"o":"m 208 11 l 168 13 l 150 21 l 147 26 l 136 35 l 128 60 l 135 71 l 150 186 l 153 196 l 154 221 l 208 374 l 243 442 l 247 457 l 281 526 l 290 564 l 296 579 l 310 606 l 321 642 l 328 657 l 328 664 l 331 678 l 338 689 l 351 746 l 358 804 l 353 824 l 336 842 l 315 853 l 303 853 l 281 844 l 260 835 l 224 813 l 193 783 l 176 756 l 164 721 l 160 683 l 160 669 l 157 640 l 163 603 l 167 589 l 169 569 l 176 554 l 199 485 l 217 444 l 211 413 l 193 392 l 183 388 l 181 385 l 154 374 l 126 374 l 106 385 l 86 406 l 82 421 l 72 439 l 51 503 l 36 542 l 28 592 l 28 663 l 36 726 l 44 747 l 50 767 l 56 776 l 58 789 l 79 814 l 85 824 l 147 874 l 204 904 l 249 913 l 250 913 l 311 924 l 371 924 l 421 914 l 463 897 l 468 892 l 494 876 l 517 847 l 519 843 l 531 825 l 540 776 l 544 746 l 540 704 l 538 692 l 538 678 l 532 644 l 511 578 l 506 567 l 503 553 l 494 538 l 489 508 l 458 425 l 447 407 l 444 389 l 439 382 l 438 378 l 431 371 l 411 321 l 396 299 l 381 257 l 375 238 l 367 231 l 356 210 l 356 199 l 343 183 l 343 169 l 336 157 l 342 157 l 414 201 l 447 217 l 500 217 l 513 210 l 513 206 l 515 204 l 517 197 l 524 196 l 524 186 l 526 182 l 524 165 l 518 160 l 518 153 l 544 153 l 544 147 l 529 143 l 438 72 l 321 21 l 251 3 l 236 -3 "},"3":{"ha":647,"x_min":0,"x_max":0,"o":"m 247 82 l 211 104 l 189 114 l 161 135 l 146 156 l 119 208 l 118 218 l 111 233 l 108 249 l 104 263 l 101 290 l 99 299 l 93 326 l 85 343 l 85 354 l 111 363 l 125 358 l 136 350 l 147 347 l 203 306 l 210 292 l 233 254 l 254 214 l 286 172 l 336 206 l 394 263 l 442 431 l 442 451 l 406 464 l 403 451 l 401 451 l 396 463 l 336 464 l 329 467 l 313 468 l 279 479 l 257 515 l 232 532 l 221 556 l 222 588 l 268 638 l 354 760 l 385 819 l 396 853 l 371 853 l 361 849 l 356 851 l 336 847 l 319 840 l 308 838 l 290 822 l 278 808 l 267 804 l 238 779 l 206 744 l 201 733 l 196 729 l 179 693 l 172 644 l 176 590 l 168 567 l 156 554 l 132 554 l 110 571 l 79 590 l 69 592 l 33 613 l 28 643 l 28 704 l 53 771 l 90 831 l 133 876 l 172 906 l 232 936 l 292 947 l 325 947 l 346 944 l 357 944 l 429 926 l 454 917 l 493 888 l 500 885 l 519 858 l 528 840 l 533 824 l 536 786 l 533 776 l 533 765 l 524 722 l 510 685 l 503 672 l 496 653 l 481 632 l 471 622 l 467 613 l 408 550 l 486 531 l 538 504 l 574 476 l 599 449 l 615 417 l 619 397 l 618 344 l 601 304 l 596 283 l 585 265 l 581 235 l 564 186 l 551 175 l 549 163 l 532 153 l 521 131 l 504 122 l 488 108 l 483 107 l 474 96 l 463 93 l 457 86 l 446 82 l 435 74 l 400 58 l 388 56 l 313 57 "},"6":{"ha":593,"x_min":0,"x_max":0,"o":"m 260 25 l 219 29 l 178 44 l 144 65 l 121 90 l 90 144 l 65 196 l 61 211 l 47 249 l 28 353 l 28 454 l 36 531 l 47 581 l 97 726 l 156 835 l 167 847 l 188 879 l 210 896 l 260 918 l 310 925 l 331 924 l 342 926 l 374 921 l 400 921 l 432 913 l 447 904 l 467 897 l 481 883 l 485 876 l 503 857 l 511 833 l 511 810 l 510 796 l 510 743 l 497 724 l 486 721 l 454 721 l 442 729 l 428 735 l 422 743 l 422 799 l 418 807 l 390 844 l 375 849 l 358 843 l 331 829 l 310 807 l 299 801 l 292 786 l 282 771 l 279 758 l 269 742 l 265 729 l 253 711 l 231 653 l 211 582 l 211 572 l 246 594 l 274 604 l 308 608 l 313 608 l 361 614 l 422 604 l 439 593 l 450 589 l 488 565 l 522 524 l 540 486 l 542 479 l 550 468 l 558 442 l 558 436 l 565 406 l 564 272 l 556 256 l 543 204 l 540 186 l 525 154 l 525 144 l 517 142 l 513 126 l 501 100 l 482 86 l 475 83 l 458 67 l 429 42 l 410 31 l 389 26 l 379 22 l 375 24 l 353 24 l 322 15 l 283 21 m 346 100 l 367 110 l 390 142 l 392 256 l 400 335 l 390 451 l 382 488 l 364 533 l 349 553 l 340 558 l 324 549 l 324 536 l 321 533 l 308 542 l 290 522 l 286 513 l 274 496 l 269 479 l 263 465 l 256 442 l 249 433 l 247 424 l 242 414 l 235 407 l 219 361 l 213 304 l 225 265 l 233 231 l 239 224 l 247 192 l 269 149 l 288 125 l 307 111 "},"7":{"ha":460,"x_min":0,"x_max":0,"o":"m 221 -14 l 211 -12 l 201 -7 l 193 -12 l 185 -12 l 181 -15 l 169 -1 l 163 1 l 158 3 l 143 6 l 121 24 l 110 68 l 110 125 l 104 136 l 113 175 l 114 179 l 117 204 l 121 213 l 125 233 l 125 238 l 124 243 l 206 556 l 239 722 l 239 746 l 233 763 l 214 764 l 204 769 l 171 774 l 160 779 l 140 786 l 111 804 l 56 861 l 39 867 l 38 869 l 28 875 l 28 883 l 46 893 l 74 893 l 149 882 l 269 882 l 290 886 l 314 881 l 365 865 l 388 851 l 411 843 l 425 828 l 428 806 l 432 792 l 431 728 l 417 646 l 417 636 l 411 615 l 401 532 l 376 415 l 374 396 l 357 322 l 354 317 l 342 260 l 342 251 l 308 115 l 300 96 l 288 39 l 278 14 l 274 14 l 264 18 l 251 -10 l 246 -14 l 225 -24 m 99 104 l 99 101 l 96 101 l 96 104 "},"8":{"ha":519,"x_min":0,"x_max":0,"o":"m 135 15 l 114 28 l 75 67 l 50 111 l 35 156 l 28 206 l 32 258 l 44 319 l 68 381 l 110 446 l 158 501 l 161 510 l 182 513 l 210 528 l 174 588 l 149 619 l 138 640 l 132 689 l 132 753 l 147 808 l 168 851 l 196 882 l 219 896 l 242 906 l 278 915 l 318 921 l 400 921 l 429 908 l 451 893 l 469 875 l 485 839 l 492 808 l 492 771 l 485 735 l 475 710 l 464 675 l 451 653 l 443 632 l 429 610 l 419 588 l 393 563 l 385 549 l 367 529 l 361 529 l 361 521 l 417 447 l 426 442 l 446 385 l 453 371 l 457 358 l 465 342 l 468 303 l 468 168 l 453 129 l 450 113 l 433 79 l 408 47 l 394 39 l 386 31 l 382 28 l 371 21 l 331 6 l 264 -3 l 201 -1 m 260 75 l 292 75 l 315 101 l 329 139 l 339 211 l 332 240 l 339 240 l 339 267 l 325 308 l 310 376 l 281 426 l 256 401 l 243 375 l 229 356 l 222 326 l 213 310 l 207 292 l 200 257 l 200 181 l 206 163 l 204 143 l 218 118 l 236 100 l 244 88 m 293 604 l 300 626 l 301 631 l 313 663 l 313 669 l 339 768 l 340 811 l 329 863 l 322 863 l 299 844 l 290 818 l 281 818 l 275 792 l 261 765 l 261 751 l 254 736 l 250 715 l 250 656 l 261 638 "},"9":{"ha":497,"x_min":0,"x_max":0,"o":"m 183 18 l 158 31 l 124 68 l 97 115 l 86 169 l 86 201 l 97 214 l 119 214 l 150 201 l 157 201 l 185 188 l 200 171 l 208 139 l 242 92 l 265 75 l 269 79 l 271 133 l 300 333 l 301 371 l 294 363 l 290 361 l 258 340 l 257 332 l 228 322 l 204 318 l 168 326 l 156 335 l 132 339 l 106 351 l 76 379 l 67 397 l 47 400 l 43 424 l 39 432 l 28 547 l 29 626 l 42 685 l 65 757 l 86 808 l 129 867 l 175 896 l 208 907 l 224 907 l 250 903 l 297 907 l 325 899 l 356 888 l 386 863 l 415 829 l 433 799 l 456 728 l 460 696 l 469 676 l 461 528 l 461 499 l 464 490 l 458 475 l 458 431 l 456 431 l 451 435 l 439 321 l 433 289 l 429 281 l 418 215 l 415 206 l 407 157 l 399 135 l 376 89 l 371 74 l 363 71 l 360 50 l 343 31 l 319 19 l 307 15 l 297 10 l 261 6 l 228 14 m 197 442 l 203 442 l 258 503 l 267 517 l 274 521 l 279 526 l 310 581 l 296 710 l 282 769 l 261 815 l 244 792 l 240 768 l 238 765 l 236 768 l 228 761 l 207 700 l 200 664 l 193 581 l 176 542 l 176 513 l 183 472 m 281 544 l 285 542 l 279 536 l 276 536 l 276 544 m 458 417 l 456 414 l 454 414 l 454 418 "},"\u0000":{"ha":0,"x_min":0,"x_max":0,"o":""},"\r":{"ha":333,"x_min":0,"x_max":0,"o":""}," ":{"ha":333,"x_min":0,"x_max":0,"o":""},"!":{"ha":224,"x_min":0,"x_max":0,"o":"m 86 289 l 69 276 l 43 289 l 28 301 l 28 542 l 42 718 l 42 754 l 57 851 l 63 960 l 69 972 l 82 986 l 106 990 l 135 990 l 158 979 l 168 968 l 172 944 l 181 935 l 186 894 l 189 886 l 189 869 l 192 858 l 192 851 l 196 825 l 196 747 l 186 665 l 182 521 l 179 500 l 179 440 l 175 413 l 175 349 l 169 329 l 165 290 l 158 274 l 142 274 l 129 281 l 124 271 l 114 271 l 100 276 m 54 64 l 42 119 l 42 144 l 53 164 l 69 176 l 93 181 l 110 186 l 144 183 l 156 178 l 171 176 l 182 171 l 182 68 l 172 43 l 165 36 l 156 33 l 151 32 l 138 29 l 133 26 l 99 26 l 89 19 l 82 19 l 72 32 "},"\"":{"ha":421,"x_min":0,"x_max":0,"o":"m 63 633 l 78 750 l 78 800 l 83 836 l 65 849 l 61 849 l 47 854 l 38 856 l 31 865 l 28 882 l 40 961 l 40 969 l 44 976 l 58 982 l 67 988 l 82 985 l 90 979 l 113 975 l 133 978 l 158 976 l 172 971 l 181 963 l 181 928 l 176 892 l 175 868 l 156 726 l 142 694 l 128 671 l 115 658 l 113 654 l 99 638 l 92 635 l 71 618 l 65 608 l 61 608 m 269 638 l 272 643 l 294 792 l 300 811 l 300 833 l 285 846 l 268 854 l 256 858 l 246 868 l 246 889 l 256 968 l 275 979 l 300 979 l 306 976 l 318 976 l 335 974 l 344 969 l 386 958 l 392 947 l 393 926 l 369 772 l 365 756 l 358 740 l 344 697 l 332 674 l 329 669 l 328 667 l 324 664 l 322 657 l 311 647 l 307 639 l 296 633 l 286 631 l 272 618 l 272 632 "},"$":{"ha":578,"x_min":0,"x_max":0,"o":"m 344 1007 l 349 921 l 368 925 l 414 925 l 442 922 l 447 919 l 481 914 l 499 914 l 519 904 l 549 863 l 549 839 l 550 822 l 550 768 l 547 760 l 540 717 l 538 686 l 532 658 l 528 650 l 518 604 l 507 569 l 496 550 l 492 539 l 453 479 l 414 449 l 382 432 l 329 433 l 269 463 l 258 483 l 276 497 l 300 532 l 304 546 l 329 585 l 357 657 l 372 732 l 372 771 l 363 785 l 357 799 l 351 807 l 350 835 l 342 839 l 317 815 l 310 811 l 276 769 l 267 754 l 238 715 l 231 694 l 225 686 l 215 663 l 200 633 l 190 589 l 189 489 l 197 451 l 197 424 l 200 413 l 200 399 l 203 392 l 204 379 l 219 358 l 238 358 l 278 363 l 393 389 l 460 388 l 488 379 l 506 360 l 513 344 l 517 339 l 524 317 l 522 279 l 518 242 l 513 228 l 508 207 l 492 172 l 486 165 l 481 154 l 469 139 l 461 114 l 428 53 l 399 18 l 369 0 l 372 -36 l 372 -85 l 374 -111 l 372 -132 l 368 -135 l 363 -153 l 356 -153 l 343 -147 l 338 -149 l 333 -160 l 321 -151 l 317 -154 l 308 -147 l 299 -147 l 292 -149 l 279 -149 l 269 -139 l 263 -118 l 258 -94 l 257 -7 l 242 -3 l 206 -8 l 175 3 l 149 24 l 132 53 l 115 92 l 101 153 l 101 192 l 129 213 l 157 218 l 163 218 l 165 221 l 194 219 l 211 211 l 240 207 l 244 199 l 263 146 l 269 135 l 290 92 l 297 92 l 308 108 l 307 132 l 307 183 l 321 225 l 331 285 l 317 285 l 306 276 l 296 288 l 222 285 l 171 297 l 150 306 l 128 310 l 96 319 l 76 333 l 50 375 l 42 404 l 28 494 l 29 574 l 47 654 l 78 726 l 124 793 l 179 860 l 214 894 l 217 901 l 249 917 l 251 917 l 250 1031 l 256 1046 l 265 1060 l 286 1067 l 313 1058 l 333 1038 l 342 1025 "},"'":{"ha":208,"x_min":0,"x_max":0,"o":"m 63 633 l 78 750 l 78 800 l 83 836 l 65 849 l 61 849 l 47 854 l 38 856 l 31 865 l 28 882 l 40 961 l 40 969 l 44 976 l 58 982 l 67 988 l 82 985 l 90 979 l 113 975 l 133 978 l 158 976 l 172 971 l 181 963 l 181 928 l 176 892 l 175 868 l 156 726 l 142 694 l 128 671 l 115 658 l 113 654 l 99 638 l 92 635 l 71 618 l 65 608 l 61 608 "},"(":{"ha":344,"x_min":0,"x_max":0,"o":"m 140 67 l 97 118 l 71 165 l 49 228 l 31 329 l 28 378 l 33 521 l 56 669 l 78 733 l 118 814 l 174 883 l 201 910 l 207 913 l 210 915 l 247 931 l 268 931 l 286 922 l 301 878 l 300 858 l 289 833 l 274 814 l 254 781 l 244 753 l 244 744 l 238 731 l 233 714 l 226 704 l 215 663 l 206 638 l 200 596 l 196 483 l 200 415 l 203 392 l 201 360 l 208 331 l 211 310 l 214 306 l 215 296 l 218 294 l 225 258 l 226 254 l 236 215 l 242 199 l 246 193 l 256 174 l 275 149 l 294 132 l 296 122 l 314 101 l 313 88 l 317 79 l 317 76 l 310 74 l 306 69 l 308 61 l 313 56 l 311 50 l 299 50 l 281 57 l 276 53 l 282 43 l 278 38 l 196 40 l 175 43 "},")":{"ha":344,"x_min":0,"x_max":0,"o":"m 169 43 l 149 40 l 67 38 l 63 43 l 68 53 l 64 57 l 46 50 l 33 50 l 32 56 l 36 61 l 39 69 l 35 74 l 28 76 l 28 79 l 32 88 l 31 101 l 49 122 l 50 132 l 69 149 l 89 174 l 99 193 l 103 199 l 108 215 l 118 254 l 119 258 l 126 294 l 129 296 l 131 306 l 133 310 l 136 331 l 143 360 l 142 392 l 144 415 l 149 483 l 144 596 l 139 638 l 129 663 l 118 704 l 111 714 l 107 731 l 100 744 l 100 753 l 90 781 l 71 814 l 56 833 l 44 858 l 43 878 l 58 922 l 76 931 l 97 931 l 135 915 l 138 913 l 143 910 l 171 883 l 226 814 l 267 733 l 289 669 l 311 521 l 317 378 l 314 329 l 296 228 l 274 165 l 247 118 l 204 67 "},",":{"ha":207,"x_min":0,"x_max":0,"o":"m 97 -149 l 106 -11 l 90 -14 l 81 -14 l 65 -3 l 43 0 l 38 3 l 28 13 l 28 29 l 32 36 l 32 53 l 36 110 l 51 121 l 118 126 l 167 117 l 176 111 l 179 86 l 174 32 l 171 21 l 171 3 l 167 -36 l 164 -42 l 163 -53 l 153 -90 l 150 -94 l 146 -111 l 133 -133 l 129 -137 l 125 -146 l 113 -154 l 100 -171 l 92 -190 l 93 -168 "},"-":{"ha":460,"x_min":0,"x_max":0,"o":"m 47 307 l 40 339 l 31 364 l 33 375 l 28 376 l 28 390 l 56 396 l 107 401 l 272 403 l 275 401 l 321 401 l 371 394 l 386 390 l 418 375 l 428 353 l 432 333 l 432 326 l 431 325 l 417 299 l 222 293 l 219 293 l 92 289 l 79 283 l 63 285 l 56 294 "},".":{"ha":219,"x_min":0,"x_max":0,"o":"m 64 -1 l 38 3 l 31 11 l 28 19 l 32 117 l 53 128 l 64 128 l 69 124 l 86 128 l 118 132 l 165 125 l 181 113 l 192 88 l 189 64 l 186 57 l 178 21 l 165 8 l 160 8 l 156 4 l 131 -1 l 128 -3 l 124 -3 l 94 -10 l 82 -15 l 74 -11 "},"/":{"ha":363,"x_min":0,"x_max":0,"o":"m 96 33 l 78 47 l 71 47 l 56 56 l 35 60 l 29 67 l 29 71 l 28 97 l 35 165 l 126 581 l 129 585 l 133 607 l 203 838 l 213 857 l 221 878 l 232 890 l 253 901 l 278 901 l 307 878 l 329 854 l 335 838 l 335 771 l 331 763 l 331 746 l 324 701 l 297 603 l 290 586 l 286 571 l 269 528 l 260 482 l 256 469 l 256 463 l 253 458 l 246 403 l 168 75 l 160 47 l 160 36 l 150 25 l 138 29 l 129 36 l 125 36 l 121 25 l 111 25 l 107 29 "},":":{"ha":219,"x_min":0,"x_max":0,"o":"m 64 460 l 38 464 l 31 472 l 28 481 l 32 578 l 53 589 l 64 589 l 69 585 l 86 589 l 118 593 l 165 586 l 181 574 l 192 549 l 189 525 l 186 518 l 178 482 l 165 469 l 160 469 l 156 465 l 131 460 l 128 458 l 124 458 l 94 451 l 82 446 l 74 450 m 64 -1 l 38 3 l 31 11 l 28 19 l 32 117 l 53 128 l 64 128 l 69 124 l 86 128 l 118 132 l 165 125 l 181 113 l 192 88 l 189 64 l 186 57 l 178 21 l 165 8 l 160 8 l 156 4 l 131 -1 l 128 -3 l 124 -3 l 94 -10 l 82 -15 l 74 -11 "},";":{"ha":219,"x_min":0,"x_max":0,"o":"m 64 460 l 38 464 l 31 472 l 28 481 l 32 578 l 53 589 l 64 589 l 69 585 l 86 589 l 118 593 l 165 586 l 181 574 l 192 549 l 189 525 l 186 518 l 178 482 l 165 469 l 160 469 l 156 465 l 131 460 l 128 458 l 124 458 l 94 451 l 82 446 l 74 450 m 97 -149 l 106 -11 l 90 -14 l 81 -14 l 65 -3 l 43 0 l 38 3 l 28 13 l 28 29 l 32 36 l 32 53 l 36 110 l 51 121 l 118 126 l 167 117 l 176 111 l 179 86 l 174 32 l 171 21 l 171 3 l 167 -36 l 164 -42 l 163 -53 l 153 -90 l 150 -94 l 146 -111 l 133 -133 l 129 -137 l 125 -146 l 113 -154 l 100 -171 l 92 -190 l 93 -168 "},"?":{"ha":481,"x_min":0,"x_max":0,"o":"m 196 271 l 189 278 l 174 324 l 168 381 l 176 463 l 185 485 l 203 557 l 206 561 l 210 585 l 215 596 l 221 631 l 225 644 l 232 679 l 232 686 l 251 764 l 261 869 l 275 940 l 253 935 l 249 926 l 235 911 l 231 896 l 215 875 l 210 854 l 203 838 l 196 815 l 188 799 l 181 763 l 174 706 l 178 681 l 171 665 l 151 643 l 139 638 l 125 638 l 117 632 l 63 632 l 51 629 l 32 638 l 28 658 l 28 707 l 42 783 l 71 872 l 101 933 l 132 974 l 156 990 l 182 1000 l 256 1015 l 300 1015 l 353 1004 l 378 992 l 400 986 l 414 981 l 438 957 l 440 940 l 449 908 l 453 813 l 447 776 l 443 711 l 436 679 l 433 675 l 406 585 l 403 561 l 386 531 l 361 450 l 353 428 l 343 388 l 340 381 l 336 360 l 332 349 l 328 313 l 304 272 l 296 269 l 288 264 l 268 264 l 263 258 l 232 254 l 210 254 l 203 256 m 208 65 l 201 125 l 206 154 l 215 164 l 226 168 l 232 174 l 271 185 l 307 181 l 311 178 l 340 176 l 353 168 l 354 163 l 350 151 l 356 97 l 353 46 l 340 22 l 333 15 l 325 15 l 315 11 l 307 11 l 294 6 l 268 6 l 250 3 l 232 19 "},"@":{"ha":807,"x_min":0,"x_max":0,"o":"m 324 -35 l 307 -32 l 193 8 l 158 32 l 136 51 l 101 103 l 72 168 l 46 247 l 35 300 l 28 365 l 28 418 l 36 496 l 64 628 l 68 633 l 93 701 l 96 706 l 118 763 l 131 775 l 194 854 l 225 874 l 256 904 l 258 911 l 271 921 l 276 921 l 299 935 l 303 939 l 340 958 l 371 958 l 397 961 l 438 961 l 494 967 l 519 958 l 557 951 l 578 951 l 646 932 l 657 926 l 661 924 l 681 896 l 697 886 l 708 864 l 719 846 l 744 793 l 771 711 l 779 619 l 779 549 l 776 521 l 776 506 l 764 422 l 763 418 l 763 410 l 761 408 l 761 400 l 751 385 l 742 340 l 724 304 l 724 300 l 706 265 l 689 247 l 683 235 l 660 213 l 635 200 l 624 200 l 604 193 l 600 193 l 582 190 l 538 190 l 526 192 l 479 192 l 450 203 l 436 218 l 425 249 l 418 257 l 408 281 l 399 269 l 397 265 l 386 276 l 371 269 l 367 269 l 358 265 l 321 265 l 303 269 l 286 275 l 256 271 l 233 279 l 222 290 l 211 313 l 211 358 l 217 375 l 243 397 l 250 400 l 292 428 l 357 461 l 396 468 l 385 651 l 375 651 l 368 643 l 367 636 l 351 622 l 347 613 l 336 594 l 322 544 l 306 511 l 283 497 l 271 493 l 236 493 l 214 499 l 199 499 l 189 494 l 183 500 l 183 540 l 172 506 l 171 503 l 158 442 l 158 338 l 171 293 l 171 250 l 186 221 l 192 197 l 200 185 l 208 160 l 233 113 l 249 103 l 289 63 l 307 56 l 354 44 l 360 44 l 417 29 l 425 25 l 456 25 l 481 35 l 549 89 l 592 143 l 597 156 l 613 175 l 631 175 l 642 168 l 642 157 l 649 157 l 654 154 l 664 154 l 669 149 l 669 143 l 664 140 l 661 111 l 649 86 l 649 78 l 654 78 l 658 81 l 657 74 l 646 63 l 626 24 l 601 0 l 576 -18 l 532 -37 l 503 -40 l 499 -40 l 464 -43 l 461 -43 l 438 -47 l 396 -47 l 361 -44 m 564 243 l 572 250 l 593 282 l 610 314 l 629 385 l 643 519 l 633 688 l 622 728 l 549 871 l 515 896 l 514 897 l 492 908 l 483 908 l 464 901 l 425 878 l 401 856 l 367 826 l 336 806 l 313 781 l 307 781 l 282 754 l 256 718 l 253 708 l 235 671 l 222 625 l 218 615 l 261 668 l 292 700 l 333 721 l 396 733 l 438 733 l 460 731 l 489 719 l 507 701 l 513 690 l 517 668 l 519 664 l 524 624 l 535 604 l 549 475 l 549 394 l 546 388 l 543 344 l 546 324 l 546 296 l 549 281 l 557 265 l 558 258 l 561 254 m 328 319 l 333 319 l 396 340 l 399 344 l 394 382 l 389 385 l 386 389 l 367 378 l 336 357 l 328 340 m 186 542 l 200 582 l 192 574 l 186 550 m 208 597 l 214 606 l 208 601 m 85 128 l 85 125 l 82 125 l 82 128 m 90 113 l 90 110 l 89 110 l 89 113 "},"A":{"ha":549,"x_min":0,"x_max":0,"o":"m 46 -15 l 33 4 l 28 107 l 31 144 l 32 275 l 63 575 l 63 604 l 103 822 l 115 867 l 124 883 l 124 904 l 128 918 l 142 925 l 156 929 l 161 936 l 175 940 l 185 947 l 214 951 l 249 967 l 272 960 l 303 953 l 319 940 l 326 938 l 342 913 l 371 836 l 378 822 l 389 772 l 392 767 l 394 742 l 408 674 l 408 665 l 414 656 l 418 628 l 422 614 l 426 564 l 426 550 l 440 482 l 449 418 l 464 344 l 468 333 l 471 315 l 478 301 l 499 194 l 517 140 l 521 106 l 517 97 l 517 53 l 511 39 l 499 39 l 490 35 l 478 35 l 474 32 l 469 38 l 456 42 l 449 35 l 447 28 l 428 39 l 421 26 l 406 33 l 393 22 l 376 22 l 363 35 l 351 64 l 325 150 l 313 150 l 308 146 l 278 136 l 204 122 l 200 46 l 194 25 l 190 -1 l 183 -26 l 179 -31 l 164 -31 l 149 -28 l 144 -32 l 132 -24 l 128 -25 l 125 -37 l 101 -25 l 89 -24 l 89 -32 l 79 -25 l 69 -32 l 60 -32 l 54 -36 l 47 -31 m 211 214 l 221 214 l 275 232 l 297 232 l 303 239 l 293 282 l 288 296 l 253 461 l 250 483 l 243 492 l 242 506 l 240 506 l 235 488 l 231 443 l 224 403 l 222 378 l 214 349 l 214 258 l 211 249 "},"B":{"ha":499,"x_min":0,"x_max":0,"o":"m 90 22 l 74 36 l 69 53 l 69 64 l 64 72 l 64 81 l 33 314 l 32 540 l 28 550 l 32 589 l 29 596 l 29 690 l 32 717 l 32 744 l 50 939 l 56 950 l 69 963 l 71 967 l 88 971 l 100 971 l 108 969 l 144 969 l 218 988 l 311 988 l 343 979 l 347 976 l 363 969 l 375 960 l 383 956 l 404 940 l 429 908 l 439 874 l 443 846 l 443 814 l 436 772 l 431 749 l 422 732 l 422 715 l 376 613 l 367 601 l 365 594 l 364 590 l 356 575 l 347 565 l 343 557 l 343 549 l 375 532 l 400 511 l 435 468 l 443 447 l 465 375 l 465 360 l 463 349 l 465 300 l 468 288 l 465 263 l 468 246 l 463 176 l 471 158 l 467 106 l 460 93 l 442 75 l 428 67 l 421 60 l 372 32 l 361 28 l 357 25 l 321 13 l 300 11 l 292 8 l 254 8 l 229 11 l 200 8 l 174 13 l 167 11 l 154 11 l 133 21 l 124 14 l 128 7 l 90 13 m 244 71 l 265 71 l 282 79 l 313 103 l 338 142 l 338 171 l 321 239 l 300 278 l 299 285 l 296 289 l 265 389 l 250 421 l 229 440 l 228 440 l 228 403 l 225 383 l 225 301 l 228 285 l 228 281 l 229 244 l 232 232 l 232 214 l 244 81 m 225 569 l 232 590 l 239 604 l 242 621 l 272 711 l 283 778 l 283 876 l 276 881 l 274 892 l 256 913 l 247 915 l 229 933 l 218 933 l 218 925 l 228 899 l 229 858 l 224 807 l 228 711 l 225 679 l 225 642 l 222 635 l 222 572 "},"C":{"ha":497,"x_min":0,"x_max":0,"o":"m 197 -6 l 169 7 l 153 22 l 119 57 l 89 106 l 69 160 l 35 351 l 28 451 l 28 658 l 56 792 l 92 881 l 111 915 l 133 936 l 179 951 l 188 958 l 210 963 l 243 974 l 257 974 l 319 978 l 361 967 l 379 949 l 401 938 l 413 926 l 421 915 l 432 878 l 435 853 l 438 849 l 438 815 l 439 804 l 439 772 l 429 738 l 413 719 l 394 711 l 375 711 l 371 714 l 346 714 l 333 711 l 325 711 l 306 704 l 300 722 l 307 772 l 307 842 l 301 856 l 294 863 l 289 871 l 257 897 l 250 897 l 233 883 l 211 842 l 206 815 l 203 810 l 199 772 l 199 767 l 194 722 l 199 682 l 199 626 l 208 590 l 208 581 l 217 494 l 217 481 l 222 461 l 249 313 l 254 294 l 257 251 l 271 183 l 275 175 l 278 151 l 290 138 l 296 124 l 304 118 l 321 196 l 333 286 l 333 299 l 339 358 l 339 376 l 344 385 l 347 404 l 361 410 l 382 406 l 394 406 l 403 396 l 408 400 l 415 400 l 419 403 l 425 400 l 435 404 l 442 396 l 443 376 l 450 356 l 450 339 l 464 271 l 469 219 l 464 160 l 457 115 l 432 75 l 429 71 l 419 58 l 399 42 l 376 33 l 363 31 l 304 4 l 269 -3 l 257 -10 l 231 -12 l 225 -10 "},"D":{"ha":581,"x_min":0,"x_max":0,"o":"m 82 -18 l 71 -12 l 58 0 l 47 18 l 47 31 l 51 39 l 39 68 l 33 136 l 33 142 l 32 149 l 32 169 l 28 244 l 33 713 l 58 931 l 57 942 l 61 957 l 75 969 l 96 969 l 104 968 l 131 968 l 225 953 l 285 953 l 336 940 l 385 919 l 389 914 l 428 883 l 451 850 l 454 846 l 472 821 l 499 774 l 507 751 l 521 721 l 524 679 l 524 674 l 528 663 l 528 650 l 538 622 l 538 603 l 540 596 l 553 535 l 553 481 l 550 468 l 550 431 l 553 421 l 553 389 l 546 371 l 542 319 l 536 293 l 536 267 l 540 253 l 540 217 l 517 153 l 501 131 l 494 115 l 463 83 l 454 72 l 431 56 l 418 43 l 392 31 l 386 18 l 382 21 l 379 18 l 368 15 l 353 3 l 310 -19 l 282 -24 l 260 -33 l 139 -33 m 201 44 l 238 50 l 282 65 l 308 86 l 325 114 l 374 246 l 374 371 l 363 421 l 343 601 l 299 779 l 272 833 l 243 874 l 215 896 l 178 908 l 178 900 l 183 881 l 196 850 l 199 817 l 206 793 l 214 700 l 214 671 l 217 649 l 217 603 l 222 579 l 222 540 l 228 511 l 228 465 l 231 442 l 231 358 l 225 296 l 225 125 l 222 110 l 214 82 l 206 61 "},"E":{"ha":515,"x_min":0,"x_max":0,"o":"m 111 25 l 96 42 l 96 57 l 81 99 l 72 131 l 71 158 l 57 261 l 46 410 l 46 415 l 40 560 l 38 574 l 38 879 l 28 888 l 28 901 l 42 919 l 47 936 l 79 954 l 183 968 l 279 968 l 289 965 l 364 958 l 375 953 l 404 949 l 399 935 l 378 913 l 351 908 l 339 900 l 271 897 l 207 907 l 197 903 l 197 886 l 200 879 l 200 840 l 203 810 l 203 742 l 208 703 l 242 706 l 250 708 l 325 708 l 338 703 l 357 703 l 371 697 l 378 689 l 375 661 l 367 649 l 344 639 l 333 639 l 322 635 l 315 635 l 301 632 l 265 632 l 250 635 l 244 635 l 229 639 l 211 639 l 208 626 l 206 621 l 208 583 l 208 535 l 213 485 l 221 444 l 224 394 l 226 383 l 232 310 l 232 279 l 233 264 l 233 238 l 236 219 l 236 211 l 242 178 l 242 142 l 244 113 l 244 99 l 263 104 l 285 107 l 326 121 l 400 136 l 436 136 l 478 129 l 486 119 l 486 110 l 488 104 l 488 76 l 479 68 l 460 57 l 446 56 l 436 44 l 410 42 l 390 36 l 383 36 l 325 24 l 315 24 l 307 21 l 249 17 l 186 17 l 172 21 "},"F":{"ha":456,"x_min":0,"x_max":0,"o":"m 153 17 l 131 17 l 113 8 l 93 19 l 78 49 l 42 211 l 33 643 l 44 857 l 35 871 l 35 885 l 44 888 l 44 892 l 38 899 l 28 903 l 28 913 l 35 919 l 42 922 l 51 931 l 65 926 l 82 929 l 149 933 l 153 936 l 313 943 l 381 933 l 411 922 l 428 919 l 428 915 l 417 913 l 417 907 l 425 903 l 417 897 l 407 883 l 390 881 l 379 875 l 349 872 l 335 867 l 264 858 l 208 863 l 199 856 l 199 828 l 197 814 l 197 772 l 194 740 l 197 722 l 218 722 l 236 728 l 310 728 l 340 719 l 354 711 l 368 707 l 368 703 l 360 699 l 365 692 l 356 682 l 308 669 l 292 663 l 275 663 l 251 658 l 240 663 l 228 663 l 221 665 l 197 663 l 197 535 l 200 493 l 206 467 l 211 428 l 221 408 l 233 97 l 231 46 l 228 43 l 224 22 l 218 14 l 208 14 l 203 17 l 194 17 l 182 4 l 167 8 "},"G":{"ha":606,"x_min":0,"x_max":0,"o":"m 169 17 l 138 51 l 114 86 l 99 118 l 53 274 l 39 360 l 28 481 l 32 611 l 47 738 l 65 800 l 97 882 l 133 896 l 153 901 l 163 911 l 176 915 l 190 915 l 225 932 l 267 944 l 331 956 l 344 956 l 369 958 l 397 947 l 408 947 l 449 903 l 479 860 l 481 856 l 494 832 l 497 813 l 504 790 l 511 749 l 507 731 l 513 706 l 510 658 l 504 644 l 489 618 l 479 614 l 468 606 l 456 603 l 446 599 l 411 597 l 381 599 l 369 589 l 364 699 l 365 708 l 360 732 l 353 743 l 339 774 l 314 804 l 267 838 l 244 846 l 236 843 l 222 818 l 207 744 l 207 711 l 203 657 l 203 547 l 207 522 l 207 510 l 213 496 l 213 450 l 218 421 l 222 365 l 228 336 l 231 329 l 249 253 l 254 239 l 257 226 l 263 211 l 272 167 l 296 114 l 311 101 l 315 99 l 325 92 l 339 117 l 364 257 l 381 436 l 388 442 l 388 464 l 289 468 l 282 454 l 281 454 l 279 460 l 271 472 l 303 500 l 310 501 l 324 510 l 343 515 l 350 515 l 446 535 l 517 539 l 568 538 l 571 528 l 578 514 l 578 499 l 571 485 l 568 354 l 563 340 l 551 300 l 538 289 l 522 200 l 501 132 l 479 99 l 478 94 l 450 58 l 429 47 l 419 36 l 367 13 l 350 8 l 328 -1 l 306 -1 l 267 -14 l 221 -11 l 206 -7 "},"H":{"ha":557,"x_min":0,"x_max":0,"o":"m 122 -35 l 107 -32 l 94 -24 l 61 -22 l 47 13 l 35 179 l 36 192 l 28 424 l 33 669 l 32 706 l 36 829 l 47 918 l 46 929 l 57 943 l 71 947 l 79 947 l 89 951 l 100 953 l 107 956 l 114 956 l 139 963 l 147 958 l 161 958 l 176 950 l 201 924 l 207 901 l 203 747 l 196 706 l 190 431 l 206 431 l 236 433 l 242 436 l 276 439 l 283 442 l 314 440 l 324 446 l 351 821 l 349 838 l 367 940 l 367 944 l 372 951 l 375 961 l 406 975 l 447 974 l 481 956 l 499 935 l 508 885 l 511 849 l 514 835 l 517 775 l 515 757 l 518 732 l 517 713 l 529 649 l 514 460 l 517 424 l 514 357 l 510 347 l 507 261 l 504 243 l 500 115 l 501 97 l 500 58 l 490 0 l 485 -15 l 475 -10 l 469 -11 l 458 -7 l 440 -6 l 433 -1 l 428 -6 l 425 -14 l 414 -17 l 393 -7 l 364 -6 l 344 -17 l 336 -17 l 310 11 l 300 43 l 293 104 l 304 296 l 294 306 l 289 329 l 283 335 l 274 354 l 186 354 l 193 238 l 197 229 l 201 181 l 204 171 l 206 132 l 210 111 l 207 14 l 200 -6 l 199 -24 l 192 -35 l 136 -46 "},"I":{"ha":246,"x_min":0,"x_max":0,"o":"m 44 35 l 29 261 l 32 269 l 32 679 l 28 722 l 40 846 l 46 858 l 51 879 l 68 890 l 86 900 l 111 900 l 125 901 l 161 900 l 167 897 l 189 892 l 204 874 l 214 856 l 213 817 l 207 792 l 206 765 l 203 743 l 210 614 l 213 599 l 211 590 l 214 572 l 213 538 l 215 529 l 210 393 l 213 335 l 210 318 l 211 299 l 210 243 l 215 188 l 215 165 l 217 153 l 218 51 l 215 21 l 201 14 l 197 10 l 181 10 l 164 -7 l 154 -7 l 128 4 l 103 1 l 82 -11 l 71 -11 l 63 -1 "},"J":{"ha":450,"x_min":0,"x_max":0,"o":"m 88 56 l 65 93 l 44 140 l 28 221 l 31 322 l 39 357 l 51 378 l 78 396 l 107 406 l 153 404 l 175 396 l 193 378 l 201 357 l 200 321 l 199 314 l 203 242 l 201 211 l 204 203 l 206 188 l 207 183 l 214 157 l 221 142 l 226 142 l 232 158 l 246 233 l 254 817 l 261 860 l 264 864 l 268 893 l 293 917 l 307 922 l 339 928 l 350 933 l 369 932 l 382 939 l 403 944 l 411 935 l 411 765 l 415 732 l 414 713 l 418 699 l 422 513 l 418 404 l 422 379 l 418 289 l 411 249 l 411 239 l 403 213 l 400 208 l 394 181 l 383 151 l 372 111 l 356 67 l 343 51 l 304 29 l 257 17 l 210 18 l 190 24 l 165 18 l 138 18 l 114 26 "},"K":{"ha":665,"x_min":0,"x_max":0,"o":"m 464 4 l 425 28 l 414 39 l 394 78 l 319 294 l 311 308 l 297 346 l 282 379 l 261 411 l 258 415 l 249 425 l 246 417 l 236 421 l 229 432 l 215 439 l 204 428 l 204 343 l 213 263 l 213 53 l 200 14 l 194 8 l 158 13 l 150 4 l 132 13 l 106 13 l 96 7 l 86 7 l 67 26 l 56 58 l 43 176 l 28 686 l 49 925 l 63 954 l 76 958 l 90 965 l 119 965 l 144 953 l 165 932 l 175 913 l 185 878 l 185 865 l 190 835 l 193 826 l 197 774 l 197 576 l 200 561 l 217 586 l 222 590 l 226 599 l 419 856 l 421 861 l 482 933 l 492 939 l 543 939 l 557 936 l 575 936 l 579 932 l 625 932 l 638 922 l 638 917 l 599 878 l 563 835 l 535 808 l 419 674 l 414 669 l 410 661 l 404 657 l 343 583 l 321 561 l 300 532 l 360 525 l 375 521 l 379 521 l 407 511 l 424 507 l 449 493 l 481 471 l 517 421 l 538 379 l 549 368 l 567 317 l 569 304 l 575 292 l 579 272 l 592 229 l 599 218 l 611 172 l 617 161 l 621 133 l 624 128 l 621 81 l 611 67 l 611 43 l 614 33 l 606 24 l 592 32 l 586 38 l 574 33 l 567 26 l 565 22 l 557 19 l 553 17 l 543 14 l 535 1 l 508 4 "},"L":{"ha":408,"x_min":0,"x_max":0,"o":"m 124 11 l 75 13 l 64 11 l 50 26 l 51 36 l 50 44 l 54 53 l 40 86 l 32 135 l 28 288 l 32 444 l 43 579 l 50 622 l 56 840 l 74 926 l 81 936 l 85 947 l 119 960 l 161 958 l 186 951 l 217 924 l 228 876 l 224 750 l 231 697 l 229 626 l 231 601 l 229 578 l 233 465 l 232 408 l 236 399 l 233 342 l 229 318 l 232 288 l 226 278 l 225 250 l 229 182 l 229 117 l 224 103 l 224 90 l 231 90 l 254 97 l 306 103 l 346 101 l 360 99 l 381 99 l 381 93 l 347 56 l 332 44 l 304 31 l 301 31 l 265 15 l 206 4 l 181 1 l 160 -6 l 149 -1 "},"M":{"ha":882,"x_min":0,"x_max":0,"o":"m 325 15 l 254 203 l 251 207 l 243 232 l 238 240 l 233 256 l 231 260 l 226 275 l 219 279 l 214 296 l 201 174 l 201 151 l 196 142 l 196 111 l 190 74 l 189 54 l 183 25 l 174 15 l 164 15 l 154 18 l 133 7 l 114 14 l 89 15 l 74 11 l 61 11 l 50 25 l 47 36 l 42 49 l 33 107 l 28 339 l 33 483 l 31 503 l 33 614 l 63 832 l 71 863 l 74 879 l 115 900 l 179 901 l 203 894 l 218 878 l 242 840 l 268 810 l 279 769 l 290 744 l 294 726 l 307 701 l 307 696 l 333 626 l 336 611 l 354 574 l 372 513 l 375 508 l 401 382 l 400 365 l 413 328 l 535 776 l 561 854 l 565 875 l 592 901 l 596 924 l 621 929 l 631 939 l 654 938 l 699 949 l 711 949 l 717 946 l 747 949 l 768 936 l 772 882 l 786 851 l 792 822 l 794 818 l 800 769 l 799 715 l 803 607 l 808 579 l 810 550 l 813 531 l 813 506 l 817 497 l 822 408 l 821 351 l 824 347 l 822 314 l 828 318 l 829 289 l 828 231 l 829 204 l 829 176 l 833 157 l 835 153 l 840 171 l 842 168 l 842 153 l 835 146 l 835 135 l 839 131 l 839 118 l 842 115 l 844 125 l 847 128 l 854 94 l 853 81 l 850 74 l 844 79 l 836 54 l 832 49 l 832 17 l 825 24 l 821 10 l 813 6 l 808 -4 l 799 0 l 796 -3 l 782 3 l 779 -4 l 774 -1 l 764 -4 l 756 -11 l 724 -1 l 719 -7 l 686 -7 l 665 10 l 661 19 l 625 165 l 611 396 l 604 421 l 599 424 l 597 435 l 594 435 l 585 419 l 556 335 l 549 303 l 538 272 l 515 179 l 513 163 l 506 142 l 503 124 l 489 82 l 488 26 l 483 18 l 488 11 l 488 -1 l 472 0 l 460 3 l 456 3 l 438 8 l 438 -3 l 432 -7 l 418 -1 l 400 11 l 392 7 l 364 11 l 336 -11 l 328 -7 m 835 242 l 840 238 l 839 190 l 835 197 "},"N":{"ha":632,"x_min":0,"x_max":0,"o":"m 410 -8 l 400 7 l 392 26 l 372 61 l 343 126 l 261 346 l 235 435 l 228 443 l 225 443 l 215 450 l 219 381 l 217 322 l 221 275 l 221 264 l 224 247 l 222 219 l 225 165 l 229 144 l 225 26 l 215 15 l 175 13 l 172 1 l 153 6 l 128 17 l 94 15 l 79 7 l 71 8 l 60 21 l 44 64 l 32 511 l 28 532 l 39 856 l 44 908 l 75 933 l 108 935 l 138 938 l 154 943 l 174 942 l 190 935 l 196 929 l 211 921 l 225 900 l 229 885 l 235 872 l 238 856 l 256 838 l 264 817 l 272 804 l 282 781 l 311 738 l 329 686 l 347 646 l 350 631 l 358 615 l 375 556 l 381 549 l 411 825 l 421 872 l 428 886 l 439 921 l 451 933 l 479 946 l 521 956 l 533 964 l 544 958 l 563 967 l 574 975 l 583 975 l 590 972 l 604 938 l 589 896 l 586 868 l 582 851 l 568 732 l 567 703 l 564 689 l 561 615 l 563 582 l 557 432 l 563 401 l 556 251 l 572 40 l 569 18 l 554 -14 l 538 -12 l 529 -8 l 518 -21 l 510 -24 l 482 -7 l 457 -10 l 446 -10 l 428 -26 l 418 -25 "},"O":{"ha":619,"x_min":0,"x_max":0,"o":"m 153 43 l 115 82 l 74 161 l 40 250 l 31 304 l 28 422 l 31 449 l 33 514 l 39 551 l 39 558 l 51 626 l 78 729 l 108 807 l 188 921 l 192 931 l 208 935 l 218 940 l 229 940 l 238 944 l 249 947 l 253 950 l 292 960 l 358 965 l 378 968 l 388 964 l 403 964 l 415 958 l 450 965 l 472 964 l 476 967 l 489 967 l 508 958 l 542 928 l 551 914 l 558 882 l 567 810 l 579 783 l 583 739 l 581 660 l 583 647 l 582 613 l 588 504 l 582 464 l 583 426 l 592 418 l 589 356 l 576 311 l 576 303 l 574 293 l 572 271 l 567 256 l 564 235 l 561 229 l 556 194 l 535 146 l 513 104 l 510 94 l 479 54 l 453 36 l 424 22 l 383 18 l 372 13 l 344 14 l 332 10 l 294 8 l 274 -1 l 231 0 l 199 13 m 342 128 l 347 133 l 369 193 l 407 447 l 407 658 l 408 668 l 407 706 l 413 721 l 413 736 l 408 750 l 408 765 l 404 801 l 394 828 l 376 851 l 364 860 l 356 860 l 335 853 l 333 853 l 307 828 l 303 821 l 289 810 l 276 779 l 261 753 l 239 693 l 233 651 l 225 607 l 219 593 l 222 546 l 225 539 l 224 532 l 232 390 l 239 364 l 239 350 l 243 339 l 249 315 l 251 311 l 263 275 l 265 257 l 274 231 l 313 165 l 314 154 l 331 139 l 333 133 m 404 736 l 407 736 l 407 731 l 404 733 "},"P":{"ha":567,"x_min":0,"x_max":0,"o":"m 113 19 l 85 29 l 72 24 l 57 24 l 39 42 l 35 71 l 28 561 l 58 903 l 68 936 l 100 950 l 179 967 l 278 968 l 351 958 l 390 944 l 401 939 l 414 935 l 433 924 l 440 917 l 463 907 l 486 883 l 511 844 l 529 811 l 539 765 l 538 736 l 532 710 l 518 679 l 497 653 l 485 618 l 471 590 l 463 579 l 460 569 l 444 549 l 432 526 l 424 518 l 415 501 l 388 481 l 332 413 l 301 385 l 289 376 l 264 354 l 229 332 l 211 325 l 214 297 l 213 268 l 221 193 l 224 183 l 222 161 l 225 151 l 224 136 l 225 69 l 221 49 l 214 38 l 210 18 l 197 8 l 125 10 m 208 488 l 232 521 l 240 539 l 265 576 l 267 582 l 272 589 l 314 667 l 339 728 l 344 756 l 347 764 l 346 772 l 346 788 l 349 794 l 350 807 l 343 829 l 338 857 l 322 881 l 308 896 l 286 910 l 238 911 l 229 903 l 229 853 l 219 764 l 215 743 l 207 519 "},"Q":{"ha":682,"x_min":0,"x_max":0,"o":"m 494 17 l 481 22 l 474 28 l 460 22 l 447 29 l 429 17 l 400 8 l 367 3 l 358 3 l 347 0 l 338 1 l 310 -3 l 264 4 l 229 1 l 189 14 l 150 39 l 103 82 l 86 107 l 83 108 l 82 114 l 65 139 l 49 182 l 35 275 l 28 358 l 29 397 l 49 560 l 82 678 l 131 779 l 214 878 l 225 882 l 244 900 l 282 915 l 351 925 l 382 924 l 389 926 l 414 929 l 436 928 l 439 931 l 449 928 l 461 926 l 471 919 l 500 913 l 517 917 l 525 911 l 538 897 l 557 882 l 560 869 l 578 825 l 585 792 l 589 782 l 594 738 l 599 725 l 600 703 l 608 689 l 613 693 l 618 681 l 626 668 l 622 564 l 628 544 l 631 514 l 635 504 l 642 504 l 644 510 l 646 535 l 649 538 l 653 533 l 654 468 l 650 442 l 650 435 l 643 415 l 631 346 l 631 336 l 622 324 l 614 307 l 600 268 l 592 254 l 589 243 l 583 235 l 576 211 l 564 193 l 558 181 l 556 178 l 554 171 l 549 161 l 547 149 l 564 128 l 610 57 l 611 53 l 629 29 l 628 10 l 618 8 l 617 3 l 608 -4 l 596 -4 l 590 -1 l 586 -7 l 569 -8 l 550 -15 l 529 -8 m 338 89 l 363 111 l 383 151 l 381 165 l 372 171 l 358 194 l 351 201 l 342 218 l 317 278 l 315 279 l 307 306 l 299 308 l 294 317 l 294 324 l 304 332 l 308 338 l 319 344 l 343 353 l 367 354 l 372 356 l 392 350 l 404 332 l 417 318 l 425 318 l 438 310 l 454 403 l 450 622 l 454 629 l 447 672 l 440 689 l 444 697 l 446 708 l 440 719 l 440 732 l 419 825 l 411 844 l 396 836 l 378 822 l 374 819 l 329 779 l 301 744 l 265 682 l 261 660 l 250 643 l 243 619 l 239 613 l 228 572 l 222 557 l 221 540 l 218 533 l 206 414 l 214 307 l 218 290 l 224 244 l 229 235 l 235 206 l 264 146 l 286 122 l 331 89 m 617 608 l 621 608 l 617 614 "},"R":{"ha":617,"x_min":0,"x_max":0,"o":"m 450 -31 l 442 -35 l 422 -29 l 418 -36 l 404 -36 l 376 -24 l 365 -24 l 332 -1 l 325 7 l 311 29 l 304 63 l 293 93 l 292 101 l 267 181 l 244 215 l 239 215 l 246 174 l 250 61 l 242 51 l 240 44 l 231 31 l 222 -1 l 214 -8 l 171 -4 l 150 -8 l 114 7 l 94 7 l 83 3 l 69 4 l 49 36 l 29 343 l 28 506 l 60 839 l 64 861 l 68 868 l 72 882 l 104 894 l 138 899 l 142 899 l 169 901 l 176 907 l 231 924 l 293 929 l 394 925 l 444 918 l 472 910 l 494 901 l 531 879 l 563 850 l 578 829 l 589 786 l 588 772 l 576 714 l 565 700 l 560 678 l 543 660 l 539 651 l 521 638 l 517 628 l 513 624 l 510 619 l 486 592 l 460 567 l 458 564 l 358 458 l 332 439 l 300 407 l 326 400 l 356 388 l 360 383 l 413 354 l 433 331 l 451 306 l 453 301 l 461 289 l 496 226 l 529 135 l 533 108 l 542 74 l 542 61 l 539 61 l 529 67 l 522 47 l 517 43 l 515 21 l 507 11 l 501 -1 l 490 -14 l 488 -31 l 479 -31 l 475 -42 l 460 -35 m 228 525 l 231 524 l 239 535 l 244 539 l 247 543 l 276 576 l 293 592 l 322 625 l 326 640 l 356 678 l 417 768 l 422 788 l 426 793 l 422 804 l 424 824 l 414 847 l 404 860 l 358 868 l 329 865 l 310 861 l 294 860 l 281 856 l 228 847 l 221 832 l 221 704 l 224 678 l 219 579 l 222 571 l 222 560 l 224 550 "},"S":{"ha":578,"x_min":0,"x_max":0,"o":"m 242 -3 l 206 -8 l 175 3 l 149 24 l 132 53 l 115 92 l 101 153 l 101 192 l 129 213 l 157 218 l 163 218 l 165 221 l 194 219 l 211 211 l 240 207 l 244 199 l 263 146 l 269 135 l 290 92 l 297 92 l 308 108 l 307 132 l 307 183 l 321 225 l 331 285 l 317 285 l 306 276 l 296 288 l 222 285 l 171 297 l 150 306 l 128 310 l 96 319 l 76 333 l 50 375 l 42 404 l 28 494 l 29 574 l 47 654 l 78 726 l 124 793 l 179 860 l 214 894 l 217 901 l 249 917 l 314 919 l 318 919 l 329 921 l 349 921 l 368 925 l 414 925 l 442 922 l 447 919 l 481 914 l 499 914 l 519 904 l 549 863 l 549 839 l 550 822 l 550 768 l 547 760 l 540 717 l 538 686 l 532 658 l 528 650 l 518 604 l 507 569 l 496 550 l 492 539 l 453 479 l 414 449 l 382 432 l 329 433 l 269 463 l 258 483 l 276 497 l 300 532 l 304 546 l 329 585 l 357 657 l 372 732 l 372 771 l 363 785 l 357 799 l 351 807 l 350 835 l 342 839 l 317 815 l 310 811 l 276 769 l 267 754 l 238 715 l 231 694 l 225 686 l 215 663 l 200 633 l 190 589 l 189 489 l 197 451 l 197 424 l 200 413 l 200 399 l 203 392 l 204 379 l 219 358 l 238 358 l 278 363 l 393 389 l 460 388 l 488 379 l 506 360 l 513 344 l 517 339 l 524 317 l 522 279 l 518 242 l 513 228 l 508 207 l 492 172 l 486 165 l 481 154 l 469 139 l 461 114 l 428 53 l 399 18 l 369 0 l 325 -10 l 269 -10 "},"T":{"ha":632,"x_min":0,"x_max":0,"o":"m 254 -11 l 242 4 l 214 143 l 201 278 l 201 313 l 192 375 l 181 564 l 190 838 l 176 838 l 150 833 l 115 835 l 76 839 l 61 851 l 46 885 l 28 900 l 32 918 l 64 921 l 360 969 l 376 968 l 422 974 l 500 972 l 518 963 l 553 938 l 563 928 l 575 922 l 597 904 l 604 886 l 604 878 l 593 858 l 501 864 l 431 856 l 406 844 l 399 844 l 393 842 l 369 839 l 364 840 l 351 832 l 346 824 l 351 793 l 351 757 l 357 664 l 357 633 l 361 615 l 363 550 l 365 542 l 365 539 l 374 479 l 376 472 l 388 399 l 390 392 l 397 314 l 400 299 l 400 282 l 413 193 l 413 188 l 417 161 l 418 131 l 422 113 l 418 97 l 415 93 l 411 65 l 413 51 l 413 32 l 408 26 l 407 14 l 404 14 l 401 35 l 390 31 l 386 22 l 390 15 l 385 3 l 365 -3 l 343 -1 l 339 -14 l 335 -14 l 317 -8 l 313 -14 l 303 -14 l 281 -32 "},"U":{"ha":643,"x_min":0,"x_max":0,"o":"m 182 42 l 158 61 l 128 93 l 86 157 l 61 222 l 39 311 l 28 414 l 29 661 l 39 733 l 43 743 l 58 836 l 74 894 l 78 921 l 97 936 l 119 946 l 156 939 l 185 925 l 196 906 l 197 889 l 203 872 l 208 846 l 217 831 l 221 794 l 228 774 l 251 424 l 257 397 l 260 310 l 264 274 l 268 265 l 269 250 l 281 218 l 283 186 l 297 160 l 315 138 l 338 192 l 349 250 l 386 608 l 386 663 l 394 757 l 393 792 l 397 803 l 397 824 l 392 838 l 393 853 l 396 858 l 397 907 l 419 925 l 425 932 l 497 926 l 507 931 l 561 918 l 579 910 l 603 908 l 610 893 l 615 799 l 608 704 l 597 672 l 594 621 l 581 506 l 581 500 l 575 485 l 571 460 l 565 446 l 560 422 l 554 411 l 547 382 l 547 367 l 543 356 l 543 328 l 526 258 l 500 189 l 494 156 l 481 132 l 471 103 l 446 81 l 425 67 l 338 32 l 279 25 l 217 25 "},"V":{"ha":754,"x_min":0,"x_max":0,"o":"m 243 44 l 232 90 l 226 100 l 226 103 l 219 114 l 215 153 l 211 169 l 211 176 l 206 185 l 196 232 l 197 256 l 194 261 l 192 251 l 185 258 l 179 275 l 178 296 l 171 319 l 168 325 l 168 333 l 160 333 l 156 340 l 156 357 l 146 385 l 143 397 l 133 419 l 128 443 l 128 453 l 122 458 l 124 472 l 115 493 l 111 517 l 107 532 l 100 543 l 100 556 l 97 561 l 79 660 l 75 668 l 65 704 l 60 760 l 54 772 l 32 872 l 28 882 l 38 890 l 42 893 l 58 901 l 86 908 l 101 915 l 157 919 l 169 922 l 192 918 l 197 908 l 200 892 l 222 858 l 250 808 l 251 800 l 257 790 l 265 764 l 278 740 l 279 725 l 285 714 l 294 682 l 324 613 l 338 561 l 343 549 l 353 517 l 356 511 l 360 482 l 367 467 l 392 361 l 393 349 l 396 349 l 476 674 l 521 810 l 526 833 l 529 840 l 532 908 l 546 914 l 547 914 l 550 917 l 572 924 l 575 932 l 592 935 l 601 940 l 660 942 l 671 946 l 679 946 l 714 956 l 719 951 l 715 942 l 717 907 l 726 893 l 721 878 l 718 865 l 715 861 l 710 847 l 704 815 l 693 793 l 693 778 l 682 756 l 643 617 l 639 594 l 628 565 l 624 533 l 625 514 l 544 282 l 543 272 l 524 213 l 514 189 l 500 113 l 490 93 l 482 72 l 468 56 l 460 40 l 443 28 l 431 28 l 419 21 l 415 15 l 407 13 l 394 4 l 375 0 l 331 0 l 319 -8 l 301 -7 l 282 0 m 457 36 l 463 24 l 457 17 l 450 24 "},"W":{"ha":850,"x_min":0,"x_max":0,"o":"m 450 24 l 444 42 l 436 53 l 332 513 l 329 514 l 328 507 l 318 503 l 258 174 l 246 54 l 242 39 l 236 32 l 225 33 l 204 13 l 167 24 l 129 22 l 121 18 l 106 19 l 96 28 l 88 58 l 38 417 l 28 779 l 35 926 l 40 961 l 60 979 l 81 976 l 97 976 l 118 982 l 160 978 l 178 964 l 188 946 l 192 901 l 196 875 l 197 846 l 204 796 l 201 735 l 206 610 l 208 590 l 217 582 l 258 718 l 311 844 l 319 874 l 339 893 l 354 897 l 364 906 l 389 910 l 407 917 l 426 921 l 440 928 l 468 931 l 474 925 l 472 907 l 469 893 l 474 886 l 493 653 l 496 639 l 496 603 l 501 575 l 517 431 l 522 404 l 524 383 l 531 378 l 615 749 l 646 844 l 660 875 l 668 904 l 685 919 l 718 936 l 729 939 l 742 946 l 757 944 l 789 961 l 806 957 l 810 958 l 819 958 l 813 950 l 822 946 l 821 928 l 811 908 l 803 879 l 792 819 l 769 764 l 764 703 l 757 692 l 754 672 l 749 651 l 738 560 l 715 485 l 711 478 l 700 443 l 679 335 l 676 274 l 650 185 l 624 53 l 614 36 l 611 26 l 601 22 l 582 22 l 581 13 l 574 4 l 554 6 l 535 13 l 493 14 l 481 8 l 468 7 l 468 -1 l 464 4 "},"X":{"ha":685,"x_min":0,"x_max":0,"o":"m 464 3 l 443 14 l 432 26 l 425 38 l 422 58 l 417 65 l 406 92 l 401 96 l 315 233 l 279 169 l 203 67 l 174 50 l 158 47 l 122 44 l 117 42 l 103 43 l 97 40 l 103 38 l 103 31 l 71 32 l 71 51 l 76 51 l 76 47 l 78 47 l 140 206 l 232 379 l 228 389 l 224 394 l 197 451 l 194 461 l 189 467 l 156 536 l 143 569 l 115 632 l 113 646 l 103 667 l 101 676 l 92 699 l 89 715 l 79 729 l 47 828 l 28 911 l 31 919 l 50 936 l 117 933 l 143 922 l 165 896 l 196 872 l 242 803 l 243 799 l 300 711 l 304 697 l 321 669 l 324 654 l 342 619 l 381 704 l 465 858 l 471 861 l 471 856 l 472 857 l 476 875 l 492 899 l 517 915 l 540 921 l 569 919 l 608 932 l 617 936 l 617 929 l 621 929 l 633 931 l 644 925 l 636 913 l 651 908 l 640 899 l 657 886 l 650 874 l 650 865 l 631 813 l 628 808 l 625 800 l 581 707 l 568 669 l 543 618 l 531 597 l 525 592 l 515 567 l 494 540 l 490 528 l 482 521 l 476 513 l 469 506 l 438 451 l 436 438 l 449 418 l 450 413 l 478 365 l 488 346 l 529 285 l 558 219 l 567 214 l 581 176 l 586 142 l 597 114 l 596 94 l 585 72 l 582 69 l 582 50 l 571 46 l 564 38 l 556 35 l 551 14 l 535 13 l 533 3 l 496 6 l 492 -3 l 481 -6 l 471 -3 m 440 32 l 443 32 l 440 36 "},"Y":{"ha":618,"x_min":0,"x_max":0,"o":"m 250 38 l 224 38 l 204 25 l 192 25 l 175 50 l 157 100 l 161 382 l 169 450 l 163 472 l 156 488 l 156 497 l 158 506 l 28 911 l 29 926 l 43 940 l 69 939 l 139 949 l 171 939 l 181 932 l 183 931 l 204 907 l 217 886 l 218 882 l 231 850 l 247 797 l 260 769 l 268 746 l 269 736 l 282 718 l 308 649 l 411 844 l 450 904 l 476 928 l 494 938 l 572 943 l 579 946 l 590 946 l 589 917 l 582 908 l 579 892 l 557 854 l 550 815 l 543 793 l 529 774 l 519 744 l 510 726 l 506 706 l 485 667 l 475 638 l 468 628 l 460 604 l 424 542 l 418 535 l 392 478 l 383 469 l 381 454 l 351 399 l 356 321 l 353 279 l 356 254 l 351 247 l 349 188 l 347 179 l 343 82 l 331 50 l 328 38 l 319 31 l 296 32 l 283 21 l 265 22 "},"Z":{"ha":567,"x_min":0,"x_max":0,"o":"m 154 8 l 149 13 l 143 10 l 135 15 l 126 15 l 122 19 l 114 24 l 106 39 l 90 58 l 79 61 l 78 72 l 75 79 l 74 115 l 75 138 l 325 721 l 333 761 l 332 778 l 307 768 l 197 744 l 151 744 l 140 747 l 136 747 l 107 764 l 72 807 l 61 832 l 44 849 l 38 853 l 28 864 l 36 868 l 372 935 l 410 935 l 421 931 l 436 931 l 458 911 l 469 910 l 486 896 l 490 893 l 513 879 l 531 856 l 532 835 l 525 828 l 524 808 l 513 751 l 501 724 l 492 693 l 483 674 l 482 667 l 478 658 l 476 651 l 468 631 l 464 614 l 449 571 l 444 556 l 438 542 l 432 522 l 397 429 l 396 421 l 389 413 l 378 379 l 363 347 l 363 338 l 357 332 l 343 300 l 335 275 l 325 254 l 321 239 l 304 203 l 306 190 l 314 190 l 317 193 l 392 215 l 397 213 l 406 213 l 425 204 l 450 188 l 464 185 l 481 175 l 489 160 l 504 153 l 531 135 l 518 132 l 518 126 l 522 118 l 518 113 l 518 108 l 524 108 l 531 111 l 539 107 l 518 101 l 513 94 l 513 78 l 507 71 l 490 63 l 465 57 l 461 50 l 450 47 l 450 46 l 431 38 l 419 31 l 404 26 l 397 22 l 385 19 l 331 -4 l 279 -17 l 249 -17 l 213 -11 m 68 83 l 71 83 l 76 64 l 74 64 l 69 68 "},"_":{"ha":968,"x_min":0,"x_max":0,"o":"m 88 17 l 60 43 l 49 60 l 38 68 l 32 75 l 28 76 l 28 82 l 82 92 l 169 99 l 174 100 l 264 100 l 269 97 l 292 99 l 294 100 l 311 100 l 314 99 l 319 101 l 325 96 l 342 96 l 344 100 l 350 100 l 354 99 l 379 94 l 588 99 l 599 103 l 599 107 l 675 107 l 681 108 l 688 108 l 689 111 l 815 111 l 821 108 l 828 111 l 878 108 l 882 107 l 894 104 l 904 93 l 906 90 l 914 75 l 928 64 l 928 60 l 940 44 l 938 43 l 928 42 l 925 39 l 910 39 l 908 40 l 906 38 l 885 35 l 871 28 l 829 25 l 775 28 l 764 25 l 758 25 l 753 21 l 724 21 l 713 15 l 688 15 l 679 13 l 674 15 l 663 15 l 660 13 l 649 15 l 628 10 l 622 14 l 618 10 l 597 11 l 413 6 l 406 3 l 390 3 l 388 4 l 379 4 l 376 6 l 221 -4 l 174 -1 m 578 104 l 588 104 l 588 103 l 576 103 m 738 19 l 738 18 l 736 18 l 736 19 "},"a":{"ha":538,"x_min":0,"x_max":0,"o":"m 394 -21 l 376 -14 l 367 -19 l 349 -11 l 340 -3 l 339 3 l 326 19 l 319 38 l 319 47 l 318 51 l 314 69 l 279 61 l 243 58 l 167 58 l 128 67 l 88 71 l 71 81 l 68 82 l 53 92 l 39 115 l 28 144 l 28 189 l 32 203 l 60 254 l 110 308 l 165 343 l 217 379 l 244 390 l 249 393 l 272 399 l 272 444 l 267 513 l 258 542 l 244 525 l 242 519 l 203 483 l 178 468 l 171 467 l 167 464 l 151 461 l 146 458 l 92 451 l 78 438 l 57 443 l 50 447 l 50 469 l 67 506 l 108 564 l 140 596 l 183 631 l 290 676 l 356 676 l 383 667 l 390 663 l 393 660 l 414 647 l 436 619 l 454 575 l 454 564 l 460 522 l 472 461 l 472 439 l 476 421 l 482 408 l 482 378 l 488 343 l 488 332 l 490 319 l 500 207 l 500 189 l 503 176 l 503 107 l 506 90 l 506 56 l 508 33 l 508 29 l 510 18 l 510 0 l 508 -3 l 506 -14 l 496 -14 l 496 -7 l 501 1 l 497 6 l 489 3 l 475 6 l 456 -8 l 456 -14 l 454 -21 l 442 -11 l 436 -18 l 436 -24 l 410 -24 l 403 -21 m 164 114 l 197 114 l 211 118 l 222 119 l 261 131 l 297 149 l 289 192 l 278 314 l 261 306 l 251 294 l 232 282 l 218 265 l 197 249 l 158 197 l 147 164 l 147 140 l 153 121 m 494 32 l 494 35 l 492 35 l 492 33 "},"b":{"ha":526,"x_min":0,"x_max":0,"o":"m 175 -6 l 165 -1 l 153 -1 l 144 -6 l 114 -6 l 104 8 l 101 13 l 86 38 l 75 83 l 69 97 l 71 118 l 57 194 l 51 267 l 49 275 l 28 550 l 28 683 l 31 717 l 31 742 l 32 761 l 32 797 l 40 858 l 47 878 l 72 892 l 75 893 l 82 893 l 89 897 l 104 889 l 119 878 l 131 864 l 144 851 l 153 833 l 163 819 l 175 742 l 178 738 l 193 650 l 193 642 l 197 628 l 197 613 l 203 576 l 207 571 l 242 565 l 263 564 l 267 564 l 343 532 l 346 529 l 358 525 l 375 511 l 418 469 l 438 440 l 453 399 l 457 394 l 457 374 l 461 363 l 467 357 l 471 343 l 478 333 l 482 321 l 490 329 l 490 310 l 499 300 l 499 260 l 497 238 l 494 226 l 494 211 l 490 189 l 490 176 l 479 144 l 475 126 l 458 97 l 442 74 l 429 67 l 414 50 l 375 32 l 369 31 l 360 25 l 325 17 l 318 14 l 288 11 l 269 6 l 204 4 l 193 -7 l 182 -3 m 253 60 l 263 60 l 292 67 l 301 75 l 317 118 l 328 175 l 333 190 l 333 203 l 336 208 l 340 233 l 332 306 l 317 358 l 261 443 l 238 465 l 214 483 l 232 460 l 250 122 l 257 96 l 247 86 l 247 63 m 75 171 l 81 185 l 75 218 l 69 238 l 64 282 l 61 288 l 61 272 l 67 240 l 67 214 l 69 214 l 69 189 m 78 136 l 82 136 l 78 164 l 74 161 m 83 104 l 83 118 l 79 122 l 79 108 m 483 343 l 488 343 l 485 336 l 481 340 m 93 60 l 93 67 l 89 60 m 86 93 l 86 99 l 83 96 "},"c":{"ha":453,"x_min":0,"x_max":0,"o":"m 133 7 l 108 32 l 71 90 l 58 131 l 56 136 l 54 147 l 50 160 l 39 208 l 28 292 l 28 392 l 32 428 l 43 476 l 69 549 l 82 557 l 83 564 l 104 585 l 121 590 l 125 593 l 208 610 l 226 617 l 260 619 l 322 619 l 338 610 l 350 604 l 358 599 l 364 599 l 388 579 l 411 535 l 411 469 l 401 435 l 388 408 l 363 389 l 356 386 l 349 378 l 338 372 l 332 367 l 311 360 l 308 358 l 283 354 l 272 354 l 244 338 l 242 340 l 242 344 l 260 363 l 265 376 l 275 424 l 275 478 l 250 532 l 225 554 l 215 565 l 199 569 l 178 549 l 164 515 l 164 488 l 161 469 l 164 461 l 164 381 l 179 333 l 183 314 l 242 157 l 244 140 l 258 108 l 269 99 l 286 150 l 289 165 l 297 182 l 301 200 l 306 208 l 321 271 l 324 288 l 329 290 l 333 289 l 342 293 l 349 290 l 358 290 l 364 299 l 368 296 l 375 293 l 388 285 l 400 285 l 408 289 l 419 278 l 422 256 l 425 250 l 419 219 l 419 203 l 414 182 l 414 128 l 408 115 l 406 101 l 401 94 l 397 78 l 390 68 l 388 57 l 374 35 l 350 14 l 333 6 l 282 0 l 265 -7 l 217 -7 l 197 -11 l 157 -7 "},"d":{"ha":522,"x_min":0,"x_max":0,"o":"m 300 31 l 293 47 l 289 53 l 278 53 l 272 56 l 233 56 l 211 50 l 175 54 l 138 67 l 117 82 l 79 118 l 60 158 l 38 253 l 28 310 l 32 446 l 51 514 l 68 556 l 92 579 l 106 585 l 147 611 l 161 614 l 179 624 l 203 629 l 214 633 l 243 636 l 274 629 l 289 617 l 328 938 l 338 946 l 356 956 l 363 963 l 385 965 l 392 968 l 428 960 l 443 947 l 461 917 l 471 881 l 483 800 l 483 765 l 493 718 l 493 708 l 489 699 l 494 621 l 489 590 l 489 501 l 483 488 l 486 425 l 483 415 l 482 389 l 479 376 l 479 356 l 474 333 l 474 247 l 469 224 l 469 207 l 463 128 l 467 94 l 467 36 l 457 18 l 433 25 l 431 18 l 421 22 l 418 13 l 382 13 l 368 18 l 361 24 l 343 7 l 332 7 l 319 10 m 278 157 l 272 221 l 272 438 l 263 485 l 243 535 l 226 550 l 219 553 l 206 547 l 203 540 l 194 528 l 192 510 l 183 492 l 183 471 l 181 460 l 181 365 l 186 346 l 192 315 l 206 274 l 215 254 l 218 250 l 221 238 l 251 176 l 260 169 "},"e":{"ha":525,"x_min":0,"x_max":0,"o":"m 126 38 l 125 40 l 119 43 l 97 67 l 74 107 l 60 140 l 28 276 l 28 378 l 51 489 l 82 569 l 121 622 l 158 636 l 178 640 l 229 644 l 247 651 l 314 658 l 336 654 l 357 647 l 394 600 l 396 594 l 407 579 l 425 540 l 435 476 l 429 467 l 425 426 l 421 411 l 424 392 l 431 379 l 475 379 l 497 376 l 489 358 l 438 335 l 431 333 l 421 329 l 372 321 l 350 321 l 311 314 l 290 314 l 256 311 l 208 311 l 208 283 l 215 256 l 219 250 l 242 172 l 254 144 l 286 188 l 314 236 l 318 253 l 328 261 l 336 276 l 363 274 l 378 279 l 393 264 l 403 264 l 408 253 l 424 251 l 432 244 l 429 215 l 429 204 l 422 171 l 417 161 l 396 108 l 388 100 l 385 90 l 364 61 l 329 38 l 306 28 l 304 28 l 283 22 l 219 22 l 200 26 l 182 21 l 174 21 l 146 26 m 201 376 l 301 376 l 301 449 l 283 510 l 278 522 l 268 551 l 268 564 l 263 572 l 261 578 l 247 588 l 233 571 l 219 539 l 208 501 l 206 475 l 201 467 l 196 428 l 196 379 "},"f":{"ha":471,"x_min":0,"x_max":0,"o":"m 135 43 l 122 101 l 88 400 l 78 560 l 54 560 l 40 554 l 31 554 l 28 567 l 47 586 l 54 586 l 78 592 l 78 750 l 83 810 l 101 892 l 113 913 l 122 922 l 149 931 l 161 939 l 169 950 l 279 967 l 333 957 l 357 942 l 367 938 l 381 922 l 396 915 l 408 896 l 419 863 l 419 810 l 417 800 l 417 788 l 404 768 l 390 761 l 376 751 l 351 738 l 328 729 l 317 722 l 311 728 l 318 826 l 314 833 l 297 853 l 294 857 l 261 881 l 239 889 l 235 899 l 232 893 l 226 892 l 213 872 l 206 807 l 218 724 l 222 710 l 233 618 l 242 611 l 408 626 l 436 622 l 436 617 l 440 606 l 443 603 l 443 596 l 401 576 l 399 572 l 383 569 l 344 556 l 240 544 l 244 504 l 247 494 l 256 425 l 256 413 l 261 394 l 265 296 l 268 282 l 276 186 l 279 171 l 279 149 l 288 76 l 288 44 l 278 29 l 275 18 l 258 10 l 244 17 l 240 0 l 235 0 l 208 14 l 185 10 l 172 0 l 164 0 l 154 10 "},"g":{"ha":472,"x_min":0,"x_max":0,"o":"m 189 -103 l 163 -76 l 139 -35 l 124 6 l 108 74 l 113 83 l 140 107 l 153 111 l 186 110 l 193 103 l 222 85 l 229 69 l 238 60 l 246 36 l 282 -28 l 279 -4 l 282 85 l 276 94 l 279 142 l 276 169 l 233 157 l 201 158 l 185 165 l 161 157 l 138 158 l 103 175 l 78 204 l 61 226 l 40 271 l 28 381 l 31 436 l 39 472 l 40 488 l 53 528 l 76 582 l 97 610 l 132 622 l 175 643 l 207 650 l 226 660 l 272 661 l 292 656 l 301 649 l 310 647 l 322 656 l 360 663 l 397 646 l 406 638 l 408 622 l 411 615 l 418 568 l 425 546 l 428 528 l 433 508 l 432 492 l 435 478 l 443 333 l 439 317 l 444 278 l 438 174 l 436 165 l 433 114 l 435 90 l 428 22 l 418 -17 l 413 -33 l 407 -42 l 401 -64 l 393 -69 l 386 -76 l 346 -106 l 326 -111 l 324 -111 l 314 -117 l 286 -115 l 268 -111 l 231 -119 l 213 -115 m 208 240 l 214 240 l 231 268 l 238 289 l 246 306 l 261 367 l 265 392 l 269 386 l 282 424 l 276 450 l 267 525 l 264 539 l 238 571 l 222 583 l 211 583 l 204 578 l 186 543 l 182 538 l 169 508 l 169 369 l 174 339 l 193 269 l 196 264 l 200 249 "},"h":{"ha":483,"x_min":0,"x_max":0,"o":"m 281 26 l 269 54 l 246 385 l 172 76 l 168 31 l 129 18 l 101 35 l 90 35 l 82 39 l 68 36 l 49 28 l 38 40 l 65 847 l 71 851 l 76 861 l 88 871 l 124 892 l 142 894 l 192 893 l 204 879 l 219 857 l 224 829 l 218 799 l 208 772 l 204 740 l 201 682 l 203 642 l 197 599 l 176 276 l 256 493 l 278 531 l 282 556 l 293 578 l 313 582 l 318 590 l 329 593 l 333 594 l 346 596 l 356 603 l 393 597 l 421 588 l 429 578 l 429 571 l 425 561 l 439 481 l 439 468 l 446 450 l 453 335 l 451 292 l 453 268 l 450 253 l 451 224 l 450 188 l 456 165 l 447 69 l 439 36 l 438 13 l 418 17 l 411 21 l 404 21 l 401 15 l 396 15 l 388 11 l 382 11 l 375 8 l 354 17 l 347 15 l 329 15 l 313 6 l 300 7 m 33 38 l 33 35 l 32 32 l 28 36 "},"i":{"ha":251,"x_min":0,"x_max":0,"o":"m 146 6 l 113 7 l 99 -1 l 79 8 l 68 46 l 47 367 l 53 506 l 57 515 l 76 532 l 92 539 l 140 531 l 161 518 l 164 507 l 168 497 l 171 481 l 185 456 l 193 426 l 200 361 l 200 349 l 204 325 l 207 167 l 214 114 l 224 74 l 222 32 l 215 7 l 210 0 l 196 6 l 189 0 l 181 -3 l 174 -8 l 158 -3 m 108 667 l 83 667 l 72 663 l 57 663 l 39 683 l 28 719 l 29 742 l 36 792 l 39 796 l 44 817 l 61 822 l 92 840 l 126 844 l 133 842 l 176 839 l 194 828 l 204 815 l 206 790 l 208 772 l 208 750 l 197 696 l 186 667 l 174 660 l 138 660 l 132 650 l 121 656 "},"j":{"ha":267,"x_min":0,"x_max":0,"o":"m 21 -233 l 18 -212 l 54 -58 l 63 -7 l 69 82 l 69 178 l 50 476 l 47 496 l 47 554 l 53 581 l 67 586 l 79 593 l 101 600 l 118 600 l 138 596 l 164 579 l 186 557 l 190 540 l 208 414 l 232 317 l 232 289 l 235 278 l 239 224 l 239 121 l 232 10 l 228 -6 l 219 -19 l 213 -42 l 208 -68 l 206 -75 l 196 -117 l 189 -136 l 183 -158 l 167 -187 l 164 -192 l 142 -229 l 125 -231 l 121 -233 l 113 -233 l 99 -249 l 76 -253 l 72 -258 l 53 -264 l 40 -260 l 35 -262 l 24 -262 l 18 -265 l 14 -265 l 14 -256 m 128 758 l 118 754 l 108 754 l 103 758 l 69 772 l 53 764 l 44 764 l 33 800 l 33 846 l 44 890 l 56 911 l 76 917 l 86 922 l 115 922 l 136 914 l 171 888 l 189 878 l 194 867 l 190 854 l 182 796 l 160 757 l 150 751 l 142 751 l 138 757 "},"k":{"ha":569,"x_min":0,"x_max":0,"o":"m 83 53 l 71 78 l 64 107 l 29 379 l 28 715 l 35 819 l 42 853 l 74 865 l 118 876 l 150 868 l 171 856 l 181 838 l 196 754 l 200 699 l 200 683 l 203 660 l 206 606 l 210 567 l 215 540 l 217 493 l 219 482 l 219 469 l 222 457 l 226 411 l 229 408 l 226 406 l 229 383 l 301 499 l 351 557 l 428 569 l 438 567 l 472 569 l 476 565 l 447 528 l 390 444 l 388 440 l 324 336 l 313 331 l 304 318 l 293 307 l 297 304 l 339 307 l 390 301 l 433 286 l 458 265 l 531 174 l 542 144 l 535 132 l 540 114 l 540 104 l 538 100 l 538 72 l 531 58 l 528 47 l 517 51 l 488 51 l 485 46 l 469 51 l 443 51 l 424 36 l 403 47 l 379 76 l 365 88 l 332 124 l 307 161 l 294 186 l 285 192 l 274 207 l 264 210 l 272 221 l 261 231 l 256 231 l 250 222 l 257 133 l 251 101 l 246 85 l 243 61 l 236 61 l 229 44 l 219 40 l 211 44 l 203 42 l 193 42 l 186 33 l 176 33 l 164 38 l 157 33 l 142 32 l 117 26 l 108 29 "},"l":{"ha":286,"x_min":0,"x_max":0,"o":"m 176 -32 l 169 -28 l 161 -28 l 143 -24 l 129 -32 l 119 -32 l 107 -18 l 104 -14 l 96 3 l 83 56 l 74 117 l 69 132 l 68 153 l 51 229 l 50 244 l 47 254 l 38 390 l 38 415 l 28 582 l 46 825 l 46 843 l 50 858 l 54 931 l 69 946 l 85 954 l 103 950 l 121 940 l 142 918 l 147 904 l 158 889 l 165 875 l 167 865 l 189 832 l 193 811 l 207 660 l 214 644 l 214 635 l 217 611 l 218 565 l 221 553 l 224 486 l 226 474 l 225 451 l 225 354 l 224 335 l 232 244 l 256 110 l 253 64 l 258 49 l 257 26 l 251 19 l 250 -6 l 239 -14 l 182 -32 "},"m":{"ha":754,"x_min":0,"x_max":0,"o":"m 93 1 l 75 3 l 67 0 l 56 0 l 49 28 l 35 138 l 28 297 l 40 672 l 46 685 l 56 693 l 71 697 l 93 710 l 118 715 l 149 706 l 175 665 l 178 619 l 171 561 l 164 421 l 165 410 l 164 375 l 165 371 l 165 332 l 168 332 l 207 440 l 235 504 l 281 590 l 307 603 l 326 607 l 347 615 l 378 614 l 385 606 l 397 583 l 399 563 l 397 529 l 404 496 l 411 390 l 414 374 l 415 331 l 418 328 l 422 343 l 424 329 l 426 329 l 483 485 l 496 513 l 499 517 l 508 543 l 535 586 l 564 600 l 596 608 l 601 615 l 618 619 l 658 619 l 672 594 l 689 508 l 699 474 l 700 438 l 703 433 l 714 339 l 713 331 l 722 274 l 726 219 l 725 189 l 726 150 l 724 74 l 726 50 l 721 44 l 713 46 l 704 40 l 688 46 l 681 44 l 674 50 l 668 42 l 668 35 l 658 39 l 653 36 l 646 40 l 625 40 l 613 31 l 600 31 l 579 49 l 565 72 l 563 93 l 554 121 l 531 376 l 529 382 l 497 286 l 492 282 l 485 261 l 446 92 l 443 86 l 433 18 l 414 18 l 404 21 l 399 18 l 389 24 l 383 19 l 381 10 l 354 17 l 349 21 l 339 21 l 322 18 l 307 13 l 289 24 l 275 68 l 264 335 l 261 333 l 244 276 l 240 271 l 214 199 l 211 185 l 186 122 l 186 108 l 176 79 l 171 53 l 169 18 l 164 0 l 156 -8 l 128 -11 l 114 -7 "},"n":{"ha":542,"x_min":0,"x_max":0,"o":"m 90 6 l 76 -1 l 65 6 l 58 19 l 50 69 l 50 76 l 44 114 l 46 147 l 32 388 l 33 414 l 29 428 l 28 589 l 33 601 l 50 608 l 68 619 l 107 624 l 126 617 l 136 607 l 142 585 l 156 571 l 157 553 l 164 539 l 176 422 l 201 492 l 221 533 l 247 569 l 278 599 l 314 607 l 319 607 l 333 613 l 342 611 l 368 617 l 411 621 l 438 617 l 453 607 l 467 592 l 468 586 l 474 579 l 482 544 l 488 493 l 488 457 l 501 342 l 507 326 l 508 269 l 508 267 l 514 228 l 508 56 l 506 53 l 504 33 l 507 28 l 483 19 l 483 28 l 478 28 l 474 25 l 471 26 l 468 15 l 451 15 l 447 13 l 446 21 l 444 21 l 440 10 l 431 11 l 426 3 l 411 3 l 375 18 l 354 15 l 336 22 l 324 35 l 311 68 l 314 118 l 294 404 l 290 428 l 250 286 l 228 178 l 221 175 l 186 60 l 181 25 l 174 6 l 172 3 l 164 -7 l 142 -1 l 136 -11 l 124 -3 "},"o":{"ha":514,"x_min":0,"x_max":0,"o":"m 206 7 l 178 4 l 153 13 l 125 32 l 121 33 l 88 69 l 65 107 l 39 186 l 28 257 l 29 347 l 44 415 l 56 450 l 64 469 l 72 504 l 89 531 l 119 571 l 138 578 l 165 582 l 181 590 l 186 596 l 189 617 l 200 639 l 238 640 l 246 649 l 254 647 l 294 660 l 311 660 l 321 656 l 374 658 l 388 654 l 411 626 l 413 622 l 428 597 l 431 596 l 436 581 l 432 576 l 436 568 l 436 556 l 440 554 l 440 544 l 449 531 l 453 508 l 458 499 l 461 482 l 465 471 l 474 415 l 472 375 l 474 326 l 475 322 l 476 296 l 478 307 l 478 310 l 483 310 l 479 275 l 476 264 l 476 250 l 474 236 l 479 233 l 475 225 l 465 192 l 458 175 l 453 149 l 442 126 l 438 111 l 428 93 l 419 74 l 406 49 l 386 26 l 353 4 l 329 3 l 304 4 l 288 1 l 240 -3 m 258 124 l 268 144 l 288 194 l 294 382 l 293 419 l 297 431 l 293 433 l 293 451 l 297 456 l 292 508 l 276 535 l 271 549 l 263 564 l 257 560 l 251 547 l 256 538 l 254 521 l 243 510 l 233 494 l 226 474 l 221 467 l 210 433 l 201 399 l 196 278 l 200 242 l 207 228 l 213 210 l 226 175 l 247 142 m 486 332 l 486 326 l 481 326 l 481 332 "},"p":{"ha":517,"x_min":0,"x_max":0,"o":"m 144 -125 l 129 -124 l 117 -121 l 99 -122 l 92 -126 l 83 -118 l 82 -108 l 71 -74 l 28 421 l 33 582 l 40 647 l 49 667 l 68 676 l 88 675 l 125 651 l 129 640 l 136 633 l 146 617 l 165 596 l 171 564 l 175 550 l 179 522 l 183 508 l 225 576 l 257 614 l 282 632 l 306 636 l 328 635 l 346 639 l 400 636 l 446 619 l 456 608 l 474 592 l 485 569 l 489 533 l 478 475 l 469 449 l 461 436 l 449 404 l 439 390 l 433 376 l 408 338 l 396 325 l 372 293 l 333 249 l 271 199 l 236 186 l 229 192 l 231 135 l 233 125 l 233 110 l 243 -1 l 239 -12 l 242 -53 l 239 -104 l 235 -111 l 229 -140 l 224 -136 l 219 -136 l 211 -133 l 206 -135 l 197 -129 l 188 -135 l 179 -126 l 175 -137 l 150 -129 m 229 340 l 286 456 l 308 526 l 301 536 l 299 540 l 290 536 l 278 514 l 249 435 l 231 350 "},"q":{"ha":525,"x_min":0,"x_max":0,"o":"m 296 -137 l 288 -111 l 282 135 l 279 138 l 274 140 l 258 154 l 254 156 l 210 157 l 193 160 l 169 157 l 117 172 l 108 181 l 104 182 l 90 197 l 88 199 l 63 233 l 46 261 l 28 358 l 29 399 l 40 461 l 53 494 l 57 514 l 101 582 l 104 590 l 108 592 l 121 601 l 147 611 l 165 615 l 218 617 l 225 619 l 279 622 l 313 628 l 321 624 l 329 649 l 353 657 l 378 656 l 404 649 l 439 617 l 453 613 l 469 594 l 469 579 l 474 551 l 482 526 l 485 496 l 489 489 l 497 389 l 496 350 l 497 325 l 494 304 l 493 282 l 490 268 l 490 260 l 488 250 l 481 75 l 482 64 l 481 28 l 476 22 l 476 -17 l 469 -26 l 472 -46 l 478 -54 l 476 -79 l 476 -82 l 471 -72 l 468 -75 l 465 -106 l 458 -115 l 453 -136 l 453 -149 l 449 -153 l 443 -149 l 419 -146 l 404 -146 l 392 -156 l 386 -156 l 360 -143 l 346 -146 l 329 -157 l 307 -149 m 239 232 l 247 242 l 292 314 l 299 374 l 304 483 l 293 506 l 290 515 l 288 519 l 283 531 l 265 556 l 246 568 l 225 549 l 222 540 l 213 525 l 213 511 l 208 506 l 203 508 l 200 496 l 194 492 l 193 481 l 181 449 l 174 360 l 182 308 l 214 261 l 217 254 l 233 236 "},"r":{"ha":526,"x_min":0,"x_max":0,"o":"m 131 19 l 125 22 l 118 17 l 101 44 l 92 82 l 90 100 l 60 232 l 60 244 l 28 474 l 29 542 l 46 621 l 53 629 l 75 635 l 97 633 l 103 631 l 110 631 l 142 622 l 172 604 l 204 575 l 215 554 l 221 532 l 225 532 l 283 601 l 308 614 l 354 625 l 407 626 l 432 625 l 476 615 l 492 601 l 499 538 l 485 492 l 472 467 l 463 442 l 422 381 l 414 357 l 404 346 l 401 339 l 388 318 l 385 315 l 381 315 l 375 311 l 361 321 l 356 321 l 351 315 l 350 318 l 347 324 l 338 319 l 331 325 l 308 333 l 278 336 l 264 353 l 264 374 l 272 394 l 281 404 l 288 424 l 310 472 l 335 518 l 354 578 l 354 589 l 333 567 l 279 496 l 271 472 l 268 444 l 257 389 l 257 365 l 258 356 l 258 332 l 263 313 l 261 207 l 264 200 l 268 171 l 269 167 l 274 132 l 276 121 l 276 106 l 278 99 l 278 90 l 283 85 l 264 40 l 193 15 l 157 8 l 129 8 l 126 11 "},"s":{"ha":550,"x_min":0,"x_max":0,"o":"m 164 14 l 133 46 l 117 83 l 104 126 l 103 146 l 125 161 l 149 169 l 186 165 l 225 151 l 229 149 l 250 144 l 257 138 l 276 106 l 286 96 l 315 136 l 307 164 l 301 226 l 154 238 l 113 249 l 78 282 l 49 318 l 35 349 l 28 393 l 36 449 l 51 493 l 101 574 l 103 578 l 147 625 l 171 639 l 197 642 l 211 646 l 283 649 l 304 656 l 444 653 l 468 647 l 500 629 l 514 619 l 517 607 l 522 596 l 522 544 l 493 482 l 465 440 l 424 404 l 383 386 l 338 378 l 332 378 l 324 376 l 235 378 l 228 383 l 233 396 l 246 404 l 275 414 l 282 414 l 300 424 l 333 469 l 351 514 l 357 533 l 331 567 l 296 592 l 285 592 l 254 560 l 232 510 l 214 483 l 196 418 l 200 363 l 211 333 l 242 297 l 282 296 l 289 299 l 317 303 l 322 306 l 333 307 l 340 311 l 367 317 l 458 310 l 489 296 l 500 285 l 499 235 l 489 196 l 468 142 l 468 135 l 432 75 l 424 57 l 392 21 l 351 4 l 325 3 l 311 0 l 250 6 l 219 -4 l 204 -4 "},"t":{"ha":601,"x_min":0,"x_max":0,"o":"m 226 3 l 211 10 l 178 36 l 150 75 l 128 131 l 118 172 l 114 185 l 103 317 l 101 463 l 99 485 l 100 546 l 64 575 l 47 578 l 32 575 l 28 579 l 36 592 l 99 600 l 106 665 l 111 674 l 126 881 l 142 897 l 157 904 l 183 910 l 215 906 l 221 906 l 236 897 l 254 854 l 256 843 l 276 769 l 279 725 l 279 706 l 285 638 l 411 643 l 443 642 l 460 644 l 499 632 l 524 613 l 532 603 l 536 600 l 543 593 l 574 574 l 572 564 l 568 560 l 560 560 l 553 558 l 543 565 l 486 564 l 436 558 l 432 557 l 360 549 l 304 554 l 297 549 l 307 479 l 307 475 l 311 461 l 311 421 l 314 404 l 317 350 l 319 335 l 319 321 l 325 314 l 325 154 l 329 146 l 333 124 l 350 107 l 363 111 l 429 161 l 435 171 l 442 200 l 447 200 l 453 194 l 469 190 l 482 172 l 496 146 l 500 106 l 494 94 l 486 83 l 482 72 l 449 39 l 410 17 l 389 8 l 382 11 l 371 11 l 363 8 l 353 14 l 339 14 l 318 6 l 282 -1 l 276 1 "},"u":{"ha":585,"x_min":0,"x_max":0,"o":"m 88 14 l 63 46 l 46 82 l 38 113 l 28 201 l 28 276 l 35 365 l 63 528 l 67 543 l 83 549 l 89 556 l 93 556 l 94 568 l 110 572 l 131 583 l 142 586 l 154 593 l 181 592 l 199 583 l 215 574 l 224 554 l 225 543 l 224 539 l 221 506 l 214 486 l 206 435 l 207 235 l 211 201 l 214 192 l 217 160 l 219 150 l 332 401 l 367 463 l 375 533 l 374 551 l 379 560 l 379 567 l 400 583 l 417 590 l 464 592 l 486 586 l 492 586 l 503 567 l 504 547 l 517 511 l 528 428 l 528 388 l 529 382 l 526 375 l 531 365 l 532 318 l 539 297 l 539 285 l 542 271 l 550 174 l 554 160 l 554 100 l 557 74 l 554 44 l 543 26 l 525 22 l 510 22 l 503 11 l 500 11 l 496 14 l 490 11 l 486 11 l 485 4 l 478 -3 l 467 6 l 449 3 l 432 -11 l 426 -7 l 410 13 l 394 38 l 388 67 l 385 99 l 385 117 l 382 146 l 381 150 l 381 154 l 376 172 l 374 174 l 369 158 l 358 139 l 351 114 l 328 57 l 311 39 l 301 35 l 292 24 l 264 11 l 207 1 l 171 3 l 150 -4 l 131 -4 l 107 1 "},"v":{"ha":510,"x_min":0,"x_max":0,"o":"m 257 10 l 217 8 l 207 0 l 200 0 l 186 13 l 181 32 l 158 67 l 156 106 l 96 293 l 85 353 l 36 550 l 28 569 l 38 588 l 67 611 l 83 614 l 101 621 l 143 621 l 169 615 l 183 601 l 218 513 l 219 500 l 235 456 l 242 411 l 247 390 l 250 367 l 267 310 l 335 569 l 361 597 l 396 617 l 428 619 l 457 629 l 482 621 l 481 613 l 478 606 l 482 592 l 471 579 l 468 556 l 463 546 l 460 517 l 456 499 l 453 471 l 396 256 l 389 213 l 386 206 l 381 171 l 350 75 l 349 58 l 342 50 l 338 36 l 315 11 l 281 -6 l 267 4 "},"w":{"ha":782,"x_min":0,"x_max":0,"o":"m 369 56 l 344 119 l 340 146 l 326 201 l 321 213 l 313 247 l 310 250 l 306 228 l 296 203 l 275 132 l 253 79 l 244 67 l 242 65 l 232 53 l 183 29 l 168 31 l 143 39 l 122 35 l 110 31 l 81 32 l 64 44 l 64 56 l 51 92 l 35 186 l 28 294 l 36 490 l 69 617 l 82 625 l 103 632 l 135 613 l 144 603 l 150 583 l 156 574 l 157 564 l 160 557 l 163 533 l 179 506 l 182 381 l 181 369 l 185 281 l 218 415 l 247 506 l 265 542 l 268 557 l 276 581 l 286 588 l 296 590 l 310 603 l 335 606 l 343 610 l 357 611 l 397 626 l 419 625 l 424 611 l 431 575 l 456 489 l 463 438 l 474 406 l 474 396 l 478 381 l 479 368 l 485 354 l 486 314 l 489 314 l 538 468 l 564 525 l 574 539 l 583 571 l 604 597 l 632 610 l 663 618 l 704 633 l 714 642 l 747 640 l 754 607 l 697 538 l 693 524 l 685 504 l 650 394 l 647 381 l 631 328 l 618 278 l 615 257 l 613 249 l 599 185 l 583 151 l 569 111 l 569 106 l 558 76 l 558 64 l 547 51 l 547 44 l 538 40 l 525 40 l 519 36 l 513 33 l 499 24 l 463 31 l 443 32 l 425 17 l 406 13 l 392 24 "},"x":{"ha":574,"x_min":0,"x_max":0,"o":"m 301 64 l 239 151 l 221 135 l 207 119 l 185 104 l 169 90 l 135 68 l 115 60 l 114 57 l 69 44 l 56 33 l 49 35 l 38 57 l 38 67 l 46 64 l 53 69 l 113 189 l 171 272 l 85 442 l 74 458 l 54 501 l 28 589 l 32 603 l 54 615 l 83 622 l 113 626 l 157 625 l 179 613 l 213 585 l 240 543 l 242 539 l 263 503 l 286 472 l 292 463 l 296 463 l 411 576 l 471 592 l 529 583 l 546 576 l 546 563 l 538 556 l 529 553 l 524 539 l 513 522 l 486 475 l 439 418 l 425 394 l 407 372 l 379 321 l 392 301 l 396 290 l 413 272 l 436 232 l 467 186 l 468 178 l 493 135 l 494 121 l 506 104 l 508 86 l 508 61 l 474 39 l 443 40 l 443 35 l 446 24 l 428 18 l 413 22 l 406 14 l 397 -1 l 367 3 "},"y":{"ha":521,"x_min":0,"x_max":0,"o":"m 88 -47 l 85 -32 l 82 -32 l 76 -44 l 74 -40 l 72 -26 l 63 -26 l 51 -14 l 43 -12 l 32 -7 l 28 7 l 35 32 l 38 49 l 76 140 l 149 249 l 154 265 l 88 399 l 57 513 l 46 582 l 35 611 l 51 621 l 46 631 l 79 643 l 114 642 l 149 628 l 168 607 l 175 603 l 215 529 l 235 485 l 242 476 l 269 419 l 278 436 l 344 533 l 349 544 l 361 558 l 375 585 l 399 610 l 425 608 l 436 604 l 463 571 l 475 565 l 493 540 l 493 526 l 488 519 l 469 431 l 463 411 l 454 394 l 451 379 l 449 375 l 429 340 l 424 319 l 396 279 l 390 274 l 349 213 l 340 192 l 317 167 l 306 144 l 294 129 l 243 71 l 238 60 l 219 39 l 218 38 l 206 18 l 203 11 l 169 -42 l 153 -49 l 143 -62 l 138 -61 l 126 -53 l 124 -51 l 119 -58 l 107 -61 l 99 -54 "},"z":{"ha":467,"x_min":0,"x_max":0,"o":"m 133 28 l 122 28 l 122 22 l 115 19 l 110 19 l 113 29 l 108 32 l 103 36 l 97 31 l 92 40 l 81 53 l 74 53 l 60 71 l 57 85 l 44 110 l 35 119 l 35 154 l 53 203 l 150 379 l 207 468 l 211 479 l 157 479 l 135 483 l 113 493 l 74 517 l 60 540 l 57 551 l 39 558 l 28 572 l 28 585 l 33 592 l 44 592 l 181 633 l 189 635 l 194 639 l 240 649 l 269 651 l 281 654 l 285 651 l 319 649 l 335 640 l 351 635 l 360 618 l 385 603 l 396 585 l 410 576 l 415 569 l 417 554 l 425 536 l 410 492 l 397 464 l 374 429 l 354 406 l 326 361 l 290 286 l 269 261 l 238 207 l 204 168 l 204 158 l 315 179 l 319 179 l 347 183 l 367 176 l 393 146 l 417 129 l 419 111 l 439 85 l 433 53 l 426 53 l 422 51 l 399 43 l 376 32 l 356 28 l 353 24 l 346 24 l 340 21 l 313 17 l 294 11 l 219 11 l 204 7 l 178 14 "},"":{"ha":549,"x_min":0,"x_max":0,"o":"m 46 -15 l 33 4 l 28 107 l 31 144 l 32 275 l 63 575 l 63 604 l 103 822 l 115 867 l 124 883 l 124 904 l 128 918 l 142 925 l 156 929 l 161 936 l 175 940 l 185 947 l 214 951 l 249 967 l 272 960 l 303 953 l 319 940 l 326 938 l 342 913 l 371 836 l 378 822 l 389 772 l 392 767 l 394 742 l 408 674 l 408 665 l 414 656 l 418 628 l 422 614 l 426 564 l 426 550 l 440 482 l 449 418 l 464 344 l 468 333 l 471 315 l 478 301 l 499 194 l 517 140 l 521 106 l 517 97 l 517 53 l 511 39 l 499 39 l 490 35 l 478 35 l 474 32 l 469 38 l 456 42 l 449 35 l 447 28 l 428 39 l 421 26 l 406 33 l 393 22 l 376 22 l 363 35 l 351 64 l 325 150 l 313 150 l 308 146 l 278 136 l 204 122 l 200 46 l 194 25 l 190 -1 l 183 -26 l 179 -31 l 164 -31 l 149 -28 l 144 -32 l 132 -24 l 128 -25 l 125 -37 l 101 -25 l 89 -24 l 89 -32 l 79 -25 l 69 -32 l 60 -32 l 54 -36 l 47 -31 m 211 214 l 221 214 l 275 232 l 297 232 l 303 239 l 293 282 l 288 296 l 253 461 l 250 483 l 243 492 l 242 506 l 240 506 l 235 488 l 231 443 l 224 403 l 222 378 l 214 349 l 214 258 l 211 249 m 281 1028 l 269 1025 l 256 1025 l 243 1032 l 229 1050 l 194 1086 l 156 1113 l 144 1124 l 142 1124 l 125 1142 l 114 1149 l 114 1153 l 118 1160 l 136 1164 l 158 1175 l 167 1182 l 178 1188 l 194 1199 l 213 1199 l 240 1192 l 257 1172 l 267 1158 l 268 1154 l 300 1103 l 301 1100 l 310 1088 l 319 1068 l 319 1057 l 310 1056 l 297 1049 "},"":{"ha":549,"x_min":0,"x_max":0,"o":"m 46 -15 l 33 4 l 28 107 l 31 144 l 32 275 l 63 575 l 63 604 l 103 822 l 115 867 l 124 883 l 124 904 l 128 918 l 142 925 l 156 929 l 161 936 l 175 940 l 185 947 l 214 951 l 249 967 l 272 960 l 303 953 l 319 940 l 326 938 l 342 913 l 371 836 l 378 822 l 389 772 l 392 767 l 394 742 l 408 674 l 408 665 l 414 656 l 418 628 l 422 614 l 426 564 l 426 550 l 440 482 l 449 418 l 464 344 l 468 333 l 471 315 l 478 301 l 499 194 l 517 140 l 521 106 l 517 97 l 517 53 l 511 39 l 499 39 l 490 35 l 478 35 l 474 32 l 469 38 l 456 42 l 449 35 l 447 28 l 428 39 l 421 26 l 406 33 l 393 22 l 376 22 l 363 35 l 351 64 l 325 150 l 313 150 l 308 146 l 278 136 l 204 122 l 200 46 l 194 25 l 190 -1 l 183 -26 l 179 -31 l 164 -31 l 149 -28 l 144 -32 l 132 -24 l 128 -25 l 125 -37 l 101 -25 l 89 -24 l 89 -32 l 79 -25 l 69 -32 l 60 -32 l 54 -36 l 47 -31 m 211 214 l 221 214 l 275 232 l 297 232 l 303 239 l 293 282 l 288 296 l 253 461 l 250 483 l 243 492 l 242 506 l 240 506 l 235 488 l 231 443 l 224 403 l 222 378 l 214 349 l 214 258 l 211 249 m 106 1051 l 93 1058 l 83 1060 l 83 1071 l 93 1090 l 101 1103 l 103 1106 l 135 1157 l 136 1161 l 146 1175 l 163 1194 l 190 1201 l 208 1201 l 225 1190 l 236 1185 l 244 1178 l 267 1167 l 285 1163 l 289 1156 l 289 1151 l 278 1144 l 261 1126 l 258 1126 l 247 1115 l 208 1089 l 174 1053 l 160 1035 l 147 1028 l 133 1028 l 122 1031 "},"":{"ha":549,"x_min":0,"x_max":0,"o":"m 46 -15 l 33 4 l 28 107 l 31 144 l 32 275 l 63 575 l 63 604 l 103 822 l 115 867 l 124 883 l 124 904 l 128 918 l 142 925 l 156 929 l 161 936 l 175 940 l 185 947 l 214 951 l 249 967 l 272 960 l 303 953 l 319 940 l 326 938 l 342 913 l 371 836 l 378 822 l 389 772 l 392 767 l 394 742 l 408 674 l 408 665 l 414 656 l 418 628 l 422 614 l 426 564 l 426 550 l 440 482 l 449 418 l 464 344 l 468 333 l 471 315 l 478 301 l 499 194 l 517 140 l 521 106 l 517 97 l 517 53 l 511 39 l 499 39 l 490 35 l 478 35 l 474 32 l 469 38 l 456 42 l 449 35 l 447 28 l 428 39 l 421 26 l 406 33 l 393 22 l 376 22 l 363 35 l 351 64 l 325 150 l 313 150 l 308 146 l 278 136 l 204 122 l 200 46 l 194 25 l 190 -1 l 183 -26 l 179 -31 l 164 -31 l 149 -28 l 144 -32 l 132 -24 l 128 -25 l 125 -37 l 101 -25 l 89 -24 l 89 -32 l 79 -25 l 69 -32 l 60 -32 l 54 -36 l 47 -31 m 211 214 l 221 214 l 275 232 l 297 232 l 303 239 l 293 282 l 288 296 l 253 461 l 250 483 l 243 492 l 242 506 l 240 506 l 235 488 l 231 443 l 224 403 l 222 378 l 214 349 l 214 258 l 211 249 m 74 1060 l 78 1079 l 88 1092 l 99 1110 l 139 1149 l 150 1153 l 181 1153 l 218 1156 l 239 1149 l 272 1129 l 285 1118 l 289 1113 l 311 1094 l 331 1082 l 333 1081 l 338 1075 l 343 1071 l 351 1061 l 351 1056 l 354 1047 l 349 1035 l 331 1028 l 325 1031 l 319 1031 l 314 1033 l 308 1033 l 303 1038 l 296 1038 l 283 1043 l 268 1046 l 260 1054 l 250 1057 l 246 1064 l 225 1081 l 206 1092 l 203 1092 l 199 1081 l 186 1061 l 168 1043 l 149 1033 l 119 1024 l 90 1024 l 82 1025 l 63 1021 l 63 1026 "},"":{"ha":549,"x_min":0,"x_max":0,"o":"m 46 -15 l 33 4 l 28 107 l 31 144 l 32 275 l 63 575 l 63 604 l 103 822 l 115 867 l 124 883 l 124 904 l 128 918 l 142 925 l 156 929 l 161 936 l 175 940 l 185 947 l 214 951 l 249 967 l 272 960 l 303 953 l 319 940 l 326 938 l 342 913 l 371 836 l 378 822 l 389 772 l 392 767 l 394 742 l 408 674 l 408 665 l 414 656 l 418 628 l 422 614 l 426 564 l 426 550 l 440 482 l 449 418 l 464 344 l 468 333 l 471 315 l 478 301 l 499 194 l 517 140 l 521 106 l 517 97 l 517 53 l 511 39 l 499 39 l 490 35 l 478 35 l 474 32 l 469 38 l 456 42 l 449 35 l 447 28 l 428 39 l 421 26 l 406 33 l 393 22 l 376 22 l 363 35 l 351 64 l 325 150 l 313 150 l 308 146 l 278 136 l 204 122 l 200 46 l 194 25 l 190 -1 l 183 -26 l 179 -31 l 164 -31 l 149 -28 l 144 -32 l 132 -24 l 128 -25 l 125 -37 l 101 -25 l 89 -24 l 89 -32 l 79 -25 l 69 -32 l 60 -32 l 54 -36 l 47 -31 m 211 214 l 221 214 l 275 232 l 297 232 l 303 239 l 293 282 l 288 296 l 253 461 l 250 483 l 243 492 l 242 506 l 240 506 l 235 488 l 231 443 l 224 403 l 222 378 l 214 349 l 214 258 l 211 249 m 250 1039 l 176 1108 l 172 1108 l 157 1099 l 144 1075 l 133 1065 l 129 1063 l 124 1053 l 115 1044 l 94 1035 l 65 1038 l 54 1035 l 49 1039 l 47 1047 l 40 1047 l 44 1049 l 44 1094 l 46 1097 l 50 1118 l 61 1142 l 74 1154 l 100 1167 l 121 1169 l 156 1169 l 206 1156 l 244 1133 l 263 1113 l 283 1144 l 308 1164 l 321 1168 l 328 1164 l 342 1164 l 349 1157 l 360 1160 l 364 1158 l 371 1158 l 374 1149 l 382 1149 l 388 1146 l 389 1143 l 390 1142 l 399 1128 l 401 1126 l 399 1113 l 399 1103 l 396 1099 l 396 1093 l 389 1074 l 379 1060 l 363 1042 l 344 1035 l 335 1028 l 308 1022 l 289 1022 l 279 1025 "},"":{"ha":549,"x_min":0,"x_max":0,"o":"m 46 -15 l 33 4 l 28 107 l 31 144 l 32 275 l 63 575 l 63 604 l 103 822 l 115 867 l 124 883 l 124 904 l 128 918 l 142 925 l 156 929 l 161 936 l 175 940 l 185 947 l 214 951 l 249 967 l 272 960 l 303 953 l 319 940 l 326 938 l 342 913 l 371 836 l 378 822 l 389 772 l 392 767 l 394 742 l 408 674 l 408 665 l 414 656 l 418 628 l 422 614 l 426 564 l 426 550 l 440 482 l 449 418 l 464 344 l 468 333 l 471 315 l 478 301 l 499 194 l 517 140 l 521 106 l 517 97 l 517 53 l 511 39 l 499 39 l 490 35 l 478 35 l 474 32 l 469 38 l 456 42 l 449 35 l 447 28 l 428 39 l 421 26 l 406 33 l 393 22 l 376 22 l 363 35 l 351 64 l 325 150 l 313 150 l 308 146 l 278 136 l 204 122 l 200 46 l 194 25 l 190 -1 l 183 -26 l 179 -31 l 164 -31 l 149 -28 l 144 -32 l 132 -24 l 128 -25 l 125 -37 l 101 -25 l 89 -24 l 89 -32 l 79 -25 l 69 -32 l 60 -32 l 54 -36 l 47 -31 m 211 214 l 221 214 l 275 232 l 297 232 l 303 239 l 293 282 l 288 296 l 253 461 l 250 483 l 243 492 l 242 506 l 240 506 l 235 488 l 231 443 l 224 403 l 222 378 l 214 349 l 214 258 l 211 249 m 36 1038 l 15 1042 l 8 1050 l 8 1053 l 13 1057 l 15 1097 l 17 1101 l 19 1113 l 26 1119 l 46 1128 l 64 1132 l 81 1142 l 104 1142 l 124 1135 l 131 1126 l 132 1119 l 139 1115 l 142 1079 l 158 1063 l 158 1051 l 154 1046 l 151 1042 l 144 1039 l 142 1038 l 119 1031 l 117 1028 l 90 1017 l 71 1017 l 58 1021 m 283 1049 l 274 1049 l 258 1051 l 251 1058 l 250 1072 l 251 1110 l 254 1119 l 261 1128 l 267 1129 l 279 1136 l 301 1136 l 368 1131 l 397 1119 l 403 1110 l 400 1072 l 397 1064 l 396 1049 l 382 1028 l 358 1028 l 349 1022 l 332 1022 l 311 1026 "},"":{"ha":549,"x_min":0,"x_max":0,"o":"m 46 -15 l 33 4 l 28 107 l 31 144 l 32 275 l 63 575 l 63 604 l 103 822 l 115 867 l 124 883 l 124 904 l 128 918 l 142 925 l 156 929 l 161 936 l 175 940 l 185 947 l 214 951 l 249 967 l 272 960 l 303 953 l 319 940 l 326 938 l 342 913 l 371 836 l 378 822 l 389 772 l 392 767 l 394 742 l 408 674 l 408 665 l 414 656 l 418 628 l 422 614 l 426 564 l 426 550 l 440 482 l 449 418 l 464 344 l 468 333 l 471 315 l 478 301 l 499 194 l 517 140 l 521 106 l 517 97 l 517 53 l 511 39 l 499 39 l 490 35 l 478 35 l 474 32 l 469 38 l 456 42 l 449 35 l 447 28 l 428 39 l 421 26 l 406 33 l 393 22 l 376 22 l 363 35 l 351 64 l 325 150 l 313 150 l 308 146 l 278 136 l 204 122 l 200 46 l 194 25 l 190 -1 l 183 -26 l 179 -31 l 164 -31 l 149 -28 l 144 -32 l 132 -24 l 128 -25 l 125 -37 l 101 -25 l 89 -24 l 89 -32 l 79 -25 l 69 -32 l 60 -32 l 54 -36 l 47 -31 m 211 214 l 221 214 l 275 232 l 297 232 l 303 239 l 293 282 l 288 296 l 253 461 l 250 483 l 243 492 l 242 506 l 240 506 l 235 488 l 231 443 l 224 403 l 222 378 l 214 349 l 214 258 l 211 249 m 208 1040 l 196 1044 l 186 1051 l 167 1061 l 126 1090 l 111 1104 l 101 1122 l 99 1150 l 107 1171 l 113 1174 l 124 1192 l 121 1194 l 124 1196 l 133 1206 l 133 1211 l 139 1211 l 142 1217 l 146 1217 l 156 1224 l 168 1226 l 175 1231 l 201 1231 l 221 1225 l 225 1224 l 247 1221 l 263 1214 l 279 1210 l 285 1210 l 289 1208 l 296 1207 l 299 1204 l 308 1203 l 326 1193 l 336 1183 l 339 1179 l 351 1169 l 360 1147 l 363 1143 l 363 1124 l 365 1114 l 368 1113 l 363 1099 l 356 1089 l 353 1082 l 344 1075 l 343 1072 l 324 1057 l 311 1053 l 292 1043 l 261 1033 l 231 1033 l 215 1036 m 188 1088 l 211 1092 l 235 1104 l 240 1115 l 240 1126 l 244 1128 l 249 1138 l 249 1153 l 235 1178 l 228 1178 l 215 1168 l 213 1161 l 211 1158 l 211 1149 l 206 1146 l 193 1129 l 183 1106 l 182 1101 l 182 1092 "},"":{"ha":779,"x_min":0,"x_max":0,"o":"m 375 8 l 360 25 l 360 40 l 344 82 l 336 114 l 335 142 l 333 149 l 217 142 l 203 65 l 194 44 l 186 18 l 176 -7 l 171 -11 l 156 -11 l 142 -8 l 136 -12 l 125 -4 l 121 -6 l 117 -18 l 94 -6 l 82 -4 l 81 -12 l 72 -6 l 61 -12 l 53 -12 l 47 -17 l 40 -11 l 42 4 l 28 24 l 65 294 l 136 594 l 140 624 l 210 842 l 229 886 l 239 903 l 242 924 l 249 938 l 263 944 l 278 949 l 283 956 l 299 960 l 371 944 l 369 940 l 447 951 l 543 951 l 553 949 l 628 942 l 639 936 l 668 932 l 663 918 l 642 896 l 615 892 l 603 883 l 535 881 l 471 890 l 461 886 l 461 869 l 464 863 l 464 824 l 467 793 l 467 725 l 471 693 l 465 672 l 465 653 l 463 619 l 471 608 l 469 604 l 472 567 l 472 518 l 476 468 l 485 428 l 488 378 l 490 367 l 494 304 l 497 304 l 506 307 l 581 307 l 593 301 l 613 301 l 626 296 l 633 288 l 631 260 l 622 247 l 600 238 l 589 238 l 578 233 l 571 233 l 557 231 l 521 231 l 506 233 l 497 233 l 497 221 l 500 203 l 500 194 l 506 161 l 506 125 l 508 96 l 508 82 l 526 88 l 549 90 l 590 104 l 664 119 l 700 119 l 742 113 l 750 103 l 750 93 l 751 88 l 751 60 l 743 51 l 724 40 l 710 39 l 700 28 l 674 25 l 654 19 l 647 19 l 589 7 l 579 7 l 571 4 l 513 0 l 450 0 l 436 4 m 236 233 l 321 239 l 321 244 l 310 393 l 310 399 l 306 511 l 304 524 l 297 507 l 269 397 l 257 368 l 246 278 l 242 268 "},"":{"ha":497,"x_min":0,"x_max":0,"o":"m 144 -210 l 125 -197 l 108 -194 l 108 -189 l 139 -189 l 161 -193 l 175 -190 l 176 -186 l 183 -182 l 189 -175 l 203 -165 l 207 -158 l 221 -151 l 222 -150 l 236 -139 l 242 -136 l 250 -128 l 250 -111 l 243 -108 l 233 -97 l 229 -94 l 224 -89 l 215 -86 l 199 -65 l 174 -50 l 165 -31 l 168 -1 l 171 6 l 169 7 l 153 22 l 119 57 l 89 106 l 69 160 l 35 351 l 28 451 l 28 658 l 56 792 l 92 881 l 111 915 l 133 936 l 179 951 l 188 958 l 210 963 l 243 974 l 257 974 l 319 978 l 361 967 l 379 949 l 401 938 l 413 926 l 421 915 l 432 878 l 435 853 l 438 849 l 438 815 l 439 804 l 439 772 l 429 738 l 413 719 l 394 711 l 375 711 l 371 714 l 346 714 l 333 711 l 325 711 l 306 704 l 300 722 l 307 772 l 307 842 l 301 856 l 294 863 l 289 871 l 257 897 l 250 897 l 233 883 l 211 842 l 206 815 l 203 810 l 199 772 l 199 767 l 194 722 l 199 682 l 199 626 l 208 590 l 208 581 l 217 494 l 217 481 l 222 461 l 249 313 l 254 294 l 257 251 l 271 183 l 275 175 l 278 151 l 290 138 l 296 124 l 304 118 l 321 196 l 333 286 l 333 299 l 339 358 l 339 376 l 344 385 l 347 404 l 361 410 l 382 406 l 394 406 l 403 396 l 408 400 l 415 400 l 419 403 l 425 400 l 435 404 l 442 396 l 443 376 l 450 356 l 450 339 l 464 271 l 469 219 l 464 160 l 457 115 l 432 75 l 429 71 l 419 58 l 399 42 l 376 33 l 363 31 l 304 4 l 288 0 l 282 -15 l 279 -32 l 275 -39 l 275 -43 l 304 -50 l 343 -64 l 376 -89 l 382 -96 l 383 -104 l 388 -114 l 382 -140 l 356 -185 l 344 -187 l 332 -194 l 325 -194 l 314 -197 l 299 -197 l 275 -211 l 263 -222 l 261 -228 l 249 -232 l 194 -229 "},"":{"ha":515,"x_min":0,"x_max":0,"o":"m 111 25 l 96 42 l 96 57 l 81 99 l 72 131 l 71 158 l 57 261 l 46 410 l 46 415 l 40 560 l 38 574 l 38 879 l 28 888 l 28 901 l 42 919 l 47 936 l 79 954 l 183 968 l 279 968 l 289 965 l 364 958 l 375 953 l 404 949 l 399 935 l 378 913 l 351 908 l 339 900 l 271 897 l 207 907 l 197 903 l 197 886 l 200 879 l 200 840 l 203 810 l 203 742 l 208 703 l 242 706 l 250 708 l 325 708 l 338 703 l 357 703 l 371 697 l 378 689 l 375 661 l 367 649 l 344 639 l 333 639 l 322 635 l 315 635 l 301 632 l 265 632 l 250 635 l 244 635 l 229 639 l 211 639 l 208 626 l 206 621 l 208 583 l 208 535 l 213 485 l 221 444 l 224 394 l 226 383 l 232 310 l 232 279 l 233 264 l 233 238 l 236 219 l 236 211 l 242 178 l 242 142 l 244 113 l 244 99 l 263 104 l 285 107 l 326 121 l 400 136 l 436 136 l 478 129 l 486 119 l 486 110 l 488 104 l 488 76 l 479 68 l 460 57 l 446 56 l 436 44 l 410 42 l 390 36 l 383 36 l 325 24 l 315 24 l 307 21 l 249 17 l 186 17 l 172 21 m 247 1033 l 236 1031 l 222 1031 l 210 1038 l 196 1056 l 161 1092 l 122 1118 l 111 1129 l 108 1129 l 92 1147 l 81 1154 l 81 1158 l 85 1165 l 103 1169 l 125 1181 l 133 1188 l 144 1193 l 161 1204 l 179 1204 l 207 1197 l 224 1178 l 233 1164 l 235 1160 l 267 1108 l 268 1106 l 276 1093 l 286 1074 l 286 1063 l 276 1061 l 264 1054 "},"":{"ha":515,"x_min":0,"x_max":0,"o":"m 111 25 l 96 42 l 96 57 l 81 99 l 72 131 l 71 158 l 57 261 l 46 410 l 46 415 l 40 560 l 38 574 l 38 879 l 28 888 l 28 901 l 42 919 l 47 936 l 79 954 l 183 968 l 279 968 l 289 965 l 364 958 l 375 953 l 404 949 l 399 935 l 378 913 l 351 908 l 339 900 l 271 897 l 207 907 l 197 903 l 197 886 l 200 879 l 200 840 l 203 810 l 203 742 l 208 703 l 242 706 l 250 708 l 325 708 l 338 703 l 357 703 l 371 697 l 378 689 l 375 661 l 367 649 l 344 639 l 333 639 l 322 635 l 315 635 l 301 632 l 265 632 l 250 635 l 244 635 l 229 639 l 211 639 l 208 626 l 206 621 l 208 583 l 208 535 l 213 485 l 221 444 l 224 394 l 226 383 l 232 310 l 232 279 l 233 264 l 233 238 l 236 219 l 236 211 l 242 178 l 242 142 l 244 113 l 244 99 l 263 104 l 285 107 l 326 121 l 400 136 l 436 136 l 478 129 l 486 119 l 486 110 l 488 104 l 488 76 l 479 68 l 460 57 l 446 56 l 436 44 l 410 42 l 390 36 l 383 36 l 325 24 l 315 24 l 307 21 l 249 17 l 186 17 l 172 21 m 72 1057 l 60 1064 l 50 1065 l 50 1076 l 60 1096 l 68 1108 l 69 1111 l 101 1163 l 103 1167 l 113 1181 l 129 1200 l 157 1207 l 175 1207 l 192 1196 l 203 1190 l 211 1183 l 233 1172 l 251 1168 l 256 1161 l 256 1157 l 244 1150 l 228 1132 l 225 1132 l 214 1121 l 175 1094 l 140 1058 l 126 1040 l 114 1033 l 100 1033 l 89 1036 "},"":{"ha":515,"x_min":0,"x_max":0,"o":"m 111 25 l 96 42 l 96 57 l 81 99 l 72 131 l 71 158 l 57 261 l 46 410 l 46 415 l 40 560 l 38 574 l 38 879 l 28 888 l 28 901 l 42 919 l 47 936 l 79 954 l 183 968 l 279 968 l 289 965 l 364 958 l 375 953 l 404 949 l 399 935 l 378 913 l 351 908 l 339 900 l 271 897 l 207 907 l 197 903 l 197 886 l 200 879 l 200 840 l 203 810 l 203 742 l 208 703 l 242 706 l 250 708 l 325 708 l 338 703 l 357 703 l 371 697 l 378 689 l 375 661 l 367 649 l 344 639 l 333 639 l 322 635 l 315 635 l 301 632 l 265 632 l 250 635 l 244 635 l 229 639 l 211 639 l 208 626 l 206 621 l 208 583 l 208 535 l 213 485 l 221 444 l 224 394 l 226 383 l 232 310 l 232 279 l 233 264 l 233 238 l 236 219 l 236 211 l 242 178 l 242 142 l 244 113 l 244 99 l 263 104 l 285 107 l 326 121 l 400 136 l 436 136 l 478 129 l 486 119 l 486 110 l 488 104 l 488 76 l 479 68 l 460 57 l 446 56 l 436 44 l 410 42 l 390 36 l 383 36 l 325 24 l 315 24 l 307 21 l 249 17 l 186 17 l 172 21 m 40 1065 l 44 1085 l 54 1097 l 65 1115 l 106 1154 l 117 1158 l 147 1158 l 185 1161 l 206 1154 l 239 1135 l 251 1124 l 256 1118 l 278 1100 l 297 1088 l 300 1086 l 304 1081 l 310 1076 l 318 1067 l 318 1061 l 321 1053 l 315 1040 l 297 1033 l 292 1036 l 286 1036 l 281 1039 l 275 1039 l 269 1043 l 263 1043 l 250 1049 l 235 1051 l 226 1060 l 217 1063 l 213 1069 l 192 1086 l 172 1097 l 169 1097 l 165 1086 l 153 1067 l 135 1049 l 115 1039 l 86 1029 l 57 1029 l 49 1031 l 29 1026 l 29 1032 "},"":{"ha":515,"x_min":0,"x_max":0,"o":"m 111 25 l 96 42 l 96 57 l 81 99 l 72 131 l 71 158 l 57 261 l 46 410 l 46 415 l 40 560 l 38 574 l 38 879 l 28 888 l 28 901 l 42 919 l 47 936 l 79 954 l 183 968 l 279 968 l 289 965 l 364 958 l 375 953 l 404 949 l 399 935 l 378 913 l 351 908 l 339 900 l 271 897 l 207 907 l 197 903 l 197 886 l 200 879 l 200 840 l 203 810 l 203 742 l 208 703 l 242 706 l 250 708 l 325 708 l 338 703 l 357 703 l 371 697 l 378 689 l 375 661 l 367 649 l 344 639 l 333 639 l 322 635 l 315 635 l 301 632 l 265 632 l 250 635 l 244 635 l 229 639 l 211 639 l 208 626 l 206 621 l 208 583 l 208 535 l 213 485 l 221 444 l 224 394 l 226 383 l 232 310 l 232 279 l 233 264 l 233 238 l 236 219 l 236 211 l 242 178 l 242 142 l 244 113 l 244 99 l 263 104 l 285 107 l 326 121 l 400 136 l 436 136 l 478 129 l 486 119 l 486 110 l 488 104 l 488 76 l 479 68 l 460 57 l 446 56 l 436 44 l 410 42 l 390 36 l 383 36 l 325 24 l 315 24 l 307 21 l 249 17 l 186 17 l 172 21 m 3 1043 l -18 1047 l -25 1056 l -25 1058 l -21 1063 l -18 1103 l -17 1107 l -14 1118 l -7 1125 l 13 1133 l 31 1138 l 47 1147 l 71 1147 l 90 1140 l 97 1132 l 99 1125 l 106 1121 l 108 1085 l 125 1068 l 125 1057 l 121 1051 l 118 1047 l 111 1044 l 108 1043 l 86 1036 l 83 1033 l 57 1022 l 38 1022 l 25 1026 m 250 1054 l 240 1054 l 225 1057 l 218 1064 l 217 1078 l 218 1115 l 221 1125 l 228 1133 l 233 1135 l 246 1142 l 268 1142 l 335 1136 l 364 1125 l 369 1115 l 367 1078 l 364 1069 l 363 1054 l 349 1033 l 325 1033 l 315 1028 l 299 1028 l 278 1032 "},"":{"ha":246,"x_min":0,"x_max":0,"o":"m 44 35 l 29 261 l 32 269 l 32 679 l 28 722 l 40 846 l 46 858 l 51 879 l 68 890 l 86 900 l 111 900 l 125 901 l 161 900 l 167 897 l 189 892 l 204 874 l 214 856 l 213 817 l 207 792 l 206 765 l 203 743 l 210 614 l 213 599 l 211 590 l 214 572 l 213 538 l 215 529 l 210 393 l 213 335 l 210 318 l 211 299 l 210 243 l 215 188 l 215 165 l 217 153 l 218 51 l 215 21 l 201 14 l 197 10 l 181 10 l 164 -7 l 154 -7 l 128 4 l 103 1 l 82 -11 l 71 -11 l 63 -1 m 189 983 l 178 981 l 164 981 l 151 988 l 138 1006 l 103 1042 l 64 1068 l 53 1079 l 50 1079 l 33 1097 l 22 1104 l 22 1108 l 26 1115 l 44 1119 l 67 1131 l 75 1138 l 86 1143 l 103 1154 l 121 1154 l 149 1147 l 165 1128 l 175 1114 l 176 1110 l 208 1058 l 210 1056 l 218 1043 l 228 1024 l 228 1013 l 218 1011 l 206 1004 "},"":{"ha":246,"x_min":0,"x_max":0,"o":"m 44 35 l 29 261 l 32 269 l 32 679 l 28 722 l 40 846 l 46 858 l 51 879 l 68 890 l 86 900 l 111 900 l 125 901 l 161 900 l 167 897 l 189 892 l 204 874 l 214 856 l 213 817 l 207 792 l 206 765 l 203 743 l 210 614 l 213 599 l 211 590 l 214 572 l 213 538 l 215 529 l 210 393 l 213 335 l 210 318 l 211 299 l 210 243 l 215 188 l 215 165 l 217 153 l 218 51 l 215 21 l 201 14 l 197 10 l 181 10 l 164 -7 l 154 -7 l 128 4 l 103 1 l 82 -11 l 71 -11 l 63 -1 m 14 1007 l 1 1014 l -8 1015 l -8 1026 l 1 1046 l 10 1058 l 11 1061 l 43 1113 l 44 1117 l 54 1131 l 71 1150 l 99 1157 l 117 1157 l 133 1146 l 144 1140 l 153 1133 l 175 1122 l 193 1118 l 197 1111 l 197 1107 l 186 1100 l 169 1082 l 167 1082 l 156 1071 l 117 1044 l 82 1008 l 68 990 l 56 983 l 42 983 l 31 986 "},"":{"ha":246,"x_min":0,"x_max":0,"o":"m 44 35 l 29 261 l 32 269 l 32 679 l 28 722 l 40 846 l 46 858 l 51 879 l 68 890 l 86 900 l 111 900 l 125 901 l 161 900 l 167 897 l 189 892 l 204 874 l 214 856 l 213 817 l 207 792 l 206 765 l 203 743 l 210 614 l 213 599 l 211 590 l 214 572 l 213 538 l 215 529 l 210 393 l 213 335 l 210 318 l 211 299 l 210 243 l 215 188 l 215 165 l 217 153 l 218 51 l 215 21 l 201 14 l 197 10 l 181 10 l 164 -7 l 154 -7 l 128 4 l 103 1 l 82 -11 l 71 -11 l 63 -1 m -18 1015 l -14 1035 l -4 1047 l 7 1065 l 47 1104 l 58 1108 l 89 1108 l 126 1111 l 147 1104 l 181 1085 l 193 1074 l 197 1068 l 219 1050 l 239 1038 l 242 1036 l 246 1031 l 251 1026 l 260 1017 l 260 1011 l 263 1003 l 257 990 l 239 983 l 233 986 l 228 986 l 222 989 l 217 989 l 211 993 l 204 993 l 192 999 l 176 1001 l 168 1010 l 158 1013 l 154 1019 l 133 1036 l 114 1047 l 111 1047 l 107 1036 l 94 1017 l 76 999 l 57 989 l 28 979 l -1 979 l -10 981 l -29 976 l -29 982 "},"":{"ha":246,"x_min":0,"x_max":0,"o":"m 44 35 l 29 261 l 32 269 l 32 679 l 28 722 l 40 846 l 46 858 l 51 879 l 68 890 l 86 900 l 111 900 l 125 901 l 161 900 l 167 897 l 189 892 l 204 874 l 214 856 l 213 817 l 207 792 l 206 765 l 203 743 l 210 614 l 213 599 l 211 590 l 214 572 l 213 538 l 215 529 l 210 393 l 213 335 l 210 318 l 211 299 l 210 243 l 215 188 l 215 165 l 217 153 l 218 51 l 215 21 l 201 14 l 197 10 l 181 10 l 164 -7 l 154 -7 l 128 4 l 103 1 l 82 -11 l 71 -11 l 63 -1 m -56 993 l -76 997 l -83 1006 l -83 1008 l -79 1013 l -76 1053 l -75 1057 l -72 1068 l -65 1075 l -46 1083 l -28 1088 l -11 1097 l 13 1097 l 32 1090 l 39 1082 l 40 1075 l 47 1071 l 50 1035 l 67 1018 l 67 1007 l 63 1001 l 60 997 l 53 994 l 50 993 l 28 986 l 25 983 l -1 972 l -21 972 l -33 976 m 192 1004 l 182 1004 l 167 1007 l 160 1014 l 158 1028 l 160 1065 l 163 1075 l 169 1083 l 175 1085 l 188 1092 l 210 1092 l 276 1086 l 306 1075 l 311 1065 l 308 1028 l 306 1019 l 304 1004 l 290 983 l 267 983 l 257 978 l 240 978 l 219 982 "},"":{"ha":632,"x_min":0,"x_max":0,"o":"m 410 -8 l 400 7 l 392 26 l 372 61 l 343 126 l 261 346 l 235 435 l 228 443 l 225 443 l 215 450 l 219 381 l 217 322 l 221 275 l 221 264 l 224 247 l 222 219 l 225 165 l 229 144 l 225 26 l 215 15 l 175 13 l 172 1 l 153 6 l 128 17 l 94 15 l 79 7 l 71 8 l 60 21 l 44 64 l 32 511 l 28 532 l 39 856 l 44 908 l 75 933 l 108 935 l 138 938 l 154 943 l 174 942 l 190 935 l 196 929 l 211 921 l 225 900 l 229 885 l 235 872 l 238 856 l 256 838 l 264 817 l 272 804 l 282 781 l 311 738 l 329 686 l 347 646 l 350 631 l 358 615 l 375 556 l 381 549 l 411 825 l 421 872 l 428 886 l 439 921 l 451 933 l 479 946 l 521 956 l 533 964 l 544 958 l 563 967 l 574 975 l 583 975 l 590 972 l 604 938 l 589 896 l 586 868 l 582 851 l 568 732 l 567 703 l 564 689 l 561 615 l 563 582 l 557 432 l 563 401 l 556 251 l 572 40 l 569 18 l 554 -14 l 538 -12 l 529 -8 l 518 -21 l 510 -24 l 482 -7 l 457 -10 l 446 -10 l 428 -26 l 418 -25 m 347 1008 l 274 1078 l 269 1078 l 254 1068 l 242 1044 l 231 1035 l 226 1032 l 221 1022 l 213 1014 l 192 1004 l 163 1007 l 151 1004 l 146 1008 l 144 1017 l 138 1017 l 142 1018 l 142 1064 l 143 1067 l 147 1088 l 158 1111 l 171 1124 l 197 1136 l 218 1139 l 253 1139 l 303 1125 l 342 1103 l 360 1082 l 381 1114 l 406 1133 l 418 1138 l 425 1133 l 439 1133 l 446 1126 l 457 1129 l 461 1128 l 468 1128 l 471 1118 l 479 1118 l 485 1115 l 486 1113 l 488 1111 l 496 1097 l 499 1096 l 496 1082 l 496 1072 l 493 1068 l 493 1063 l 486 1043 l 476 1029 l 460 1011 l 442 1004 l 432 997 l 406 992 l 386 992 l 376 994 "},"":{"ha":619,"x_min":0,"x_max":0,"o":"m 153 43 l 115 82 l 74 161 l 40 250 l 31 304 l 28 422 l 31 449 l 33 514 l 39 551 l 39 558 l 51 626 l 78 729 l 108 807 l 188 921 l 192 931 l 208 935 l 218 940 l 229 940 l 238 944 l 249 947 l 253 950 l 292 960 l 358 965 l 378 968 l 388 964 l 403 964 l 415 958 l 450 965 l 472 964 l 476 967 l 489 967 l 508 958 l 542 928 l 551 914 l 558 882 l 567 810 l 579 783 l 583 739 l 581 660 l 583 647 l 582 613 l 588 504 l 582 464 l 583 426 l 592 418 l 589 356 l 576 311 l 576 303 l 574 293 l 572 271 l 567 256 l 564 235 l 561 229 l 556 194 l 535 146 l 513 104 l 510 94 l 479 54 l 453 36 l 424 22 l 383 18 l 372 13 l 344 14 l 332 10 l 294 8 l 274 -1 l 231 0 l 199 13 m 342 128 l 347 133 l 369 193 l 407 447 l 407 658 l 408 668 l 407 706 l 413 721 l 413 736 l 408 750 l 408 765 l 404 801 l 394 828 l 376 851 l 364 860 l 356 860 l 335 853 l 333 853 l 307 828 l 303 821 l 289 810 l 276 779 l 261 753 l 239 693 l 233 651 l 225 607 l 219 593 l 222 546 l 225 539 l 224 532 l 232 390 l 239 364 l 239 350 l 243 339 l 249 315 l 251 311 l 263 275 l 265 257 l 274 231 l 313 165 l 314 154 l 331 139 l 333 133 m 404 736 l 407 736 l 407 731 l 404 733 m 417 1033 l 406 1031 l 392 1031 l 379 1038 l 365 1056 l 331 1092 l 292 1118 l 281 1129 l 278 1129 l 261 1147 l 250 1154 l 250 1158 l 254 1165 l 272 1169 l 294 1181 l 303 1188 l 314 1193 l 331 1204 l 349 1204 l 376 1197 l 393 1178 l 403 1164 l 404 1160 l 436 1108 l 438 1106 l 446 1093 l 456 1074 l 456 1063 l 446 1061 l 433 1054 "},"":{"ha":619,"x_min":0,"x_max":0,"o":"m 153 43 l 115 82 l 74 161 l 40 250 l 31 304 l 28 422 l 31 449 l 33 514 l 39 551 l 39 558 l 51 626 l 78 729 l 108 807 l 188 921 l 192 931 l 208 935 l 218 940 l 229 940 l 238 944 l 249 947 l 253 950 l 292 960 l 358 965 l 378 968 l 388 964 l 403 964 l 415 958 l 450 965 l 472 964 l 476 967 l 489 967 l 508 958 l 542 928 l 551 914 l 558 882 l 567 810 l 579 783 l 583 739 l 581 660 l 583 647 l 582 613 l 588 504 l 582 464 l 583 426 l 592 418 l 589 356 l 576 311 l 576 303 l 574 293 l 572 271 l 567 256 l 564 235 l 561 229 l 556 194 l 535 146 l 513 104 l 510 94 l 479 54 l 453 36 l 424 22 l 383 18 l 372 13 l 344 14 l 332 10 l 294 8 l 274 -1 l 231 0 l 199 13 m 342 128 l 347 133 l 369 193 l 407 447 l 407 658 l 408 668 l 407 706 l 413 721 l 413 736 l 408 750 l 408 765 l 404 801 l 394 828 l 376 851 l 364 860 l 356 860 l 335 853 l 333 853 l 307 828 l 303 821 l 289 810 l 276 779 l 261 753 l 239 693 l 233 651 l 225 607 l 219 593 l 222 546 l 225 539 l 224 532 l 232 390 l 239 364 l 239 350 l 243 339 l 249 315 l 251 311 l 263 275 l 265 257 l 274 231 l 313 165 l 314 154 l 331 139 l 333 133 m 404 736 l 407 736 l 407 731 l 404 733 m 242 1057 l 229 1064 l 219 1065 l 219 1076 l 229 1096 l 238 1108 l 239 1111 l 271 1163 l 272 1167 l 282 1181 l 299 1200 l 326 1207 l 344 1207 l 361 1196 l 372 1190 l 381 1183 l 403 1172 l 421 1168 l 425 1161 l 425 1157 l 414 1150 l 397 1132 l 394 1132 l 383 1121 l 344 1094 l 310 1058 l 296 1040 l 283 1033 l 269 1033 l 258 1036 "},"":{"ha":619,"x_min":0,"x_max":0,"o":"m 153 43 l 115 82 l 74 161 l 40 250 l 31 304 l 28 422 l 31 449 l 33 514 l 39 551 l 39 558 l 51 626 l 78 729 l 108 807 l 188 921 l 192 931 l 208 935 l 218 940 l 229 940 l 238 944 l 249 947 l 253 950 l 292 960 l 358 965 l 378 968 l 388 964 l 403 964 l 415 958 l 450 965 l 472 964 l 476 967 l 489 967 l 508 958 l 542 928 l 551 914 l 558 882 l 567 810 l 579 783 l 583 739 l 581 660 l 583 647 l 582 613 l 588 504 l 582 464 l 583 426 l 592 418 l 589 356 l 576 311 l 576 303 l 574 293 l 572 271 l 567 256 l 564 235 l 561 229 l 556 194 l 535 146 l 513 104 l 510 94 l 479 54 l 453 36 l 424 22 l 383 18 l 372 13 l 344 14 l 332 10 l 294 8 l 274 -1 l 231 0 l 199 13 m 342 128 l 347 133 l 369 193 l 407 447 l 407 658 l 408 668 l 407 706 l 413 721 l 413 736 l 408 750 l 408 765 l 404 801 l 394 828 l 376 851 l 364 860 l 356 860 l 335 853 l 333 853 l 307 828 l 303 821 l 289 810 l 276 779 l 261 753 l 239 693 l 233 651 l 225 607 l 219 593 l 222 546 l 225 539 l 224 532 l 232 390 l 239 364 l 239 350 l 243 339 l 249 315 l 251 311 l 263 275 l 265 257 l 274 231 l 313 165 l 314 154 l 331 139 l 333 133 m 404 736 l 407 736 l 407 731 l 404 733 m 210 1065 l 214 1085 l 224 1097 l 235 1115 l 275 1154 l 286 1158 l 317 1158 l 354 1161 l 375 1154 l 408 1135 l 421 1124 l 425 1118 l 447 1100 l 467 1088 l 469 1086 l 474 1081 l 479 1076 l 488 1067 l 488 1061 l 490 1053 l 485 1040 l 467 1033 l 461 1036 l 456 1036 l 450 1039 l 444 1039 l 439 1043 l 432 1043 l 419 1049 l 404 1051 l 396 1060 l 386 1063 l 382 1069 l 361 1086 l 342 1097 l 339 1097 l 335 1086 l 322 1067 l 304 1049 l 285 1039 l 256 1029 l 226 1029 l 218 1031 l 199 1026 l 199 1032 "},"":{"ha":619,"x_min":0,"x_max":0,"o":"m 153 43 l 115 82 l 74 161 l 40 250 l 31 304 l 28 422 l 31 449 l 33 514 l 39 551 l 39 558 l 51 626 l 78 729 l 108 807 l 188 921 l 192 931 l 208 935 l 218 940 l 229 940 l 238 944 l 249 947 l 253 950 l 292 960 l 358 965 l 378 968 l 388 964 l 403 964 l 415 958 l 450 965 l 472 964 l 476 967 l 489 967 l 508 958 l 542 928 l 551 914 l 558 882 l 567 810 l 579 783 l 583 739 l 581 660 l 583 647 l 582 613 l 588 504 l 582 464 l 583 426 l 592 418 l 589 356 l 576 311 l 576 303 l 574 293 l 572 271 l 567 256 l 564 235 l 561 229 l 556 194 l 535 146 l 513 104 l 510 94 l 479 54 l 453 36 l 424 22 l 383 18 l 372 13 l 344 14 l 332 10 l 294 8 l 274 -1 l 231 0 l 199 13 m 342 128 l 347 133 l 369 193 l 407 447 l 407 658 l 408 668 l 407 706 l 413 721 l 413 736 l 408 750 l 408 765 l 404 801 l 394 828 l 376 851 l 364 860 l 356 860 l 335 853 l 333 853 l 307 828 l 303 821 l 289 810 l 276 779 l 261 753 l 239 693 l 233 651 l 225 607 l 219 593 l 222 546 l 225 539 l 224 532 l 232 390 l 239 364 l 239 350 l 243 339 l 249 315 l 251 311 l 263 275 l 265 257 l 274 231 l 313 165 l 314 154 l 331 139 l 333 133 m 404 736 l 407 736 l 407 731 l 404 733 m 386 1044 l 313 1114 l 308 1114 l 293 1104 l 281 1081 l 269 1071 l 265 1068 l 260 1058 l 251 1050 l 231 1040 l 201 1043 l 190 1040 l 185 1044 l 183 1053 l 176 1053 l 181 1054 l 181 1100 l 182 1103 l 186 1124 l 197 1147 l 210 1160 l 236 1172 l 257 1175 l 292 1175 l 342 1161 l 381 1139 l 399 1118 l 419 1150 l 444 1169 l 457 1174 l 464 1169 l 478 1169 l 485 1163 l 496 1165 l 500 1164 l 507 1164 l 510 1154 l 518 1154 l 524 1151 l 525 1149 l 526 1147 l 535 1133 l 538 1132 l 535 1118 l 535 1108 l 532 1104 l 532 1099 l 525 1079 l 515 1065 l 499 1047 l 481 1040 l 471 1033 l 444 1028 l 425 1028 l 415 1031 "},"":{"ha":619,"x_min":0,"x_max":0,"o":"m 153 43 l 115 82 l 74 161 l 40 250 l 31 304 l 28 422 l 31 449 l 33 514 l 39 551 l 39 558 l 51 626 l 78 729 l 108 807 l 188 921 l 192 931 l 208 935 l 218 940 l 229 940 l 238 944 l 249 947 l 253 950 l 292 960 l 358 965 l 378 968 l 388 964 l 403 964 l 415 958 l 450 965 l 472 964 l 476 967 l 489 967 l 508 958 l 542 928 l 551 914 l 558 882 l 567 810 l 579 783 l 583 739 l 581 660 l 583 647 l 582 613 l 588 504 l 582 464 l 583 426 l 592 418 l 589 356 l 576 311 l 576 303 l 574 293 l 572 271 l 567 256 l 564 235 l 561 229 l 556 194 l 535 146 l 513 104 l 510 94 l 479 54 l 453 36 l 424 22 l 383 18 l 372 13 l 344 14 l 332 10 l 294 8 l 274 -1 l 231 0 l 199 13 m 342 128 l 347 133 l 369 193 l 407 447 l 407 658 l 408 668 l 407 706 l 413 721 l 413 736 l 408 750 l 408 765 l 404 801 l 394 828 l 376 851 l 364 860 l 356 860 l 335 853 l 333 853 l 307 828 l 303 821 l 289 810 l 276 779 l 261 753 l 239 693 l 233 651 l 225 607 l 219 593 l 222 546 l 225 539 l 224 532 l 232 390 l 239 364 l 239 350 l 243 339 l 249 315 l 251 311 l 263 275 l 265 257 l 274 231 l 313 165 l 314 154 l 331 139 l 333 133 m 404 736 l 407 736 l 407 731 l 404 733 m 172 1043 l 151 1047 l 144 1056 l 144 1058 l 149 1063 l 151 1103 l 153 1107 l 156 1118 l 163 1125 l 182 1133 l 200 1138 l 217 1147 l 240 1147 l 260 1140 l 267 1132 l 268 1125 l 275 1121 l 278 1085 l 294 1068 l 294 1057 l 290 1051 l 288 1047 l 281 1044 l 278 1043 l 256 1036 l 253 1033 l 226 1022 l 207 1022 l 194 1026 m 419 1054 l 410 1054 l 394 1057 l 388 1064 l 386 1078 l 388 1115 l 390 1125 l 397 1133 l 403 1135 l 415 1142 l 438 1142 l 504 1136 l 533 1125 l 539 1115 l 536 1078 l 533 1069 l 532 1054 l 518 1033 l 494 1033 l 485 1028 l 468 1028 l 447 1032 "},"":{"ha":619,"x_min":0,"x_max":0,"o":"m 153 43 l 115 82 l 74 161 l 40 250 l 31 304 l 28 422 l 31 449 l 33 514 l 39 551 l 39 558 l 51 626 l 78 729 l 108 807 l 188 921 l 192 931 l 208 935 l 218 940 l 229 940 l 238 944 l 249 947 l 253 950 l 292 960 l 358 965 l 378 968 l 388 964 l 403 964 l 415 958 l 450 965 l 472 964 l 476 967 l 489 967 l 508 958 l 542 928 l 551 914 l 558 882 l 567 810 l 579 783 l 583 739 l 581 660 l 583 647 l 582 613 l 588 504 l 582 464 l 583 426 l 592 418 l 589 356 l 576 311 l 576 303 l 574 293 l 572 271 l 567 256 l 564 235 l 561 229 l 556 194 l 535 146 l 513 104 l 510 94 l 479 54 l 453 36 l 424 22 l 383 18 l 372 13 l 344 14 l 332 10 l 294 8 l 274 -1 l 231 0 l 199 13 m 239 364 l 253 407 l 254 411 l 260 433 l 374 751 l 400 811 l 394 828 l 376 851 l 364 860 l 356 860 l 335 853 l 333 853 l 307 828 l 303 821 l 289 810 l 276 779 l 261 753 l 239 693 l 233 651 l 225 607 l 219 593 l 222 546 l 225 539 l 224 532 l 232 390 m 342 128 l 347 133 l 369 193 l 407 447 l 407 600 l 406 597 l 397 561 l 386 529 l 374 503 l 371 492 l 369 488 l 364 472 l 361 468 l 349 432 l 338 414 l 328 388 l 299 293 l 292 283 l 282 247 l 274 231 l 313 165 l 314 154 l 331 139 l 333 133 "},"":{"ha":643,"x_min":0,"x_max":0,"o":"m 182 42 l 158 61 l 128 93 l 86 157 l 61 222 l 39 311 l 28 414 l 29 661 l 39 733 l 43 743 l 58 836 l 74 894 l 78 921 l 97 936 l 119 946 l 156 939 l 185 925 l 196 906 l 197 889 l 203 872 l 208 846 l 217 831 l 221 794 l 228 774 l 251 424 l 257 397 l 260 310 l 264 274 l 268 265 l 269 250 l 281 218 l 283 186 l 297 160 l 315 138 l 338 192 l 349 250 l 386 608 l 386 663 l 394 757 l 393 792 l 397 803 l 397 824 l 392 838 l 393 853 l 396 858 l 397 907 l 419 925 l 425 932 l 497 926 l 507 931 l 561 918 l 579 910 l 603 908 l 610 893 l 615 799 l 608 704 l 597 672 l 594 621 l 581 506 l 581 500 l 575 485 l 571 460 l 565 446 l 560 422 l 554 411 l 547 382 l 547 367 l 543 356 l 543 328 l 526 258 l 500 189 l 494 156 l 481 132 l 471 103 l 446 81 l 425 67 l 338 32 l 279 25 l 217 25 m 375 994 l 364 992 l 350 992 l 338 999 l 324 1017 l 289 1053 l 250 1079 l 239 1090 l 236 1090 l 219 1108 l 208 1115 l 208 1119 l 213 1126 l 231 1131 l 253 1142 l 261 1149 l 272 1154 l 289 1165 l 307 1165 l 335 1158 l 351 1139 l 361 1125 l 363 1121 l 394 1069 l 396 1067 l 404 1054 l 414 1035 l 414 1024 l 404 1022 l 392 1015 "},"":{"ha":643,"x_min":0,"x_max":0,"o":"m 182 42 l 158 61 l 128 93 l 86 157 l 61 222 l 39 311 l 28 414 l 29 661 l 39 733 l 43 743 l 58 836 l 74 894 l 78 921 l 97 936 l 119 946 l 156 939 l 185 925 l 196 906 l 197 889 l 203 872 l 208 846 l 217 831 l 221 794 l 228 774 l 251 424 l 257 397 l 260 310 l 264 274 l 268 265 l 269 250 l 281 218 l 283 186 l 297 160 l 315 138 l 338 192 l 349 250 l 386 608 l 386 663 l 394 757 l 393 792 l 397 803 l 397 824 l 392 838 l 393 853 l 396 858 l 397 907 l 419 925 l 425 932 l 497 926 l 507 931 l 561 918 l 579 910 l 603 908 l 610 893 l 615 799 l 608 704 l 597 672 l 594 621 l 581 506 l 581 500 l 575 485 l 571 460 l 565 446 l 560 422 l 554 411 l 547 382 l 547 367 l 543 356 l 543 328 l 526 258 l 500 189 l 494 156 l 481 132 l 471 103 l 446 81 l 425 67 l 338 32 l 279 25 l 217 25 m 200 1018 l 188 1025 l 178 1026 l 178 1038 l 188 1057 l 196 1069 l 197 1072 l 229 1124 l 231 1128 l 240 1142 l 257 1161 l 285 1168 l 303 1168 l 319 1157 l 331 1151 l 339 1144 l 361 1133 l 379 1129 l 383 1122 l 383 1118 l 372 1111 l 356 1093 l 353 1093 l 342 1082 l 303 1056 l 268 1019 l 254 1001 l 242 994 l 228 994 l 217 997 "},"":{"ha":643,"x_min":0,"x_max":0,"o":"m 182 42 l 158 61 l 128 93 l 86 157 l 61 222 l 39 311 l 28 414 l 29 661 l 39 733 l 43 743 l 58 836 l 74 894 l 78 921 l 97 936 l 119 946 l 156 939 l 185 925 l 196 906 l 197 889 l 203 872 l 208 846 l 217 831 l 221 794 l 228 774 l 251 424 l 257 397 l 260 310 l 264 274 l 268 265 l 269 250 l 281 218 l 283 186 l 297 160 l 315 138 l 338 192 l 349 250 l 386 608 l 386 663 l 394 757 l 393 792 l 397 803 l 397 824 l 392 838 l 393 853 l 396 858 l 397 907 l 419 925 l 425 932 l 497 926 l 507 931 l 561 918 l 579 910 l 603 908 l 610 893 l 615 799 l 608 704 l 597 672 l 594 621 l 581 506 l 581 500 l 575 485 l 571 460 l 565 446 l 560 422 l 554 411 l 547 382 l 547 367 l 543 356 l 543 328 l 526 258 l 500 189 l 494 156 l 481 132 l 471 103 l 446 81 l 425 67 l 338 32 l 279 25 l 217 25 m 168 1026 l 172 1046 l 182 1058 l 193 1076 l 233 1115 l 244 1119 l 275 1119 l 313 1122 l 333 1115 l 367 1096 l 379 1085 l 383 1079 l 406 1061 l 425 1049 l 428 1047 l 432 1042 l 438 1038 l 446 1028 l 446 1022 l 449 1014 l 443 1001 l 425 994 l 419 997 l 414 997 l 408 1000 l 403 1000 l 397 1004 l 390 1004 l 378 1010 l 363 1013 l 354 1021 l 344 1024 l 340 1031 l 319 1047 l 300 1058 l 297 1058 l 293 1047 l 281 1028 l 263 1010 l 243 1000 l 214 990 l 185 990 l 176 992 l 157 988 l 157 993 "},"":{"ha":643,"x_min":0,"x_max":0,"o":"m 182 42 l 158 61 l 128 93 l 86 157 l 61 222 l 39 311 l 28 414 l 29 661 l 39 733 l 43 743 l 58 836 l 74 894 l 78 921 l 97 936 l 119 946 l 156 939 l 185 925 l 196 906 l 197 889 l 203 872 l 208 846 l 217 831 l 221 794 l 228 774 l 251 424 l 257 397 l 260 310 l 264 274 l 268 265 l 269 250 l 281 218 l 283 186 l 297 160 l 315 138 l 338 192 l 349 250 l 386 608 l 386 663 l 394 757 l 393 792 l 397 803 l 397 824 l 392 838 l 393 853 l 396 858 l 397 907 l 419 925 l 425 932 l 497 926 l 507 931 l 561 918 l 579 910 l 603 908 l 610 893 l 615 799 l 608 704 l 597 672 l 594 621 l 581 506 l 581 500 l 575 485 l 571 460 l 565 446 l 560 422 l 554 411 l 547 382 l 547 367 l 543 356 l 543 328 l 526 258 l 500 189 l 494 156 l 481 132 l 471 103 l 446 81 l 425 67 l 338 32 l 279 25 l 217 25 m 131 1004 l 110 1008 l 103 1017 l 103 1019 l 107 1024 l 110 1064 l 111 1068 l 114 1079 l 121 1086 l 140 1094 l 158 1099 l 175 1108 l 199 1108 l 218 1101 l 225 1093 l 226 1086 l 233 1082 l 236 1046 l 253 1029 l 253 1018 l 249 1013 l 246 1008 l 239 1006 l 236 1004 l 214 997 l 211 994 l 185 983 l 165 983 l 153 988 m 378 1015 l 368 1015 l 353 1018 l 346 1025 l 344 1039 l 346 1076 l 349 1086 l 356 1094 l 361 1096 l 374 1103 l 396 1103 l 463 1097 l 492 1086 l 497 1076 l 494 1039 l 492 1031 l 490 1015 l 476 994 l 453 994 l 443 989 l 426 989 l 406 993 "},"":{"ha":558,"x_min":0,"x_max":0,"o":"m 244 72 l 247 72 l 244 60 l 256 32 l 242 11 l 229 13 l 200 10 l 174 14 l 167 13 l 154 13 l 133 22 l 124 15 l 128 8 l 90 14 l 90 24 l 74 38 l 69 54 l 69 65 l 64 74 l 64 82 l 33 315 l 32 542 l 28 551 l 32 590 l 29 597 l 29 692 l 32 718 l 32 746 l 39 813 l 86 917 l 144 971 l 218 989 l 371 988 l 403 979 l 407 976 l 422 969 l 435 960 l 443 956 l 464 940 l 489 908 l 499 874 l 503 846 l 503 814 l 496 772 l 490 749 l 482 732 l 482 715 l 436 613 l 426 601 l 425 594 l 424 590 l 415 575 l 407 565 l 403 557 l 403 549 l 435 532 l 460 511 l 494 468 l 503 447 l 525 375 l 525 360 l 522 349 l 525 300 l 528 288 l 525 263 l 528 246 l 522 176 l 531 158 l 526 106 l 519 93 l 501 75 l 488 67 l 481 60 l 432 32 l 421 28 l 417 25 l 385 33 l 371 50 l 372 103 l 397 142 l 397 171 l 381 239 l 360 278 l 358 285 l 356 289 l 325 389 l 315 408 l 315 428 l 321 461 l 318 497 l 288 539 l 279 558 l 279 611 l 310 658 l 332 711 l 343 778 l 336 881 l 333 892 l 315 913 l 247 917 l 228 900 l 229 860 l 224 808 l 228 713 l 225 681 l 225 643 l 222 636 l 222 608 l 219 593 l 225 488 l 225 449 l 228 429 l 228 404 l 225 385 l 225 303 l 228 286 l 228 282 l 229 246 l 232 233 l 232 215 l 244 82 "},"":{"ha":538,"x_min":0,"x_max":0,"o":"m 394 -21 l 376 -14 l 367 -19 l 349 -11 l 340 -3 l 339 3 l 326 19 l 319 38 l 319 47 l 318 51 l 314 69 l 279 61 l 243 58 l 167 58 l 128 67 l 88 71 l 71 81 l 68 82 l 53 92 l 39 115 l 28 144 l 28 189 l 32 203 l 60 254 l 110 308 l 165 343 l 217 379 l 244 390 l 249 393 l 272 399 l 272 444 l 267 513 l 258 542 l 244 525 l 242 519 l 203 483 l 178 468 l 171 467 l 167 464 l 151 461 l 146 458 l 92 451 l 78 438 l 57 443 l 50 447 l 50 469 l 67 506 l 108 564 l 140 596 l 183 631 l 290 676 l 356 676 l 383 667 l 390 663 l 393 660 l 414 647 l 436 619 l 454 575 l 454 564 l 460 522 l 472 461 l 472 439 l 476 421 l 482 408 l 482 378 l 488 343 l 488 332 l 490 319 l 500 207 l 500 189 l 503 176 l 503 107 l 506 90 l 506 56 l 508 33 l 508 29 l 510 18 l 510 0 l 508 -3 l 506 -14 l 496 -14 l 496 -7 l 501 1 l 497 6 l 489 3 l 475 6 l 456 -8 l 456 -14 l 454 -21 l 442 -11 l 436 -18 l 436 -24 l 410 -24 l 403 -21 m 164 114 l 197 114 l 211 118 l 222 119 l 261 131 l 297 149 l 289 192 l 278 314 l 261 306 l 251 294 l 232 282 l 218 265 l 197 249 l 158 197 l 147 164 l 147 140 l 153 121 m 494 32 l 494 35 l 492 35 l 492 33 m 356 750 l 344 747 l 331 747 l 318 754 l 304 772 l 269 808 l 231 835 l 219 846 l 217 846 l 200 864 l 189 871 l 189 875 l 193 882 l 211 886 l 233 897 l 242 904 l 253 910 l 269 921 l 288 921 l 315 914 l 332 894 l 342 881 l 343 876 l 375 825 l 376 822 l 385 810 l 394 790 l 394 779 l 385 778 l 372 771 "},"":{"ha":538,"x_min":0,"x_max":0,"o":"m 394 -21 l 376 -14 l 367 -19 l 349 -11 l 340 -3 l 339 3 l 326 19 l 319 38 l 319 47 l 318 51 l 314 69 l 279 61 l 243 58 l 167 58 l 128 67 l 88 71 l 71 81 l 68 82 l 53 92 l 39 115 l 28 144 l 28 189 l 32 203 l 60 254 l 110 308 l 165 343 l 217 379 l 244 390 l 249 393 l 272 399 l 272 444 l 267 513 l 258 542 l 244 525 l 242 519 l 203 483 l 178 468 l 171 467 l 167 464 l 151 461 l 146 458 l 92 451 l 78 438 l 57 443 l 50 447 l 50 469 l 67 506 l 108 564 l 140 596 l 183 631 l 290 676 l 356 676 l 383 667 l 390 663 l 393 660 l 414 647 l 436 619 l 454 575 l 454 564 l 460 522 l 472 461 l 472 439 l 476 421 l 482 408 l 482 378 l 488 343 l 488 332 l 490 319 l 500 207 l 500 189 l 503 176 l 503 107 l 506 90 l 506 56 l 508 33 l 508 29 l 510 18 l 510 0 l 508 -3 l 506 -14 l 496 -14 l 496 -7 l 501 1 l 497 6 l 489 3 l 475 6 l 456 -8 l 456 -14 l 454 -21 l 442 -11 l 436 -18 l 436 -24 l 410 -24 l 403 -21 m 164 114 l 197 114 l 211 118 l 222 119 l 261 131 l 297 149 l 289 192 l 278 314 l 261 306 l 251 294 l 232 282 l 218 265 l 197 249 l 158 197 l 147 164 l 147 140 l 153 121 m 494 32 l 494 35 l 492 35 l 492 33 m 181 774 l 168 781 l 158 782 l 158 793 l 168 813 l 176 825 l 178 828 l 210 879 l 211 883 l 221 897 l 238 917 l 265 924 l 283 924 l 300 913 l 311 907 l 319 900 l 342 889 l 360 885 l 364 878 l 364 874 l 353 867 l 336 849 l 333 849 l 322 838 l 283 811 l 249 775 l 235 757 l 222 750 l 208 750 l 197 753 "},"":{"ha":538,"x_min":0,"x_max":0,"o":"m 394 -21 l 376 -14 l 367 -19 l 349 -11 l 340 -3 l 339 3 l 326 19 l 319 38 l 319 47 l 318 51 l 314 69 l 279 61 l 243 58 l 167 58 l 128 67 l 88 71 l 71 81 l 68 82 l 53 92 l 39 115 l 28 144 l 28 189 l 32 203 l 60 254 l 110 308 l 165 343 l 217 379 l 244 390 l 249 393 l 272 399 l 272 444 l 267 513 l 258 542 l 244 525 l 242 519 l 203 483 l 178 468 l 171 467 l 167 464 l 151 461 l 146 458 l 92 451 l 78 438 l 57 443 l 50 447 l 50 469 l 67 506 l 108 564 l 140 596 l 183 631 l 290 676 l 356 676 l 383 667 l 390 663 l 393 660 l 414 647 l 436 619 l 454 575 l 454 564 l 460 522 l 472 461 l 472 439 l 476 421 l 482 408 l 482 378 l 488 343 l 488 332 l 490 319 l 500 207 l 500 189 l 503 176 l 503 107 l 506 90 l 506 56 l 508 33 l 508 29 l 510 18 l 510 0 l 508 -3 l 506 -14 l 496 -14 l 496 -7 l 501 1 l 497 6 l 489 3 l 475 6 l 456 -8 l 456 -14 l 454 -21 l 442 -11 l 436 -18 l 436 -24 l 410 -24 l 403 -21 m 164 114 l 197 114 l 211 118 l 222 119 l 261 131 l 297 149 l 289 192 l 278 314 l 261 306 l 251 294 l 232 282 l 218 265 l 197 249 l 158 197 l 147 164 l 147 140 l 153 121 m 494 32 l 494 35 l 492 35 l 492 33 m 149 782 l 153 801 l 163 814 l 174 832 l 214 871 l 225 875 l 256 875 l 293 878 l 314 871 l 347 851 l 360 840 l 364 835 l 386 817 l 406 804 l 408 803 l 413 797 l 418 793 l 426 783 l 426 778 l 429 769 l 424 757 l 406 750 l 400 753 l 394 753 l 389 756 l 383 756 l 378 760 l 371 760 l 358 765 l 343 768 l 335 776 l 325 779 l 321 786 l 300 803 l 281 814 l 278 814 l 274 803 l 261 783 l 243 765 l 224 756 l 194 746 l 165 746 l 157 747 l 138 743 l 138 749 "},"":{"ha":538,"x_min":0,"x_max":0,"o":"m 394 -21 l 376 -14 l 367 -19 l 349 -11 l 340 -3 l 339 3 l 326 19 l 319 38 l 319 47 l 318 51 l 314 69 l 279 61 l 243 58 l 167 58 l 128 67 l 88 71 l 71 81 l 68 82 l 53 92 l 39 115 l 28 144 l 28 189 l 32 203 l 60 254 l 110 308 l 165 343 l 217 379 l 244 390 l 249 393 l 272 399 l 272 444 l 267 513 l 258 542 l 244 525 l 242 519 l 203 483 l 178 468 l 171 467 l 167 464 l 151 461 l 146 458 l 92 451 l 78 438 l 57 443 l 50 447 l 50 469 l 67 506 l 108 564 l 140 596 l 183 631 l 290 676 l 356 676 l 383 667 l 390 663 l 393 660 l 414 647 l 436 619 l 454 575 l 454 564 l 460 522 l 472 461 l 472 439 l 476 421 l 482 408 l 482 378 l 488 343 l 488 332 l 490 319 l 500 207 l 500 189 l 503 176 l 503 107 l 506 90 l 506 56 l 508 33 l 508 29 l 510 18 l 510 0 l 508 -3 l 506 -14 l 496 -14 l 496 -7 l 501 1 l 497 6 l 489 3 l 475 6 l 456 -8 l 456 -14 l 454 -21 l 442 -11 l 436 -18 l 436 -24 l 410 -24 l 403 -21 m 164 114 l 197 114 l 211 118 l 222 119 l 261 131 l 297 149 l 289 192 l 278 314 l 261 306 l 251 294 l 232 282 l 218 265 l 197 249 l 158 197 l 147 164 l 147 140 l 153 121 m 494 32 l 494 35 l 492 35 l 492 33 m 325 761 l 251 831 l 247 831 l 232 821 l 219 797 l 208 788 l 204 785 l 199 775 l 190 767 l 169 757 l 140 760 l 129 757 l 124 761 l 122 769 l 115 769 l 119 771 l 119 817 l 121 819 l 125 840 l 136 864 l 149 876 l 175 889 l 196 892 l 231 892 l 281 878 l 319 856 l 338 835 l 358 867 l 383 886 l 396 890 l 403 886 l 417 886 l 424 879 l 435 882 l 439 881 l 446 881 l 449 871 l 457 871 l 463 868 l 464 865 l 465 864 l 474 850 l 476 849 l 474 835 l 474 825 l 471 821 l 471 815 l 464 796 l 454 782 l 438 764 l 419 757 l 410 750 l 383 744 l 364 744 l 354 747 "},"":{"ha":538,"x_min":0,"x_max":0,"o":"m 394 -21 l 376 -14 l 367 -19 l 349 -11 l 340 -3 l 339 3 l 326 19 l 319 38 l 319 47 l 318 51 l 314 69 l 279 61 l 243 58 l 167 58 l 128 67 l 88 71 l 71 81 l 68 82 l 53 92 l 39 115 l 28 144 l 28 189 l 32 203 l 60 254 l 110 308 l 165 343 l 217 379 l 244 390 l 249 393 l 272 399 l 272 444 l 267 513 l 258 542 l 244 525 l 242 519 l 203 483 l 178 468 l 171 467 l 167 464 l 151 461 l 146 458 l 92 451 l 78 438 l 57 443 l 50 447 l 50 469 l 67 506 l 108 564 l 140 596 l 183 631 l 290 676 l 356 676 l 383 667 l 390 663 l 393 660 l 414 647 l 436 619 l 454 575 l 454 564 l 460 522 l 472 461 l 472 439 l 476 421 l 482 408 l 482 378 l 488 343 l 488 332 l 490 319 l 500 207 l 500 189 l 503 176 l 503 107 l 506 90 l 506 56 l 508 33 l 508 29 l 510 18 l 510 0 l 508 -3 l 506 -14 l 496 -14 l 496 -7 l 501 1 l 497 6 l 489 3 l 475 6 l 456 -8 l 456 -14 l 454 -21 l 442 -11 l 436 -18 l 436 -24 l 410 -24 l 403 -21 m 164 114 l 197 114 l 211 118 l 222 119 l 261 131 l 297 149 l 289 192 l 278 314 l 261 306 l 251 294 l 232 282 l 218 265 l 197 249 l 158 197 l 147 164 l 147 140 l 153 121 m 494 32 l 494 35 l 492 35 l 492 33 m 111 760 l 90 764 l 83 772 l 83 775 l 88 779 l 90 819 l 92 824 l 94 835 l 101 842 l 121 850 l 139 854 l 156 864 l 179 864 l 199 857 l 206 849 l 207 842 l 214 838 l 217 801 l 233 785 l 233 774 l 229 768 l 226 764 l 219 761 l 217 760 l 194 753 l 192 750 l 165 739 l 146 739 l 133 743 m 358 771 l 349 771 l 333 774 l 326 781 l 325 794 l 326 832 l 329 842 l 336 850 l 342 851 l 354 858 l 376 858 l 443 853 l 472 842 l 478 832 l 475 794 l 472 786 l 471 771 l 457 750 l 433 750 l 424 744 l 407 744 l 386 749 "},"":{"ha":538,"x_min":0,"x_max":0,"o":"m 394 -21 l 376 -14 l 367 -19 l 349 -11 l 340 -3 l 339 3 l 326 19 l 319 38 l 319 47 l 318 51 l 314 69 l 279 61 l 243 58 l 167 58 l 128 67 l 88 71 l 71 81 l 68 82 l 53 92 l 39 115 l 28 144 l 28 189 l 32 203 l 60 254 l 110 308 l 165 343 l 217 379 l 244 390 l 249 393 l 272 399 l 272 444 l 267 513 l 258 542 l 244 525 l 242 519 l 203 483 l 178 468 l 171 467 l 167 464 l 151 461 l 146 458 l 92 451 l 78 438 l 57 443 l 50 447 l 50 469 l 67 506 l 108 564 l 140 596 l 183 631 l 290 676 l 356 676 l 383 667 l 390 663 l 393 660 l 414 647 l 436 619 l 454 575 l 454 564 l 460 522 l 472 461 l 472 439 l 476 421 l 482 408 l 482 378 l 488 343 l 488 332 l 490 319 l 500 207 l 500 189 l 503 176 l 503 107 l 506 90 l 506 56 l 508 33 l 508 29 l 510 18 l 510 0 l 508 -3 l 506 -14 l 496 -14 l 496 -7 l 501 1 l 497 6 l 489 3 l 475 6 l 456 -8 l 456 -14 l 454 -21 l 442 -11 l 436 -18 l 436 -24 l 410 -24 l 403 -21 m 164 114 l 197 114 l 211 118 l 222 119 l 261 131 l 297 149 l 289 192 l 278 314 l 261 306 l 251 294 l 232 282 l 218 265 l 197 249 l 158 197 l 147 164 l 147 140 l 153 121 m 494 32 l 494 35 l 492 35 l 492 33 m 283 763 l 271 767 l 261 774 l 242 783 l 201 813 l 186 826 l 176 844 l 174 872 l 182 893 l 188 896 l 199 914 l 196 917 l 199 918 l 208 928 l 208 933 l 214 933 l 217 939 l 221 939 l 231 946 l 243 949 l 250 953 l 276 953 l 296 947 l 300 946 l 322 943 l 338 936 l 354 932 l 360 932 l 364 931 l 371 929 l 374 926 l 383 925 l 401 915 l 411 906 l 414 901 l 426 892 l 435 869 l 438 865 l 438 846 l 440 836 l 443 835 l 438 821 l 431 811 l 428 804 l 419 797 l 418 794 l 399 779 l 386 775 l 367 765 l 336 756 l 306 756 l 290 758 m 263 810 l 286 814 l 310 826 l 315 838 l 315 849 l 319 850 l 324 860 l 324 875 l 310 900 l 303 900 l 290 890 l 288 883 l 286 881 l 286 871 l 281 868 l 268 851 l 258 828 l 257 824 l 257 814 "},"":{"ha":776,"x_min":0,"x_max":0,"o":"m 378 40 l 376 43 l 371 46 l 349 69 l 332 97 l 313 68 l 279 61 l 243 58 l 167 58 l 128 67 l 88 71 l 71 81 l 68 82 l 53 92 l 39 115 l 28 144 l 28 189 l 32 203 l 60 254 l 110 308 l 165 343 l 217 379 l 244 390 l 249 393 l 272 399 l 272 444 l 267 513 l 258 542 l 244 525 l 242 519 l 203 483 l 178 468 l 171 467 l 167 464 l 151 461 l 146 458 l 92 451 l 78 438 l 57 443 l 50 447 l 50 469 l 67 506 l 108 564 l 140 596 l 183 631 l 290 676 l 356 676 l 383 667 l 390 663 l 393 660 l 414 647 l 418 640 l 429 643 l 481 647 l 499 654 l 565 661 l 588 657 l 608 650 l 646 603 l 647 597 l 658 582 l 676 543 l 686 479 l 681 469 l 676 429 l 672 414 l 675 394 l 682 382 l 726 382 l 749 379 l 740 361 l 689 338 l 682 336 l 672 332 l 624 324 l 601 324 l 563 317 l 542 317 l 507 314 l 460 314 l 460 286 l 467 258 l 471 253 l 493 175 l 506 147 l 538 190 l 565 239 l 569 256 l 579 264 l 588 279 l 614 276 l 629 282 l 644 267 l 654 267 l 660 256 l 675 254 l 683 247 l 681 218 l 681 207 l 674 174 l 668 164 l 647 111 l 639 103 l 636 93 l 615 64 l 581 40 l 557 31 l 556 31 l 535 25 l 471 25 l 451 29 l 433 24 l 425 24 l 397 29 m 164 114 l 197 114 l 211 118 l 222 119 l 261 131 l 297 149 l 289 192 l 282 267 l 279 279 l 279 299 l 278 314 l 261 306 l 251 294 l 232 282 l 218 265 l 197 249 l 158 197 l 147 164 l 147 140 l 153 121 m 453 379 l 553 379 l 553 451 l 535 513 l 529 525 l 519 554 l 519 567 l 514 575 l 513 581 l 499 590 l 485 574 l 471 542 l 460 504 l 457 478 l 453 469 l 447 431 l 447 382 "},"":{"ha":453,"x_min":0,"x_max":0,"o":"m 122 -210 l 103 -197 l 86 -194 l 86 -189 l 117 -189 l 139 -193 l 153 -190 l 154 -186 l 161 -182 l 167 -175 l 181 -165 l 185 -158 l 199 -151 l 200 -150 l 214 -139 l 219 -136 l 228 -128 l 228 -111 l 221 -108 l 211 -97 l 207 -94 l 201 -89 l 193 -86 l 176 -65 l 151 -50 l 143 -31 l 146 -1 l 146 0 l 133 7 l 108 32 l 71 90 l 58 131 l 56 136 l 54 147 l 50 160 l 39 208 l 28 292 l 28 392 l 32 428 l 43 476 l 69 549 l 82 557 l 83 564 l 104 585 l 121 590 l 125 593 l 208 610 l 226 617 l 260 619 l 322 619 l 338 610 l 350 604 l 358 599 l 364 599 l 388 579 l 411 535 l 411 469 l 401 435 l 388 408 l 363 389 l 356 386 l 349 378 l 338 372 l 332 367 l 311 360 l 308 358 l 283 354 l 272 354 l 244 338 l 242 340 l 242 344 l 260 363 l 265 376 l 275 424 l 275 478 l 250 532 l 225 554 l 215 565 l 199 569 l 178 549 l 164 515 l 164 488 l 161 469 l 164 461 l 164 381 l 179 333 l 183 314 l 242 157 l 244 140 l 258 108 l 269 99 l 286 150 l 289 165 l 297 182 l 301 200 l 306 208 l 321 271 l 324 288 l 329 290 l 333 289 l 342 293 l 349 290 l 358 290 l 364 299 l 368 296 l 375 293 l 388 285 l 400 285 l 408 289 l 419 278 l 422 256 l 425 250 l 419 219 l 419 203 l 414 182 l 414 128 l 408 115 l 406 101 l 401 94 l 397 78 l 390 68 l 388 57 l 374 35 l 350 14 l 333 6 l 282 0 l 265 -7 l 263 -7 l 260 -15 l 257 -32 l 253 -39 l 253 -43 l 282 -50 l 321 -64 l 354 -89 l 360 -96 l 361 -104 l 365 -114 l 360 -140 l 333 -185 l 322 -187 l 310 -194 l 303 -194 l 292 -197 l 276 -197 l 253 -211 l 240 -222 l 239 -228 l 226 -232 l 172 -229 "},"":{"ha":525,"x_min":0,"x_max":0,"o":"m 126 38 l 125 40 l 119 43 l 97 67 l 74 107 l 60 140 l 28 276 l 28 378 l 51 489 l 82 569 l 121 622 l 158 636 l 178 640 l 229 644 l 247 651 l 314 658 l 336 654 l 357 647 l 394 600 l 396 594 l 407 579 l 425 540 l 435 476 l 429 467 l 425 426 l 421 411 l 424 392 l 431 379 l 475 379 l 497 376 l 489 358 l 438 335 l 431 333 l 421 329 l 372 321 l 350 321 l 311 314 l 290 314 l 256 311 l 208 311 l 208 283 l 215 256 l 219 250 l 242 172 l 254 144 l 286 188 l 314 236 l 318 253 l 328 261 l 336 276 l 363 274 l 378 279 l 393 264 l 403 264 l 408 253 l 424 251 l 432 244 l 429 215 l 429 204 l 422 171 l 417 161 l 396 108 l 388 100 l 385 90 l 364 61 l 329 38 l 306 28 l 304 28 l 283 22 l 219 22 l 200 26 l 182 21 l 174 21 l 146 26 m 201 376 l 301 376 l 301 449 l 283 510 l 278 522 l 268 551 l 268 564 l 263 572 l 261 578 l 247 588 l 233 571 l 219 539 l 208 501 l 206 475 l 201 467 l 196 428 l 196 379 m 297 722 l 286 719 l 272 719 l 260 726 l 246 744 l 211 781 l 172 807 l 161 818 l 158 818 l 142 836 l 131 843 l 131 847 l 135 854 l 153 858 l 175 869 l 183 876 l 194 882 l 211 893 l 229 893 l 257 886 l 274 867 l 283 853 l 285 849 l 317 797 l 318 794 l 326 782 l 336 763 l 336 751 l 326 750 l 314 743 "},"":{"ha":525,"x_min":0,"x_max":0,"o":"m 126 38 l 125 40 l 119 43 l 97 67 l 74 107 l 60 140 l 28 276 l 28 378 l 51 489 l 82 569 l 121 622 l 158 636 l 178 640 l 229 644 l 247 651 l 314 658 l 336 654 l 357 647 l 394 600 l 396 594 l 407 579 l 425 540 l 435 476 l 429 467 l 425 426 l 421 411 l 424 392 l 431 379 l 475 379 l 497 376 l 489 358 l 438 335 l 431 333 l 421 329 l 372 321 l 350 321 l 311 314 l 290 314 l 256 311 l 208 311 l 208 283 l 215 256 l 219 250 l 242 172 l 254 144 l 286 188 l 314 236 l 318 253 l 328 261 l 336 276 l 363 274 l 378 279 l 393 264 l 403 264 l 408 253 l 424 251 l 432 244 l 429 215 l 429 204 l 422 171 l 417 161 l 396 108 l 388 100 l 385 90 l 364 61 l 329 38 l 306 28 l 304 28 l 283 22 l 219 22 l 200 26 l 182 21 l 174 21 l 146 26 m 201 376 l 301 376 l 301 449 l 283 510 l 278 522 l 268 551 l 268 564 l 263 572 l 261 578 l 247 588 l 233 571 l 219 539 l 208 501 l 206 475 l 201 467 l 196 428 l 196 379 m 122 746 l 110 753 l 100 754 l 100 765 l 110 785 l 118 797 l 119 800 l 151 851 l 153 856 l 163 869 l 179 889 l 207 896 l 225 896 l 242 885 l 253 879 l 261 872 l 283 861 l 301 857 l 306 850 l 306 846 l 294 839 l 278 821 l 275 821 l 264 810 l 225 783 l 190 747 l 176 729 l 164 722 l 150 722 l 139 725 "},"":{"ha":525,"x_min":0,"x_max":0,"o":"m 126 38 l 125 40 l 119 43 l 97 67 l 74 107 l 60 140 l 28 276 l 28 378 l 51 489 l 82 569 l 121 622 l 158 636 l 178 640 l 229 644 l 247 651 l 314 658 l 336 654 l 357 647 l 394 600 l 396 594 l 407 579 l 425 540 l 435 476 l 429 467 l 425 426 l 421 411 l 424 392 l 431 379 l 475 379 l 497 376 l 489 358 l 438 335 l 431 333 l 421 329 l 372 321 l 350 321 l 311 314 l 290 314 l 256 311 l 208 311 l 208 283 l 215 256 l 219 250 l 242 172 l 254 144 l 286 188 l 314 236 l 318 253 l 328 261 l 336 276 l 363 274 l 378 279 l 393 264 l 403 264 l 408 253 l 424 251 l 432 244 l 429 215 l 429 204 l 422 171 l 417 161 l 396 108 l 388 100 l 385 90 l 364 61 l 329 38 l 306 28 l 304 28 l 283 22 l 219 22 l 200 26 l 182 21 l 174 21 l 146 26 m 201 376 l 301 376 l 301 449 l 283 510 l 278 522 l 268 551 l 268 564 l 263 572 l 261 578 l 247 588 l 233 571 l 219 539 l 208 501 l 206 475 l 201 467 l 196 428 l 196 379 m 90 754 l 94 774 l 104 786 l 115 804 l 156 843 l 167 847 l 197 847 l 235 850 l 256 843 l 289 824 l 301 813 l 306 807 l 328 789 l 347 776 l 350 775 l 354 769 l 360 765 l 368 756 l 368 750 l 371 742 l 365 729 l 347 722 l 342 725 l 336 725 l 331 728 l 325 728 l 319 732 l 313 732 l 300 738 l 285 740 l 276 749 l 267 751 l 263 758 l 242 775 l 222 786 l 219 786 l 215 775 l 203 756 l 185 738 l 165 728 l 136 718 l 107 718 l 99 719 l 79 715 l 79 721 "},"":{"ha":525,"x_min":0,"x_max":0,"o":"m 126 38 l 125 40 l 119 43 l 97 67 l 74 107 l 60 140 l 28 276 l 28 378 l 51 489 l 82 569 l 121 622 l 158 636 l 178 640 l 229 644 l 247 651 l 314 658 l 336 654 l 357 647 l 394 600 l 396 594 l 407 579 l 425 540 l 435 476 l 429 467 l 425 426 l 421 411 l 424 392 l 431 379 l 475 379 l 497 376 l 489 358 l 438 335 l 431 333 l 421 329 l 372 321 l 350 321 l 311 314 l 290 314 l 256 311 l 208 311 l 208 283 l 215 256 l 219 250 l 242 172 l 254 144 l 286 188 l 314 236 l 318 253 l 328 261 l 336 276 l 363 274 l 378 279 l 393 264 l 403 264 l 408 253 l 424 251 l 432 244 l 429 215 l 429 204 l 422 171 l 417 161 l 396 108 l 388 100 l 385 90 l 364 61 l 329 38 l 306 28 l 304 28 l 283 22 l 219 22 l 200 26 l 182 21 l 174 21 l 146 26 m 201 376 l 301 376 l 301 449 l 283 510 l 278 522 l 268 551 l 268 564 l 263 572 l 261 578 l 247 588 l 233 571 l 219 539 l 208 501 l 206 475 l 201 467 l 196 428 l 196 379 m 53 732 l 32 736 l 25 744 l 25 747 l 29 751 l 32 792 l 33 796 l 36 807 l 43 814 l 63 822 l 81 826 l 97 836 l 121 836 l 140 829 l 147 821 l 149 814 l 156 810 l 158 774 l 175 757 l 175 746 l 171 740 l 168 736 l 161 733 l 158 732 l 136 725 l 133 722 l 107 711 l 88 711 l 75 715 m 300 743 l 290 743 l 275 746 l 268 753 l 267 767 l 268 804 l 271 814 l 278 822 l 283 824 l 296 831 l 318 831 l 385 825 l 414 814 l 419 804 l 417 767 l 414 758 l 413 743 l 399 722 l 375 722 l 365 717 l 349 717 l 328 721 "},"":{"ha":251,"x_min":0,"x_max":0,"o":"m 146 6 l 113 7 l 99 -1 l 79 8 l 68 46 l 47 367 l 53 506 l 57 515 l 76 532 l 92 539 l 140 531 l 161 518 l 164 507 l 168 497 l 171 481 l 185 456 l 193 426 l 200 361 l 200 349 l 204 325 l 207 167 l 214 114 l 224 74 l 222 32 l 215 7 l 210 0 l 196 6 l 189 0 l 181 -3 l 174 -8 l 158 -3 m 178 647 l 167 644 l 153 644 l 140 651 l 126 669 l 92 706 l 53 732 l 42 743 l 39 743 l 22 761 l 11 768 l 11 772 l 15 779 l 33 783 l 56 794 l 64 801 l 75 807 l 92 818 l 110 818 l 138 811 l 154 792 l 164 778 l 165 774 l 197 722 l 199 719 l 207 707 l 217 688 l 217 676 l 207 675 l 194 668 "},"":{"ha":251,"x_min":0,"x_max":0,"o":"m 146 6 l 113 7 l 99 -1 l 79 8 l 68 46 l 47 367 l 53 506 l 57 515 l 76 532 l 92 539 l 140 531 l 161 518 l 164 507 l 168 497 l 171 481 l 185 456 l 193 426 l 200 361 l 200 349 l 204 325 l 207 167 l 214 114 l 224 74 l 222 32 l 215 7 l 210 0 l 196 6 l 189 0 l 181 -3 l 174 -8 l 158 -3 m 3 671 l -10 678 l -19 679 l -19 690 l -10 710 l -1 722 l 0 725 l 32 776 l 33 781 l 43 794 l 60 814 l 88 821 l 106 821 l 122 810 l 133 804 l 142 797 l 164 786 l 182 782 l 186 775 l 186 771 l 175 764 l 158 746 l 156 746 l 144 735 l 106 708 l 71 672 l 57 654 l 44 647 l 31 647 l 19 650 "},"":{"ha":251,"x_min":0,"x_max":0,"o":"m 146 6 l 113 7 l 99 -1 l 79 8 l 68 46 l 47 367 l 53 506 l 57 515 l 76 532 l 92 539 l 140 531 l 161 518 l 164 507 l 168 497 l 171 481 l 185 456 l 193 426 l 200 361 l 200 349 l 204 325 l 207 167 l 214 114 l 224 74 l 222 32 l 215 7 l 210 0 l 196 6 l 189 0 l 181 -3 l 174 -8 l 158 -3 m -29 679 l -25 699 l -15 711 l -4 729 l 36 768 l 47 772 l 78 772 l 115 775 l 136 768 l 169 749 l 182 738 l 186 732 l 208 714 l 228 701 l 231 700 l 235 694 l 240 690 l 249 681 l 249 675 l 251 667 l 246 654 l 228 647 l 222 650 l 217 650 l 211 653 l 206 653 l 200 657 l 193 657 l 181 663 l 165 665 l 157 674 l 147 676 l 143 683 l 122 700 l 103 711 l 100 711 l 96 700 l 83 681 l 65 663 l 46 653 l 17 643 l -12 643 l -21 644 l -40 640 l -40 646 "},"":{"ha":251,"x_min":0,"x_max":0,"o":"m 146 6 l 113 7 l 99 -1 l 79 8 l 68 46 l 47 367 l 53 506 l 57 515 l 76 532 l 92 539 l 140 531 l 161 518 l 164 507 l 168 497 l 171 481 l 185 456 l 193 426 l 200 361 l 200 349 l 204 325 l 207 167 l 214 114 l 224 74 l 222 32 l 215 7 l 210 0 l 196 6 l 189 0 l 181 -3 l 174 -8 l 158 -3 m -67 657 l -87 661 l -94 669 l -94 672 l -90 676 l -87 717 l -86 721 l -83 732 l -76 739 l -57 747 l -39 751 l -22 761 l 1 761 l 21 754 l 28 746 l 29 739 l 36 735 l 39 699 l 56 682 l 56 671 l 51 665 l 49 661 l 42 658 l 39 657 l 17 650 l 14 647 l -12 636 l -32 636 l -44 640 m 181 668 l 171 668 l 156 671 l 149 678 l 147 692 l 149 729 l 151 739 l 158 747 l 164 749 l 176 756 l 199 756 l 265 750 l 294 739 l 300 729 l 297 692 l 294 683 l 293 668 l 279 647 l 256 647 l 246 642 l 229 642 l 208 646 "},"":{"ha":542,"x_min":0,"x_max":0,"o":"m 90 6 l 76 -1 l 65 6 l 58 19 l 50 69 l 50 76 l 44 114 l 46 147 l 32 388 l 33 414 l 29 428 l 28 589 l 33 601 l 50 608 l 68 619 l 107 624 l 126 617 l 136 607 l 142 585 l 156 571 l 157 553 l 164 539 l 176 422 l 201 492 l 221 533 l 247 569 l 278 599 l 314 607 l 319 607 l 333 613 l 342 611 l 368 617 l 411 621 l 438 617 l 453 607 l 467 592 l 468 586 l 474 579 l 482 544 l 488 493 l 488 457 l 501 342 l 507 326 l 508 269 l 508 267 l 514 228 l 508 56 l 506 53 l 504 33 l 507 28 l 483 19 l 483 28 l 478 28 l 474 25 l 471 26 l 468 15 l 451 15 l 447 13 l 446 21 l 444 21 l 440 10 l 431 11 l 426 3 l 411 3 l 375 18 l 354 15 l 336 22 l 324 35 l 311 68 l 314 118 l 294 404 l 290 428 l 250 286 l 228 178 l 221 175 l 186 60 l 181 25 l 174 6 l 172 3 l 164 -7 l 142 -1 l 136 -11 l 124 -3 m 314 706 l 240 775 l 236 775 l 221 765 l 208 742 l 197 732 l 193 729 l 188 719 l 179 711 l 158 701 l 129 704 l 118 701 l 113 706 l 111 714 l 104 714 l 108 715 l 108 761 l 110 764 l 114 785 l 125 808 l 138 821 l 164 833 l 185 836 l 219 836 l 269 822 l 308 800 l 326 779 l 347 811 l 372 831 l 385 835 l 392 831 l 406 831 l 413 824 l 424 826 l 428 825 l 435 825 l 438 815 l 446 815 l 451 813 l 453 810 l 454 808 l 463 794 l 465 793 l 463 779 l 463 769 l 460 765 l 460 760 l 453 740 l 443 726 l 426 708 l 408 701 l 399 694 l 372 689 l 353 689 l 343 692 "},"":{"ha":514,"x_min":0,"x_max":0,"o":"m 206 7 l 178 4 l 153 13 l 125 32 l 121 33 l 88 69 l 65 107 l 39 186 l 28 257 l 29 347 l 44 415 l 56 450 l 64 469 l 72 504 l 89 531 l 119 571 l 138 578 l 165 582 l 181 590 l 186 596 l 189 617 l 200 639 l 238 640 l 246 649 l 254 647 l 294 660 l 311 660 l 321 656 l 374 658 l 388 654 l 411 626 l 413 622 l 428 597 l 431 596 l 436 581 l 432 576 l 436 568 l 436 556 l 440 554 l 440 544 l 449 531 l 453 508 l 458 499 l 461 482 l 465 471 l 474 415 l 472 375 l 474 326 l 475 322 l 476 296 l 478 307 l 478 310 l 483 310 l 479 275 l 476 264 l 476 250 l 474 236 l 479 233 l 475 225 l 465 192 l 458 175 l 453 149 l 442 126 l 438 111 l 428 93 l 419 74 l 406 49 l 386 26 l 353 4 l 329 3 l 304 4 l 288 1 l 240 -3 m 258 124 l 268 144 l 288 194 l 294 382 l 293 419 l 297 431 l 293 433 l 293 451 l 297 456 l 292 508 l 276 535 l 271 549 l 263 564 l 257 560 l 251 547 l 256 538 l 254 521 l 243 510 l 233 494 l 226 474 l 221 467 l 210 433 l 201 399 l 196 278 l 200 242 l 207 228 l 213 210 l 226 175 l 247 142 m 486 332 l 486 326 l 481 326 l 481 332 m 325 725 l 314 722 l 300 722 l 288 729 l 274 747 l 239 783 l 200 810 l 189 821 l 186 821 l 169 839 l 158 846 l 158 850 l 163 857 l 181 861 l 203 872 l 211 879 l 222 885 l 239 896 l 257 896 l 285 889 l 301 869 l 311 856 l 313 851 l 344 800 l 346 797 l 354 785 l 364 765 l 364 754 l 354 753 l 342 746 "},"":{"ha":514,"x_min":0,"x_max":0,"o":"m 206 7 l 178 4 l 153 13 l 125 32 l 121 33 l 88 69 l 65 107 l 39 186 l 28 257 l 29 347 l 44 415 l 56 450 l 64 469 l 72 504 l 89 531 l 119 571 l 138 578 l 165 582 l 181 590 l 186 596 l 189 617 l 200 639 l 238 640 l 246 649 l 254 647 l 294 660 l 311 660 l 321 656 l 374 658 l 388 654 l 411 626 l 413 622 l 428 597 l 431 596 l 436 581 l 432 576 l 436 568 l 436 556 l 440 554 l 440 544 l 449 531 l 453 508 l 458 499 l 461 482 l 465 471 l 474 415 l 472 375 l 474 326 l 475 322 l 476 296 l 478 307 l 478 310 l 483 310 l 479 275 l 476 264 l 476 250 l 474 236 l 479 233 l 475 225 l 465 192 l 458 175 l 453 149 l 442 126 l 438 111 l 428 93 l 419 74 l 406 49 l 386 26 l 353 4 l 329 3 l 304 4 l 288 1 l 240 -3 m 258 124 l 268 144 l 288 194 l 294 382 l 293 419 l 297 431 l 293 433 l 293 451 l 297 456 l 292 508 l 276 535 l 271 549 l 263 564 l 257 560 l 251 547 l 256 538 l 254 521 l 243 510 l 233 494 l 226 474 l 221 467 l 210 433 l 201 399 l 196 278 l 200 242 l 207 228 l 213 210 l 226 175 l 247 142 m 486 332 l 486 326 l 481 326 l 481 332 m 150 749 l 138 756 l 128 757 l 128 768 l 138 788 l 146 800 l 147 803 l 179 854 l 181 858 l 190 872 l 207 892 l 235 899 l 253 899 l 269 888 l 281 882 l 289 875 l 311 864 l 329 860 l 333 853 l 333 849 l 322 842 l 306 824 l 303 824 l 292 813 l 253 786 l 218 750 l 204 732 l 192 725 l 178 725 l 167 728 "},"":{"ha":514,"x_min":0,"x_max":0,"o":"m 206 7 l 178 4 l 153 13 l 125 32 l 121 33 l 88 69 l 65 107 l 39 186 l 28 257 l 29 347 l 44 415 l 56 450 l 64 469 l 72 504 l 89 531 l 119 571 l 138 578 l 165 582 l 181 590 l 186 596 l 189 617 l 200 639 l 238 640 l 246 649 l 254 647 l 294 660 l 311 660 l 321 656 l 374 658 l 388 654 l 411 626 l 413 622 l 428 597 l 431 596 l 436 581 l 432 576 l 436 568 l 436 556 l 440 554 l 440 544 l 449 531 l 453 508 l 458 499 l 461 482 l 465 471 l 474 415 l 472 375 l 474 326 l 475 322 l 476 296 l 478 307 l 478 310 l 483 310 l 479 275 l 476 264 l 476 250 l 474 236 l 479 233 l 475 225 l 465 192 l 458 175 l 453 149 l 442 126 l 438 111 l 428 93 l 419 74 l 406 49 l 386 26 l 353 4 l 329 3 l 304 4 l 288 1 l 240 -3 m 258 124 l 268 144 l 288 194 l 294 382 l 293 419 l 297 431 l 293 433 l 293 451 l 297 456 l 292 508 l 276 535 l 271 549 l 263 564 l 257 560 l 251 547 l 256 538 l 254 521 l 243 510 l 233 494 l 226 474 l 221 467 l 210 433 l 201 399 l 196 278 l 200 242 l 207 228 l 213 210 l 226 175 l 247 142 m 486 332 l 486 326 l 481 326 l 481 332 m 118 757 l 122 776 l 132 789 l 143 807 l 183 846 l 194 850 l 225 850 l 263 853 l 283 846 l 317 826 l 329 815 l 333 810 l 356 792 l 375 779 l 378 778 l 382 772 l 388 768 l 396 758 l 396 753 l 399 744 l 393 732 l 375 725 l 369 728 l 364 728 l 358 731 l 353 731 l 347 735 l 340 735 l 328 740 l 313 743 l 304 751 l 294 754 l 290 761 l 269 778 l 250 789 l 247 789 l 243 778 l 231 758 l 213 740 l 193 731 l 164 721 l 135 721 l 126 722 l 107 718 l 107 724 "},"":{"ha":514,"x_min":0,"x_max":0,"o":"m 206 7 l 178 4 l 153 13 l 125 32 l 121 33 l 88 69 l 65 107 l 39 186 l 28 257 l 29 347 l 44 415 l 56 450 l 64 469 l 72 504 l 89 531 l 119 571 l 138 578 l 165 582 l 181 590 l 186 596 l 189 617 l 200 639 l 238 640 l 246 649 l 254 647 l 294 660 l 311 660 l 321 656 l 374 658 l 388 654 l 411 626 l 413 622 l 428 597 l 431 596 l 436 581 l 432 576 l 436 568 l 436 556 l 440 554 l 440 544 l 449 531 l 453 508 l 458 499 l 461 482 l 465 471 l 474 415 l 472 375 l 474 326 l 475 322 l 476 296 l 478 307 l 478 310 l 483 310 l 479 275 l 476 264 l 476 250 l 474 236 l 479 233 l 475 225 l 465 192 l 458 175 l 453 149 l 442 126 l 438 111 l 428 93 l 419 74 l 406 49 l 386 26 l 353 4 l 329 3 l 304 4 l 288 1 l 240 -3 m 258 124 l 268 144 l 288 194 l 294 382 l 293 419 l 297 431 l 293 433 l 293 451 l 297 456 l 292 508 l 276 535 l 271 549 l 263 564 l 257 560 l 251 547 l 256 538 l 254 521 l 243 510 l 233 494 l 226 474 l 221 467 l 210 433 l 201 399 l 196 278 l 200 242 l 207 228 l 213 210 l 226 175 l 247 142 m 486 332 l 486 326 l 481 326 l 481 332 m 294 736 l 221 806 l 217 806 l 201 796 l 189 772 l 178 763 l 174 760 l 168 750 l 160 742 l 139 732 l 110 735 l 99 732 l 93 736 l 92 744 l 85 744 l 89 746 l 89 792 l 90 794 l 94 815 l 106 839 l 118 851 l 144 864 l 165 867 l 200 867 l 250 853 l 289 831 l 307 810 l 328 842 l 353 861 l 365 865 l 372 861 l 386 861 l 393 854 l 404 857 l 408 856 l 415 856 l 418 846 l 426 846 l 432 843 l 433 840 l 435 839 l 443 825 l 446 824 l 443 810 l 443 800 l 440 796 l 440 790 l 433 771 l 424 757 l 407 739 l 389 732 l 379 725 l 353 719 l 333 719 l 324 722 "},"":{"ha":514,"x_min":0,"x_max":0,"o":"m 206 7 l 178 4 l 153 13 l 125 32 l 121 33 l 88 69 l 65 107 l 39 186 l 28 257 l 29 347 l 44 415 l 56 450 l 64 469 l 72 504 l 89 531 l 119 571 l 138 578 l 165 582 l 181 590 l 186 596 l 189 617 l 200 639 l 238 640 l 246 649 l 254 647 l 294 660 l 311 660 l 321 656 l 374 658 l 388 654 l 411 626 l 413 622 l 428 597 l 431 596 l 436 581 l 432 576 l 436 568 l 436 556 l 440 554 l 440 544 l 449 531 l 453 508 l 458 499 l 461 482 l 465 471 l 474 415 l 472 375 l 474 326 l 475 322 l 476 296 l 478 307 l 478 310 l 483 310 l 479 275 l 476 264 l 476 250 l 474 236 l 479 233 l 475 225 l 465 192 l 458 175 l 453 149 l 442 126 l 438 111 l 428 93 l 419 74 l 406 49 l 386 26 l 353 4 l 329 3 l 304 4 l 288 1 l 240 -3 m 258 124 l 268 144 l 288 194 l 294 382 l 293 419 l 297 431 l 293 433 l 293 451 l 297 456 l 292 508 l 276 535 l 271 549 l 263 564 l 257 560 l 251 547 l 256 538 l 254 521 l 243 510 l 233 494 l 226 474 l 221 467 l 210 433 l 201 399 l 196 278 l 200 242 l 207 228 l 213 210 l 226 175 l 247 142 m 486 332 l 486 326 l 481 326 l 481 332 m 81 735 l 60 739 l 53 747 l 53 750 l 57 754 l 60 794 l 61 799 l 64 810 l 71 817 l 90 825 l 108 829 l 125 839 l 149 839 l 168 832 l 175 824 l 176 817 l 183 813 l 186 776 l 203 760 l 203 749 l 199 743 l 196 739 l 189 736 l 186 735 l 164 728 l 161 725 l 135 714 l 115 714 l 103 718 m 328 746 l 318 746 l 303 749 l 296 756 l 294 769 l 296 807 l 299 817 l 306 825 l 311 826 l 324 833 l 346 833 l 413 828 l 442 817 l 447 807 l 444 769 l 442 761 l 440 746 l 426 725 l 403 725 l 393 719 l 376 719 l 356 724 "},"":{"ha":550,"x_min":0,"x_max":0,"o":"m 236 7 l 208 4 l 183 13 l 156 32 l 151 33 l 118 69 l 107 86 l 81 53 l 71 50 l 67 50 l 63 49 l 60 51 l 40 65 l 40 63 l 35 65 l 28 75 l 33 89 l 81 150 l 69 186 l 58 257 l 60 347 l 75 415 l 86 450 l 94 469 l 103 504 l 119 531 l 150 571 l 168 578 l 196 582 l 211 590 l 217 596 l 219 617 l 231 639 l 268 640 l 276 649 l 285 647 l 325 660 l 342 660 l 351 656 l 404 658 l 418 654 l 442 626 l 443 622 l 458 597 l 461 596 l 461 594 l 499 624 l 503 622 l 514 624 l 519 621 l 522 608 l 517 589 l 507 581 l 501 567 l 486 544 l 476 538 l 475 536 l 479 531 l 483 508 l 489 499 l 492 482 l 496 471 l 504 415 l 503 375 l 504 326 l 506 322 l 507 296 l 508 307 l 508 310 l 514 310 l 510 275 l 507 264 l 507 250 l 504 236 l 510 233 l 506 225 l 496 192 l 489 175 l 483 149 l 472 126 l 468 111 l 458 93 l 450 74 l 436 49 l 417 26 l 383 4 l 360 3 l 335 4 l 318 1 l 271 -3 m 289 124 l 299 144 l 318 194 l 324 343 l 311 331 l 306 322 l 303 322 l 297 311 l 293 308 l 274 286 l 261 276 l 232 239 l 238 228 l 243 210 l 257 175 l 278 142 m 229 335 l 324 449 l 324 451 l 328 456 l 322 508 l 307 535 l 301 549 l 293 564 l 288 560 l 282 547 l 286 538 l 285 521 l 274 510 l 264 494 l 257 474 l 251 467 l 240 433 l 232 399 m 517 332 l 517 326 l 511 326 l 511 332 "},"":{"ha":585,"x_min":0,"x_max":0,"o":"m 88 14 l 63 46 l 46 82 l 38 113 l 28 201 l 28 276 l 35 365 l 63 528 l 67 543 l 83 549 l 89 556 l 93 556 l 94 568 l 110 572 l 131 583 l 142 586 l 154 593 l 181 592 l 199 583 l 215 574 l 224 554 l 225 543 l 224 539 l 221 506 l 214 486 l 206 435 l 207 235 l 211 201 l 214 192 l 217 160 l 219 150 l 332 401 l 367 463 l 375 533 l 374 551 l 379 560 l 379 567 l 400 583 l 417 590 l 464 592 l 486 586 l 492 586 l 503 567 l 504 547 l 517 511 l 528 428 l 528 388 l 529 382 l 526 375 l 531 365 l 532 318 l 539 297 l 539 285 l 542 271 l 550 174 l 554 160 l 554 100 l 557 74 l 554 44 l 543 26 l 525 22 l 510 22 l 503 11 l 500 11 l 496 14 l 490 11 l 486 11 l 485 4 l 478 -3 l 467 6 l 449 3 l 432 -11 l 426 -7 l 410 13 l 394 38 l 388 67 l 385 99 l 385 117 l 382 146 l 381 150 l 381 154 l 376 172 l 374 174 l 369 158 l 358 139 l 351 114 l 328 57 l 311 39 l 301 35 l 292 24 l 264 11 l 207 1 l 171 3 l 150 -4 l 131 -4 l 107 1 m 347 658 l 336 656 l 322 656 l 310 663 l 296 681 l 261 717 l 222 743 l 211 754 l 208 754 l 192 772 l 181 779 l 181 783 l 185 790 l 203 794 l 225 806 l 233 813 l 244 818 l 261 829 l 279 829 l 307 822 l 324 803 l 333 789 l 335 785 l 367 733 l 368 731 l 376 718 l 386 699 l 386 688 l 376 686 l 364 679 "},"":{"ha":585,"x_min":0,"x_max":0,"o":"m 88 14 l 63 46 l 46 82 l 38 113 l 28 201 l 28 276 l 35 365 l 63 528 l 67 543 l 83 549 l 89 556 l 93 556 l 94 568 l 110 572 l 131 583 l 142 586 l 154 593 l 181 592 l 199 583 l 215 574 l 224 554 l 225 543 l 224 539 l 221 506 l 214 486 l 206 435 l 207 235 l 211 201 l 214 192 l 217 160 l 219 150 l 332 401 l 367 463 l 375 533 l 374 551 l 379 560 l 379 567 l 400 583 l 417 590 l 464 592 l 486 586 l 492 586 l 503 567 l 504 547 l 517 511 l 528 428 l 528 388 l 529 382 l 526 375 l 531 365 l 532 318 l 539 297 l 539 285 l 542 271 l 550 174 l 554 160 l 554 100 l 557 74 l 554 44 l 543 26 l 525 22 l 510 22 l 503 11 l 500 11 l 496 14 l 490 11 l 486 11 l 485 4 l 478 -3 l 467 6 l 449 3 l 432 -11 l 426 -7 l 410 13 l 394 38 l 388 67 l 385 99 l 385 117 l 382 146 l 381 150 l 381 154 l 376 172 l 374 174 l 369 158 l 358 139 l 351 114 l 328 57 l 311 39 l 301 35 l 292 24 l 264 11 l 207 1 l 171 3 l 150 -4 l 131 -4 l 107 1 m 172 682 l 160 689 l 150 690 l 150 701 l 160 721 l 168 733 l 169 736 l 201 788 l 203 792 l 213 806 l 229 825 l 257 832 l 275 832 l 292 821 l 303 815 l 311 808 l 333 797 l 351 793 l 356 786 l 356 782 l 344 775 l 328 757 l 325 757 l 314 746 l 275 719 l 240 683 l 226 665 l 214 658 l 200 658 l 189 661 "},"":{"ha":585,"x_min":0,"x_max":0,"o":"m 88 14 l 63 46 l 46 82 l 38 113 l 28 201 l 28 276 l 35 365 l 63 528 l 67 543 l 83 549 l 89 556 l 93 556 l 94 568 l 110 572 l 131 583 l 142 586 l 154 593 l 181 592 l 199 583 l 215 574 l 224 554 l 225 543 l 224 539 l 221 506 l 214 486 l 206 435 l 207 235 l 211 201 l 214 192 l 217 160 l 219 150 l 332 401 l 367 463 l 375 533 l 374 551 l 379 560 l 379 567 l 400 583 l 417 590 l 464 592 l 486 586 l 492 586 l 503 567 l 504 547 l 517 511 l 528 428 l 528 388 l 529 382 l 526 375 l 531 365 l 532 318 l 539 297 l 539 285 l 542 271 l 550 174 l 554 160 l 554 100 l 557 74 l 554 44 l 543 26 l 525 22 l 510 22 l 503 11 l 500 11 l 496 14 l 490 11 l 486 11 l 485 4 l 478 -3 l 467 6 l 449 3 l 432 -11 l 426 -7 l 410 13 l 394 38 l 388 67 l 385 99 l 385 117 l 382 146 l 381 150 l 381 154 l 376 172 l 374 174 l 369 158 l 358 139 l 351 114 l 328 57 l 311 39 l 301 35 l 292 24 l 264 11 l 207 1 l 171 3 l 150 -4 l 131 -4 l 107 1 m 140 690 l 144 710 l 154 722 l 165 740 l 206 779 l 217 783 l 247 783 l 285 786 l 306 779 l 339 760 l 351 749 l 356 743 l 378 725 l 397 713 l 400 711 l 404 706 l 410 701 l 418 692 l 418 686 l 421 678 l 415 665 l 397 658 l 392 661 l 386 661 l 381 664 l 375 664 l 369 668 l 363 668 l 350 674 l 335 676 l 326 685 l 317 688 l 313 694 l 292 711 l 272 722 l 269 722 l 265 711 l 253 692 l 235 674 l 215 664 l 186 654 l 157 654 l 149 656 l 129 651 l 129 657 "},"":{"ha":585,"x_min":0,"x_max":0,"o":"m 88 14 l 63 46 l 46 82 l 38 113 l 28 201 l 28 276 l 35 365 l 63 528 l 67 543 l 83 549 l 89 556 l 93 556 l 94 568 l 110 572 l 131 583 l 142 586 l 154 593 l 181 592 l 199 583 l 215 574 l 224 554 l 225 543 l 224 539 l 221 506 l 214 486 l 206 435 l 207 235 l 211 201 l 214 192 l 217 160 l 219 150 l 332 401 l 367 463 l 375 533 l 374 551 l 379 560 l 379 567 l 400 583 l 417 590 l 464 592 l 486 586 l 492 586 l 503 567 l 504 547 l 517 511 l 528 428 l 528 388 l 529 382 l 526 375 l 531 365 l 532 318 l 539 297 l 539 285 l 542 271 l 550 174 l 554 160 l 554 100 l 557 74 l 554 44 l 543 26 l 525 22 l 510 22 l 503 11 l 500 11 l 496 14 l 490 11 l 486 11 l 485 4 l 478 -3 l 467 6 l 449 3 l 432 -11 l 426 -7 l 410 13 l 394 38 l 388 67 l 385 99 l 385 117 l 382 146 l 381 150 l 381 154 l 376 172 l 374 174 l 369 158 l 358 139 l 351 114 l 328 57 l 311 39 l 301 35 l 292 24 l 264 11 l 207 1 l 171 3 l 150 -4 l 131 -4 l 107 1 m 103 668 l 82 672 l 75 681 l 75 683 l 79 688 l 82 728 l 83 732 l 86 743 l 93 750 l 113 758 l 131 763 l 147 772 l 171 772 l 190 765 l 197 757 l 199 750 l 206 746 l 208 710 l 225 693 l 225 682 l 221 676 l 218 672 l 211 669 l 208 668 l 186 661 l 183 658 l 157 647 l 138 647 l 125 651 m 350 679 l 340 679 l 325 682 l 318 689 l 317 703 l 318 740 l 321 750 l 328 758 l 333 760 l 346 767 l 368 767 l 435 761 l 464 750 l 469 740 l 467 703 l 464 694 l 463 679 l 449 658 l 425 658 l 415 653 l 399 653 l 378 657 "},"":{"ha":521,"x_min":0,"x_max":0,"o":"m 88 -47 l 85 -32 l 82 -32 l 76 -44 l 74 -40 l 72 -26 l 63 -26 l 51 -14 l 43 -12 l 32 -7 l 28 7 l 35 32 l 38 49 l 76 140 l 149 249 l 154 265 l 88 399 l 57 513 l 46 582 l 35 611 l 51 621 l 46 631 l 79 643 l 114 642 l 149 628 l 168 607 l 175 603 l 215 529 l 235 485 l 242 476 l 269 419 l 278 436 l 344 533 l 349 544 l 361 558 l 375 585 l 399 610 l 425 608 l 436 604 l 463 571 l 475 565 l 493 540 l 493 526 l 488 519 l 469 431 l 463 411 l 454 394 l 451 379 l 449 375 l 429 340 l 424 319 l 396 279 l 390 274 l 349 213 l 340 192 l 317 167 l 306 144 l 294 129 l 243 71 l 238 60 l 219 39 l 218 38 l 206 18 l 203 11 l 169 -42 l 153 -49 l 143 -62 l 138 -61 l 126 -53 l 124 -51 l 119 -58 l 107 -61 l 99 -54 m 108 699 l 88 703 l 81 711 l 81 714 l 85 718 l 88 758 l 89 763 l 92 774 l 99 781 l 118 789 l 136 793 l 153 803 l 176 803 l 196 796 l 203 788 l 204 781 l 211 776 l 214 740 l 231 724 l 231 713 l 226 707 l 224 703 l 217 700 l 214 699 l 192 692 l 189 689 l 163 678 l 143 678 l 131 682 m 356 710 l 346 710 l 331 713 l 324 719 l 322 733 l 324 771 l 326 781 l 333 789 l 339 790 l 351 797 l 374 797 l 440 792 l 469 781 l 475 771 l 472 733 l 469 725 l 468 710 l 454 689 l 431 689 l 421 683 l 404 683 l 383 688 "},"":{"ha":208,"x_min":0,"x_max":0,"o":"m 146 963 l 131 846 l 131 796 l 125 760 l 143 747 l 147 747 l 161 742 l 171 740 l 178 731 l 181 714 l 168 635 l 168 626 l 164 619 l 150 614 l 142 608 l 126 611 l 118 617 l 96 621 l 75 618 l 50 619 l 36 625 l 28 633 l 28 668 l 32 704 l 33 728 l 53 869 l 67 901 l 81 925 l 93 938 l 96 942 l 110 958 l 117 961 l 138 978 l 143 988 l 147 988 "},"":{"ha":208,"x_min":0,"x_max":0,"o":"m 63 633 l 78 750 l 78 800 l 83 836 l 65 849 l 61 849 l 47 854 l 38 856 l 31 865 l 28 882 l 40 961 l 40 969 l 44 976 l 58 982 l 67 988 l 82 985 l 90 979 l 113 975 l 133 978 l 158 976 l 172 971 l 181 963 l 181 928 l 176 892 l 175 868 l 156 726 l 142 694 l 128 671 l 115 658 l 113 654 l 99 638 l 92 635 l 71 618 l 65 608 l 61 608 "},"":{"ha":208,"x_min":0,"x_max":0,"o":"m 63 -96 l 78 21 l 78 71 l 83 107 l 65 119 l 61 119 l 47 125 l 38 126 l 31 136 l 28 153 l 40 232 l 40 240 l 44 247 l 58 253 l 67 258 l 82 256 l 90 250 l 113 246 l 133 249 l 158 247 l 172 242 l 181 233 l 181 199 l 176 163 l 175 139 l 156 -3 l 142 -35 l 128 -58 l 115 -71 l 113 -75 l 99 -92 l 92 -94 l 71 -111 l 65 -121 l 61 -121 "},"":{"ha":421,"x_min":0,"x_max":0,"o":"m 358 963 l 343 846 l 343 796 l 338 760 l 356 747 l 360 747 l 374 742 l 383 740 l 390 731 l 393 714 l 381 635 l 381 626 l 376 619 l 363 614 l 354 608 l 339 611 l 331 617 l 308 621 l 288 618 l 263 619 l 249 625 l 240 633 l 240 668 l 244 704 l 246 728 l 265 869 l 279 901 l 293 925 l 306 938 l 308 942 l 322 958 l 329 961 l 350 978 l 356 988 l 360 988 m 151 958 l 149 953 l 126 804 l 121 785 l 121 763 l 136 750 l 153 742 l 165 738 l 175 728 l 175 707 l 165 628 l 146 617 l 121 617 l 115 619 l 103 619 l 86 622 l 76 626 l 35 638 l 29 649 l 28 669 l 51 824 l 56 840 l 63 856 l 76 899 l 89 922 l 92 926 l 93 929 l 97 932 l 99 939 l 110 949 l 114 957 l 125 963 l 135 965 l 149 978 l 149 964 "},"":{"ha":421,"x_min":0,"x_max":0,"o":"m 63 633 l 78 750 l 78 800 l 83 836 l 65 849 l 61 849 l 47 854 l 38 856 l 31 865 l 28 882 l 40 961 l 40 969 l 44 976 l 58 982 l 67 988 l 82 985 l 90 979 l 113 975 l 133 978 l 158 976 l 172 971 l 181 963 l 181 928 l 176 892 l 175 868 l 156 726 l 142 694 l 128 671 l 115 658 l 113 654 l 99 638 l 92 635 l 71 618 l 65 608 l 61 608 m 269 638 l 272 643 l 294 792 l 300 811 l 300 833 l 285 846 l 268 854 l 256 858 l 246 868 l 246 889 l 256 968 l 275 979 l 300 979 l 306 976 l 318 976 l 335 974 l 344 969 l 386 958 l 392 947 l 393 926 l 369 772 l 365 756 l 358 740 l 344 697 l 332 674 l 329 669 l 328 667 l 324 664 l 322 657 l 311 647 l 307 639 l 296 633 l 286 631 l 272 618 l 272 632 "},"":{"ha":575,"x_min":0,"x_max":0,"o":"m 43 596 l 32 615 l 35 625 l 28 626 l 28 638 l 61 642 l 111 644 l 111 658 l 139 792 l 175 881 l 194 915 l 217 936 l 263 951 l 271 958 l 293 963 l 326 974 l 340 974 l 403 978 l 444 967 l 463 949 l 485 938 l 496 926 l 504 915 l 515 878 l 518 853 l 521 849 l 500 806 l 483 788 l 465 779 l 446 779 l 442 782 l 417 782 l 385 856 l 378 863 l 372 871 l 340 897 l 333 897 l 317 883 l 294 842 l 289 815 l 286 810 l 282 772 l 282 767 l 278 722 l 282 682 l 282 647 l 314 647 l 317 646 l 371 646 l 429 640 l 447 638 l 485 625 l 496 607 l 500 590 l 500 585 l 499 583 l 483 563 l 293 558 l 300 488 l 318 488 l 367 482 l 382 478 l 414 465 l 424 447 l 428 431 l 428 425 l 426 424 l 413 401 l 317 399 l 332 313 l 338 294 l 340 251 l 354 183 l 358 175 l 361 151 l 374 138 l 379 124 l 388 118 l 417 143 l 426 219 l 425 275 l 428 294 l 442 300 l 463 296 l 475 296 l 483 286 l 489 290 l 496 290 l 500 293 l 506 290 l 515 294 l 522 286 l 524 267 l 531 246 l 531 229 l 547 160 l 540 115 l 515 75 l 513 71 l 503 58 l 482 42 l 460 33 l 446 31 l 388 4 l 353 -3 l 340 -10 l 314 -12 l 308 -10 l 281 -6 l 253 7 l 236 22 l 203 57 l 172 106 l 153 160 l 118 351 l 115 393 l 90 393 l 78 389 l 63 390 l 47 408 l 40 435 l 31 456 l 33 465 l 28 467 l 28 478 l 56 483 l 106 488 l 111 488 l 111 554 l 103 554 l 89 550 l 69 551 l 51 569 "}}}
